<mxfile host="Electron" modified="2025-07-12T21:10:58.682Z" agent="Mozilla/5.0 (Macintosh; Intel Mac OS X 10_15_7) AppleWebKit/537.36 (KHTML, like Gecko) draw.io/21.6.1 Chrome/112.0.5615.204 Electron/24.6.1 Safari/537.36" etag="DtFi0biW4UaHpQxFMiLP" version="21.6.1" type="device">
  <diagram name="architecture" id="1QEZeXvbHyrnDDWQ2KDU">
    <mxGraphModel dx="578" dy="441" grid="1" gridSize="10" guides="1" tooltips="1" connect="1" arrows="1" fold="1" page="1" pageScale="1" pageWidth="1000" pageHeight="1000" math="0" shadow="0">
      <root>
        <mxCell id="0" />
        <mxCell id="1" parent="0" />
        <mxCell id="F4cN8ri1p3pjv_KpareM-14" style="edgeStyle=orthogonalEdgeStyle;rounded=0;orthogonalLoop=1;jettySize=auto;html=1;entryX=0;entryY=0.5;entryDx=0;entryDy=0;" edge="1" parent="1" source="F4cN8ri1p3pjv_KpareM-7" target="F4cN8ri1p3pjv_KpareM-15">
          <mxGeometry relative="1" as="geometry">
            <mxPoint x="230" y="150" as="targetPoint" />
          </mxGeometry>
        </mxCell>
        <mxCell id="F4cN8ri1p3pjv_KpareM-7" value="source" style="swimlane;whiteSpace=wrap;html=1;dashed=1;fillColor=#d5e8d4;strokeColor=#82b366;" vertex="1" parent="1">
          <mxGeometry x="40" y="80" width="140" height="140" as="geometry" />
        </mxCell>
        <mxCell id="F4cN8ri1p3pjv_KpareM-9" value="" style="shape=image;verticalLabelPosition=bottom;labelBackgroundColor=default;verticalAlign=top;aspect=fixed;imageAspect=0;image=data:image/svg+xml,PHN2ZyB4bWxucz0iaHR0cDovL3d3dy53My5vcmcvMjAwMC9zdmciIGlkPSJzdmcxOSIgdmlld0JveD0iMCAwIDc2OTguNzc3MyAyNDQ5LjUyMjQiIHN0eWxlPSJjbGlwLXJ1bGU6ZXZlbm9kZDtmaWxsLXJ1bGU6ZXZlbm9kZDtpbWFnZS1yZW5kZXJpbmc6b3B0aW1pemVRdWFsaXR5O3NoYXBlLXJlbmRlcmluZzpnZW9tZXRyaWNQcmVjaXNpb247dGV4dC1yZW5kZXJpbmc6Z2VvbWV0cmljUHJlY2lzaW9uIiB2ZXJzaW9uPSIxLjEiIGhlaWdodD0iMjQuNzkxMjAxbW0iIHdpZHRoPSI3Ny45MTc5MTVtbSIgeG1sOnNwYWNlPSJwcmVzZXJ2ZSI+PG1ldGFkYXRhIGlkPSJtZXRhZGF0YTIzIj5pbWFnZS9zdmcreG1sPC9tZXRhZGF0YT4mI3hhOyA8ZGVmcyBpZD0iZGVmczQiPiYjeGE7ICA8c3R5bGUgaWQ9InN0eWxlMiIgdHlwZT0idGV4dC9jc3MiPiYjeGE7ICAgJiN4YTsgICAgLmZpbDEge2ZpbGw6IzkxMDAwRn0mI3hhOyAgICAuZmlsMiB7ZmlsbDojRkYwQTBBfSYjeGE7ICAgIC5maWwwIHtmaWxsOmJsYWNrO2ZpbGwtcnVsZTpub256ZXJvfSYjeGE7ICAgJiN4YTsgIDwvc3R5bGU+JiN4YTsgPC9kZWZzPiYjeGE7ICYjeGE7PGcgdHJhbnNmb3JtPSJ0cmFuc2xhdGUoMTA5Ni4wODU3LC0yNTEzLjc3OTkpIiBpZD0iZzkxOCI+PGcgdHJhbnNmb3JtPSJ0cmFuc2xhdGUoLTg2Mi44ODMxNywyNzQ2Ljc1MjUpIiBzdHlsZT0iY2xpcC1ydWxlOmV2ZW5vZGQ7ZmlsbC1ydWxlOmV2ZW5vZGQ7c3Ryb2tlOiNmZmZmZmY7c3Ryb2tlLXdpZHRoOjQ2Ni4zMjk3MTE5MTtzdHJva2UtbGluZWpvaW46cm91bmQ7c3Ryb2tlLW1pdGVybGltaXQ6NDtzdHJva2UtZGFzaGFycmF5Om5vbmU7c3Ryb2tlLW9wYWNpdHk6MTtpbWFnZS1yZW5kZXJpbmc6b3B0aW1pemVRdWFsaXR5O3NoYXBlLXJlbmRlcmluZzpnZW9tZXRyaWNQcmVjaXNpb247dGV4dC1yZW5kZXJpbmc6Z2VvbWV0cmljUHJlY2lzaW9uIiBpZD0i0KHQu9C+0LlfeDAwMjBfMS0zIj48bWV0YWRhdGEgaWQ9IkNvcmVsQ29ycElEXzBDb3JlbC1MYXllci02Ii8+PGcgaWQ9Il8xMzQ2ODkwNjIxNjY0LTciIHN0eWxlPSJzdHJva2U6I2ZmZmZmZjtzdHJva2Utd2lkdGg6NDY2LjMyOTcxMTkxO3N0cm9rZS1saW5lam9pbjpyb3VuZDtzdHJva2UtbWl0ZXJsaW1pdDo0O3N0cm9rZS1kYXNoYXJyYXk6bm9uZTtzdHJva2Utb3BhY2l0eToxIj48cGF0aCBjbGFzcz0iZmlsMCIgZD0ibSAzMDE5LjE3LDEyMTEuNCBjIDk1LjYzLDU1LjA5IDE0My40NiwxMzguMjYgMTQzLjQ2LDI0OS41IDAsOTIuNTEgLTMyLjc0LDE2OC40MSAtOTguMjQsMjI3LjY2IC02NS40OSw1OS4yNSAtMTQ2LjA2LDg4Ljg4IC0yNDEuNjksODguODggSCAyMzU5LjU5IFYgNjg1LjkyIGggNDMwLjM3IGMgOTMuNTYsMCAxNzIuMywyOC44NSAyMzYuMjQsODYuNTQgNjMuOTMsNTcuNjkgOTUuOSwxMzEuMjQgOTUuOSwyMjAuNjQgMCw5MC40NCAtMzQuMzEsMTYzLjIxIC0xMDIuOTIsMjE4LjMgeiBNIDI3ODkuOTUsODg3LjA3IGggLTIxNS4xOSB2IDI0MC4xMyBoIDIxNS4xOSBjIDMzLjI3LDAgNjEuMDcsLTExLjQzIDgzLjQyLC0zNC4zMSAyMi4zNSwtMjIuODYgMzMuNTIsLTUxLjQ2IDMzLjUyLC04NS43NiAwLC0zNC4zMSAtMTAuOTIsLTYyLjg5IC0zMi43NCwtODUuNzUgLTIxLjgzLC0yMi44NyAtNDkuOSwtMzQuMzEgLTg0LjIsLTM0LjMxIHogbSAzMi43NCw2ODkuMjEgYyAzNi4zOCwwIDY2LjUzLC0xMi4yMSA5MC40NCwtMzYuNjUgMjMuOTEsLTI0LjQyIDM1Ljg3LC01NS4zNSAzNS44NywtOTIuNzggMCwtMzYuMzggLTExLjk2LC02Ni43OSAtMzUuODcsLTkxLjIyIC0yMy45MSwtMjQuNDIgLTU0LjA2LC0zNi42NSAtOTAuNDQsLTM2LjY1IGggLTI0Ny45MyB2IDI1Ny4yOSBoIDI0Ny45MyB6IG0gNjUzLjM2LC0xMDYuMDQgYyAyNy4wMiw5Ny43MiAxMDAuMzIsMTQ2LjU4IDIxOS44NiwxNDYuNTggNzYuOTIsMCAxMzUuMTQsLTI1Ljk5IDE3NC42NCwtNzcuOTcgbCAxNjIuMTcsOTMuNTYgYyAtNzYuOTMsMTExLjI0IC0xOTAuMjQsMTY2Ljg0IC0zMzkuOTMsMTY2Ljg0IC0xMjguOSwwIC0yMzIuMzMsLTM4Ljk4IC0zMTAuMywtMTE2Ljk1IC03Ny45NywtNzcuOTYgLTExNi45NSwtMTc2LjIgLTExNi45NSwtMjk0LjcxIDAsLTExNy40NiAzOC40NywtMjE1LjQ1IDExNS4zOSwtMjkzLjkzIDc2LjkzLC03OC40OCAxNzUuNjksLTExNy43MyAyOTYuMjcsLTExNy43MyAxMTQuMzUsMCAyMDguNjksMzkuNSAyODMuMDEsMTE4LjUxIDc0LjMzLDc5LjAxIDExMS40OSwxNzYuNzIgMTExLjQ5LDI5My4xNSAwLDI1Ljk5IC0yLjYsNTMuNTQgLTcuOCw4Mi42NCBoIC01ODcuODYgeiBtIC0zLjEyLC0xNTUuOTMgaCAzOTcuNjMgYyAtMTEuNDMsLTUzLjAyIC0zNS4wOSwtOTIuNTIgLTcwLjk0LC0xMTguNTEgLTM1Ljg3LC0yNS45OSAtNzYuNjcsLTM4Ljk4IC0xMjIuNDEsLTM4Ljk4IC01NC4wNiwwIC05OC43NiwxMy43NyAtMTM0LjEsNDEuMzIgLTM1LjM0LDI3LjU1IC01OC43Myw2Ni4yNyAtNzAuMTcsMTE2LjE3IHogTSA0Nzk4LjM1LDk5Ny43NiBoIDIwMS4xNSB2IDc3OS42NiBoIC0yMDEuMTUgdiAtOTIgYyAtNjAuMjksNzUuODggLTE0NS4wMiwxMTMuODIgLTI1NC4xNywxMTMuODIgLTEwMy45NSwwIC0xOTMuMSwtMzkuNzYgLTI2Ny40MiwtMTE5LjI4IC03NC4zMywtNzkuNTMgLTExMS40OSwtMTc2Ljk4IC0xMTEuNDksLTI5Mi4zOCAwLC0xMTUuMzkgMzcuMTYsLTIxMi44NCAxMTEuNDksLTI5Mi4zNyA3NC4zMiwtNzkuNTMgMTYzLjQ2LC0xMTkuMjkgMjY3LjQyLC0xMTkuMjkgMTA5LjE1LDAgMTkzLjg4LDM3Ljk0IDI1NC4xNywxMTMuODMgdiAtOTIuMDEgeiBtIC0zNzEuMTIsNTQ4LjEgYyA0MC41NCw0MS4wNiA5Miw2MS42IDE1NC4zNyw2MS42IDYyLjM3LDAgMTE0LjA4LC0yMC41MyAxNTUuMTUsLTYxLjYgNDEuMDYsLTQxLjA1IDYxLjYsLTkzLjgyIDYxLjYsLTE1OC4yNyAwLC02NC40NSAtMjAuNTMsLTExNy4yIC02MS42LC0xNTguMjcgLTQxLjA2LC00MS4wNiAtOTIuNzgsLTYxLjYgLTE1NS4xNSwtNjEuNiAtNjIuMzgsMCAtMTEzLjgzLDIwLjUzIC0xNTQuMzcsNjEuNiAtNDAuNTQsNDEuMDYgLTYwLjgyLDkzLjgyIC02MC44MiwxNTguMjcgMCw2NC40NSAyMC4yOCwxMTcuMjEgNjAuODIsMTU4LjI3IHogTSA1NjE1LjQyLDk3NS45NCBjIDg1LjI0LDAgMTU1LjY3LDI4LjU4IDIxMS4yOSw4NS43NiA1NS42MSw1Ny4xNyA4My40MiwxMzYuMTcgODMuNDIsMjM3LjAyIHYgNDc4LjcxIGggLTIwMS4xNSB2IC00NTMuNzYgYyAwLC01MS45OCAtMTQuMDQsLTkxLjc0IC00Mi4xLC0xMTkuMjkgLTI4LjA3LC0yNy41NSAtNjUuNSwtNDEuMzIgLTExMi4yNywtNDEuMzIgLTUxLjk4LDAgLTkzLjU2LDE2LjEyIC0xMjQuNzQsNDguMzQgLTMxLjE5LDMyLjIzIC00Ni43OCw4MC41NyAtNDYuNzgsMTQ1LjAyIHYgNDIxLjAxIEggNTE4MS45NCBWIDk5Ny43NyBoIDIwMS4xNSB2IDg3LjMyIGMgNDguODYsLTcyLjc3IDEyNi4zLC0xMDkuMTUgMjMyLjM0LC0xMDkuMTUgeiBtIDU2Ni4wMiwtNzEuNzIgYyAtMzMuMjYsMCAtNjIuMTEsLTEyLjIyIC04Ni41MywtMzYuNjUgLTI0LjQzLC0yNC40MiAtMzYuNjUsLTUzLjI4IC0zNi42NSwtODYuNTQgMCwtMzMuMjcgMTIuMjEsLTYyLjM3IDM2LjY1LC04Ny4zMiAyNC40MiwtMjQuOTUgNTMuMjgsLTM3LjQzIDg2LjUzLC0zNy40MyAzNC4zMSwwIDYzLjY3LDEyLjQ4IDg4LjExLDM3LjQzIDI0LjQyLDI0Ljk1IDM2LjY0LDU0LjA1IDM2LjY0LDg3LjMyIDAsMzMuMjcgLTEyLjIxLDYyLjEyIC0zNi42NCw4Ni41NCAtMjQuNDMsMjQuNDIgLTUzLjgsMzYuNjUgLTg4LjExLDM2LjY1IHogbSAtOTkuNzksODczLjIxIFYgOTk3Ljc3IGggMjAxLjE1IHYgNzc5LjY2IHogbSA1NTUuMTEsLTMwNy4xOSBjIDI3LjAyLDk3LjcyIDEwMC4zMiwxNDYuNTggMjE5Ljg2LDE0Ni41OCA3Ni45MiwwIDEzNS4xNCwtMjUuOTkgMTc0LjY0LC03Ny45NyBsIDE2Mi4xNyw5My41NiBjIC03Ni45MywxMTEuMjQgLTE5MC4yNCwxNjYuODQgLTMzOS45MywxNjYuODQgLTEyOC45LDAgLTIzMi4zMywtMzguOTggLTMxMC4zLC0xMTYuOTUgLTc3Ljk3LC03Ny45NiAtMTE2Ljk1LC0xNzYuMiAtMTE2Ljk1LC0yOTQuNzEgMCwtMTE3LjQ2IDM4LjQ3LC0yMTUuNDUgMTE1LjM5LC0yOTMuOTMgNzYuOTMsLTc4LjQ4IDE3NS42OSwtMTE3LjczIDI5Ni4yNywtMTE3LjczIDExNC4zNSwwIDIwOC42OSwzOS41IDI4My4wMSwxMTguNTEgNzQuMzMsNzkuMDEgMTExLjQ5LDE3Ni43MiAxMTEuNDksMjkzLjE1IDAsMjUuOTkgLTIuNiw1My41NCAtNy44LDgyLjY0IGggLTU4Ny44NiB6IG0gLTMuMTIsLTE1NS45MyBoIDM5Ny42MyBjIC0xMS40MywtNTMuMDIgLTM1LjA5LC05Mi41MiAtNzAuOTQsLTExOC41MSAtMzUuODcsLTI1Ljk5IC03Ni42NywtMzguOTggLTEyMi40MSwtMzguOTggLTU0LjA2LDAgLTk4Ljc2LDEzLjc3IC0xMzQuMSw0MS4zMiAtMzUuMzQsMjcuNTUgLTU4LjczLDY2LjI3IC03MC4xNywxMTYuMTcgeiIgaWQ9InBhdGg3LTUiIHN0eWxlPSJmaWxsOiMwMDAwMDA7ZmlsbC1ydWxlOm5vbnplcm87c3Ryb2tlOiNmZmZmZmY7c3Ryb2tlLXdpZHRoOjQ2Ni4zMjk3MTE5MTtzdHJva2UtbGluZWpvaW46cm91bmQ7c3Ryb2tlLW1pdGVybGltaXQ6NDtzdHJva2UtZGFzaGFycmF5Om5vbmU7c3Ryb2tlLW9wYWNpdHk6MSIvPjxnIGlkPSJnMTUtMyIgc3R5bGU9InN0cm9rZTojZmZmZmZmO3N0cm9rZS13aWR0aDo0NjYuMzI5NzExOTE7c3Ryb2tlLWxpbmVqb2luOnJvdW5kO3N0cm9rZS1taXRlcmxpbWl0OjQ7c3Ryb2tlLWRhc2hhcnJheTpub25lO3N0cm9rZS1vcGFjaXR5OjEiPjxwYXRoIGNsYXNzPSJmaWwxIiBkPSJtIDExMS4wMywxNjU3Ljk5IGMgMzAuNjcsNDcuMjkgODcuMzgsMTE4LjM3IDExNS43MiwxNzIuNyAxMzguNTIsMjY1LjU1IDI3NC45OSwxMjYuNzkgNDYzLjQyLDMxLjY5IDMwMy40NCwtMTUzLjE2IDY3NC41OCwtMzM0LjQgOTM4LjI0LC00MDEuMyAzMjguODQsLTgzLjQ2IDI2OC41NywtMjQ0LjczIDIxMy42NSwtMzUyLjA0IC00OS45NCwtOTcuNTYgLTQ4LjExLC0yNDMuMjkgLTE4OS4zNCwtMzA2LjUzIEMgMTYyMC43Niw1MTcuNTQgMTQ2Mi41MSwzMjkuNzcgMTI3My4xLDI4Mi45IDEyMTIuMjQsODIuMjEgMTA3NS44MSwtMTQuMzMgOTQwLjYsMS43MiA3OTQuNDEsMTQuNjEgNzEyLjMyLDE1MC43NiA1OTMuMjIsMjAxLjk2IDQ0OS41NiwyNTMuMyAzMTAuNTgsMjE3Ljg0IDE2Ni45MSwyNjkuMTggNy43OCwzMzIuNSAtMjcuNiw0NjkuOTggMTkuMDIsNjA1LjY2IGMgMzEsOTAuMiA2NC45NiwxNzMuNjggMTExLjIzLDI0My4wMyAtMTA1LjQyLDk0LjE5IC0xNDMuMTgsMjkzLjEyIC02LjI5LDQ2MS4xNSAtMTI5LjgxLDExMC4yNCAtODkuMzksMjMwLjE5IC0xMi45MSwzNDguMTQgeiIgaWQ9InBhdGg5LTUiIHN0eWxlPSJmaWxsOiM5MTAwMGY7c3Ryb2tlOiNmZmZmZmY7c3Ryb2tlLXdpZHRoOjQ2Ni4zMjk3MTE5MTtzdHJva2UtbGluZWpvaW46cm91bmQ7c3Ryb2tlLW1pdGVybGltaXQ6NDtzdHJva2UtZGFzaGFycmF5Om5vbmU7c3Ryb2tlLW9wYWNpdHk6MSIvPjxwYXRoIGNsYXNzPSJmaWwyIiBkPSJtIDE1MjAuMDQsNzg1LjY2IGMgLTQ1NS4xOSwtMi44IC03OTkuODcsMTc2LjA3IC0xMTg2LjM4LDM4OS4yNyAtOTcuMiw2My44NyAtMjc5LjMsLTE4Mi43IC0yOS4xOSwtMzYyLjU5IDYwLjk1LC00My44MyAxNDYuMDgsLTczLjc0IDI1Ny42OCwtMTExLjc2IC04OS4yNywxNC4zNCAtMTc4LjUzLDI4LjY1IC0yNjcuOCw0Mi45OSAtMTE3LjEzLDE0LjYyIC0xNjcuNzMsLTIzNC43NSAtODcuNDMsLTMyMy4yNiA3MC40MiwtNzcuNTggMjEzLjUxLC0xMDAuMDIgMzEzLjk0LC05My41OCA5Ny4xLDYuMjUgMTgwLjY1LC0yMy42IDI0NS45NSwtMTAyLjAxIDQ2LjMsLTU1LjU2IDg0LjI5LC0xMDQuNzMgMTYxLjg1LC0xMTIuMTUgMTI1LjY2LC0xMi4wMiAyMDguOTcsNTQuNTggMjU0LjYyLDIxNy4yIC04MS45NywzNS41NSAtMTM1LjcxLDk2LjM2IC0xNzAuMjksMTQ1LjI1IDcyLjg5LC01NC45NyAxNTkuMzIsLTk4LjA0IDIxNC44MSwtMTExLjY2IDIwOS4zNyw5OS41NiAyODYuMTksMjQ5Ljg2IDI5Mi4yNCw0MjIuMzEgeiIgaWQ9InBhdGgxMS02IiBzdHlsZT0iZmlsbDojZmYwYTBhO3N0cm9rZTojZmZmZmZmO3N0cm9rZS13aWR0aDo0NjYuMzI5NzExOTE7c3Ryb2tlLWxpbmVqb2luOnJvdW5kO3N0cm9rZS1taXRlcmxpbWl0OjQ7c3Ryb2tlLWRhc2hhcnJheTpub25lO3N0cm9rZS1vcGFjaXR5OjEiLz48cGF0aCBjbGFzcz0iZmlsMiIgZD0ibSAxNTIxLjU4LDg4NS4yMyBjIC0xMDYuMjksMTMuNzEgLTIxNy45OCwzMy41NyAtMzMxLjk3LDYwLjg0IDg1LjE4LDIyLjQ1IDE1MC4xMiw5Ny41NiAxNTUuNDQsMTkwLjI4IDYuNjEsMTE1LjMxIC04MS41MSwyMTQuMTQgLTE5Ni44MiwyMjAuNzUgLTExNS4zMSw2LjYxIC0yMTQuMTQsLTgxLjUxIC0yMjAuNzUsLTE5Ni44MSAtMy41LC02MS4xIDE5LjU4LC0xMTcuNTcgNTkuMjIsLTE1OC4xNCAtMjQ0Ljk3LDc3LjIgLTQ5Mi4yMSwxOTEuMTEgLTcxMi41MiwzNTQuMDYgLTk0Ljg2LDcwLjE2IC0xMTguOTQsMTIzLjk1IC00MC4wMywyMjcuNyAyNS4zNCwzMy4zMyA0My41Niw1OS43MyA2MC4wOSw5MC41MSAxMzYuMzEsMjUzLjg3IDE2NC4yOSwxODYuMDUgNDAzLjE5LDYwLjMgMzA0Ljg5LC0xNjAuNDkgNTk5LjQsLTI5Mi45MiA5NDUuMTQsLTM4MS42MSAxMTQuNSwtMjkuMzcgMTgyLC05NS45NyAxMjEuNywtMjIwLjE2IC0yMy4wNSwtNDcuNTEgLTM4LjE3LC04OS4yNyAtNjUuNTksLTE1MS45MyAtNDIuNjEsLTk3LjM2IC02OC4wNiwtMTA5Ljg3IC0xNzcuMTEsLTk1Ljc5IHoiIGlkPSJwYXRoMTMtMiIgc3R5bGU9ImZpbGw6I2ZmMGEwYTtzdHJva2U6I2ZmZmZmZjtzdHJva2Utd2lkdGg6NDY2LjMyOTcxMTkxO3N0cm9rZS1saW5lam9pbjpyb3VuZDtzdHJva2UtbWl0ZXJsaW1pdDo0O3N0cm9rZS1kYXNoYXJyYXk6bm9uZTtzdHJva2Utb3BhY2l0eToxIi8+PC9nPjwvZz48L2c+PGcgdHJhbnNmb3JtPSJ0cmFuc2xhdGUoLTg2Mi44ODMxNywyNzQ2Ljc1MjUpIiBzdHlsZT0iY2xpcC1ydWxlOmV2ZW5vZGQ7ZmlsbC1ydWxlOmV2ZW5vZGQ7aW1hZ2UtcmVuZGVyaW5nOm9wdGltaXplUXVhbGl0eTtzaGFwZS1yZW5kZXJpbmc6Z2VvbWV0cmljUHJlY2lzaW9uO3RleHQtcmVuZGVyaW5nOmdlb21ldHJpY1ByZWNpc2lvbiIgaWQ9ItCh0LvQvtC5X3gwMDIwXzEtOSI+PG1ldGFkYXRhIGlkPSJDb3JlbENvcnBJRF8wQ29yZWwtTGF5ZXItMSIvPjxnIGlkPSJfMTM0Njg5MDYyMTY2NC0yIj48cGF0aCBjbGFzcz0iZmlsMCIgZD0ibSAzMDE5LjE3LDEyMTEuNCBjIDk1LjYzLDU1LjA5IDE0My40NiwxMzguMjYgMTQzLjQ2LDI0OS41IDAsOTIuNTEgLTMyLjc0LDE2OC40MSAtOTguMjQsMjI3LjY2IC02NS40OSw1OS4yNSAtMTQ2LjA2LDg4Ljg4IC0yNDEuNjksODguODggSCAyMzU5LjU5IFYgNjg1LjkyIGggNDMwLjM3IGMgOTMuNTYsMCAxNzIuMywyOC44NSAyMzYuMjQsODYuNTQgNjMuOTMsNTcuNjkgOTUuOSwxMzEuMjQgOTUuOSwyMjAuNjQgMCw5MC40NCAtMzQuMzEsMTYzLjIxIC0xMDIuOTIsMjE4LjMgeiBNIDI3ODkuOTUsODg3LjA3IGggLTIxNS4xOSB2IDI0MC4xMyBoIDIxNS4xOSBjIDMzLjI3LDAgNjEuMDcsLTExLjQzIDgzLjQyLC0zNC4zMSAyMi4zNSwtMjIuODYgMzMuNTIsLTUxLjQ2IDMzLjUyLC04NS43NiAwLC0zNC4zMSAtMTAuOTIsLTYyLjg5IC0zMi43NCwtODUuNzUgLTIxLjgzLC0yMi44NyAtNDkuOSwtMzQuMzEgLTg0LjIsLTM0LjMxIHogbSAzMi43NCw2ODkuMjEgYyAzNi4zOCwwIDY2LjUzLC0xMi4yMSA5MC40NCwtMzYuNjUgMjMuOTEsLTI0LjQyIDM1Ljg3LC01NS4zNSAzNS44NywtOTIuNzggMCwtMzYuMzggLTExLjk2LC02Ni43OSAtMzUuODcsLTkxLjIyIC0yMy45MSwtMjQuNDIgLTU0LjA2LC0zNi42NSAtOTAuNDQsLTM2LjY1IGggLTI0Ny45MyB2IDI1Ny4yOSBoIDI0Ny45MyB6IG0gNjUzLjM2LC0xMDYuMDQgYyAyNy4wMiw5Ny43MiAxMDAuMzIsMTQ2LjU4IDIxOS44NiwxNDYuNTggNzYuOTIsMCAxMzUuMTQsLTI1Ljk5IDE3NC42NCwtNzcuOTcgbCAxNjIuMTcsOTMuNTYgYyAtNzYuOTMsMTExLjI0IC0xOTAuMjQsMTY2Ljg0IC0zMzkuOTMsMTY2Ljg0IC0xMjguOSwwIC0yMzIuMzMsLTM4Ljk4IC0zMTAuMywtMTE2Ljk1IC03Ny45NywtNzcuOTYgLTExNi45NSwtMTc2LjIgLTExNi45NSwtMjk0LjcxIDAsLTExNy40NiAzOC40NywtMjE1LjQ1IDExNS4zOSwtMjkzLjkzIDc2LjkzLC03OC40OCAxNzUuNjksLTExNy43MyAyOTYuMjcsLTExNy43MyAxMTQuMzUsMCAyMDguNjksMzkuNSAyODMuMDEsMTE4LjUxIDc0LjMzLDc5LjAxIDExMS40OSwxNzYuNzIgMTExLjQ5LDI5My4xNSAwLDI1Ljk5IC0yLjYsNTMuNTQgLTcuOCw4Mi42NCBoIC01ODcuODYgeiBtIC0zLjEyLC0xNTUuOTMgaCAzOTcuNjMgYyAtMTEuNDMsLTUzLjAyIC0zNS4wOSwtOTIuNTIgLTcwLjk0LC0xMTguNTEgLTM1Ljg3LC0yNS45OSAtNzYuNjcsLTM4Ljk4IC0xMjIuNDEsLTM4Ljk4IC01NC4wNiwwIC05OC43NiwxMy43NyAtMTM0LjEsNDEuMzIgLTM1LjM0LDI3LjU1IC01OC43Myw2Ni4yNyAtNzAuMTcsMTE2LjE3IHogTSA0Nzk4LjM1LDk5Ny43NiBoIDIwMS4xNSB2IDc3OS42NiBoIC0yMDEuMTUgdiAtOTIgYyAtNjAuMjksNzUuODggLTE0NS4wMiwxMTMuODIgLTI1NC4xNywxMTMuODIgLTEwMy45NSwwIC0xOTMuMSwtMzkuNzYgLTI2Ny40MiwtMTE5LjI4IC03NC4zMywtNzkuNTMgLTExMS40OSwtMTc2Ljk4IC0xMTEuNDksLTI5Mi4zOCAwLC0xMTUuMzkgMzcuMTYsLTIxMi44NCAxMTEuNDksLTI5Mi4zNyA3NC4zMiwtNzkuNTMgMTYzLjQ2LC0xMTkuMjkgMjY3LjQyLC0xMTkuMjkgMTA5LjE1LDAgMTkzLjg4LDM3Ljk0IDI1NC4xNywxMTMuODMgdiAtOTIuMDEgeiBtIC0zNzEuMTIsNTQ4LjEgYyA0MC41NCw0MS4wNiA5Miw2MS42IDE1NC4zNyw2MS42IDYyLjM3LDAgMTE0LjA4LC0yMC41MyAxNTUuMTUsLTYxLjYgNDEuMDYsLTQxLjA1IDYxLjYsLTkzLjgyIDYxLjYsLTE1OC4yNyAwLC02NC40NSAtMjAuNTMsLTExNy4yIC02MS42LC0xNTguMjcgLTQxLjA2LC00MS4wNiAtOTIuNzgsLTYxLjYgLTE1NS4xNSwtNjEuNiAtNjIuMzgsMCAtMTEzLjgzLDIwLjUzIC0xNTQuMzcsNjEuNiAtNDAuNTQsNDEuMDYgLTYwLjgyLDkzLjgyIC02MC44MiwxNTguMjcgMCw2NC40NSAyMC4yOCwxMTcuMjEgNjAuODIsMTU4LjI3IHogTSA1NjE1LjQyLDk3NS45NCBjIDg1LjI0LDAgMTU1LjY3LDI4LjU4IDIxMS4yOSw4NS43NiA1NS42MSw1Ny4xNyA4My40MiwxMzYuMTcgODMuNDIsMjM3LjAyIHYgNDc4LjcxIGggLTIwMS4xNSB2IC00NTMuNzYgYyAwLC01MS45OCAtMTQuMDQsLTkxLjc0IC00Mi4xLC0xMTkuMjkgLTI4LjA3LC0yNy41NSAtNjUuNSwtNDEuMzIgLTExMi4yNywtNDEuMzIgLTUxLjk4LDAgLTkzLjU2LDE2LjEyIC0xMjQuNzQsNDguMzQgLTMxLjE5LDMyLjIzIC00Ni43OCw4MC41NyAtNDYuNzgsMTQ1LjAyIHYgNDIxLjAxIEggNTE4MS45NCBWIDk5Ny43NyBoIDIwMS4xNSB2IDg3LjMyIGMgNDguODYsLTcyLjc3IDEyNi4zLC0xMDkuMTUgMjMyLjM0LC0xMDkuMTUgeiBtIDU2Ni4wMiwtNzEuNzIgYyAtMzMuMjYsMCAtNjIuMTEsLTEyLjIyIC04Ni41MywtMzYuNjUgLTI0LjQzLC0yNC40MiAtMzYuNjUsLTUzLjI4IC0zNi42NSwtODYuNTQgMCwtMzMuMjcgMTIuMjEsLTYyLjM3IDM2LjY1LC04Ny4zMiAyNC40MiwtMjQuOTUgNTMuMjgsLTM3LjQzIDg2LjUzLC0zNy40MyAzNC4zMSwwIDYzLjY3LDEyLjQ4IDg4LjExLDM3LjQzIDI0LjQyLDI0Ljk1IDM2LjY0LDU0LjA1IDM2LjY0LDg3LjMyIDAsMzMuMjcgLTEyLjIxLDYyLjEyIC0zNi42NCw4Ni41NCAtMjQuNDMsMjQuNDIgLTUzLjgsMzYuNjUgLTg4LjExLDM2LjY1IHogbSAtOTkuNzksODczLjIxIFYgOTk3Ljc3IGggMjAxLjE1IHYgNzc5LjY2IHogbSA1NTUuMTEsLTMwNy4xOSBjIDI3LjAyLDk3LjcyIDEwMC4zMiwxNDYuNTggMjE5Ljg2LDE0Ni41OCA3Ni45MiwwIDEzNS4xNCwtMjUuOTkgMTc0LjY0LC03Ny45NyBsIDE2Mi4xNyw5My41NiBjIC03Ni45MywxMTEuMjQgLTE5MC4yNCwxNjYuODQgLTMzOS45MywxNjYuODQgLTEyOC45LDAgLTIzMi4zMywtMzguOTggLTMxMC4zLC0xMTYuOTUgLTc3Ljk3LC03Ny45NiAtMTE2Ljk1LC0xNzYuMiAtMTE2Ljk1LC0yOTQuNzEgMCwtMTE3LjQ2IDM4LjQ3LC0yMTUuNDUgMTE1LjM5LC0yOTMuOTMgNzYuOTMsLTc4LjQ4IDE3NS42OSwtMTE3LjczIDI5Ni4yNywtMTE3LjczIDExNC4zNSwwIDIwOC42OSwzOS41IDI4My4wMSwxMTguNTEgNzQuMzMsNzkuMDEgMTExLjQ5LDE3Ni43MiAxMTEuNDksMjkzLjE1IDAsMjUuOTkgLTIuNiw1My41NCAtNy44LDgyLjY0IGggLTU4Ny44NiB6IG0gLTMuMTIsLTE1NS45MyBoIDM5Ny42MyBjIC0xMS40MywtNTMuMDIgLTM1LjA5LC05Mi41MiAtNzAuOTQsLTExOC41MSAtMzUuODcsLTI1Ljk5IC03Ni42NywtMzguOTggLTEyMi40MSwtMzguOTggLTU0LjA2LDAgLTk4Ljc2LDEzLjc3IC0xMzQuMSw0MS4zMiAtMzUuMzQsMjcuNTUgLTU4LjczLDY2LjI3IC03MC4xNywxMTYuMTcgeiIgaWQ9InBhdGg3LTciIHN0eWxlPSJmaWxsOiMwMDAwMDA7ZmlsbC1ydWxlOm5vbnplcm8iLz48ZyBpZD0iZzE1LTAiPjxwYXRoIGNsYXNzPSJmaWwxIiBkPSJtIDExMS4wMywxNjU3Ljk5IGMgMzAuNjcsNDcuMjkgODcuMzgsMTE4LjM3IDExNS43MiwxNzIuNyAxMzguNTIsMjY1LjU1IDI3NC45OSwxMjYuNzkgNDYzLjQyLDMxLjY5IDMwMy40NCwtMTUzLjE2IDY3NC41OCwtMzM0LjQgOTM4LjI0LC00MDEuMyAzMjguODQsLTgzLjQ2IDI2OC41NywtMjQ0LjczIDIxMy42NSwtMzUyLjA0IC00OS45NCwtOTcuNTYgLTQ4LjExLC0yNDMuMjkgLTE4OS4zNCwtMzA2LjUzIEMgMTYyMC43Niw1MTcuNTQgMTQ2Mi41MSwzMjkuNzcgMTI3My4xLDI4Mi45IDEyMTIuMjQsODIuMjEgMTA3NS44MSwtMTQuMzMgOTQwLjYsMS43MiA3OTQuNDEsMTQuNjEgNzEyLjMyLDE1MC43NiA1OTMuMjIsMjAxLjk2IDQ0OS41NiwyNTMuMyAzMTAuNTgsMjE3Ljg0IDE2Ni45MSwyNjkuMTggNy43OCwzMzIuNSAtMjcuNiw0NjkuOTggMTkuMDIsNjA1LjY2IGMgMzEsOTAuMiA2NC45NiwxNzMuNjggMTExLjIzLDI0My4wMyAtMTA1LjQyLDk0LjE5IC0xNDMuMTgsMjkzLjEyIC02LjI5LDQ2MS4xNSAtMTI5LjgxLDExMC4yNCAtODkuMzksMjMwLjE5IC0xMi45MSwzNDguMTQgeiIgaWQ9InBhdGg5LTkiIHN0eWxlPSJmaWxsOiM5MTAwMGYiLz48cGF0aCBjbGFzcz0iZmlsMiIgZD0ibSAxNTIwLjA0LDc4NS42NiBjIC00NTUuMTksLTIuOCAtNzk5Ljg3LDE3Ni4wNyAtMTE4Ni4zOCwzODkuMjcgLTk3LjIsNjMuODcgLTI3OS4zLC0xODIuNyAtMjkuMTksLTM2Mi41OSA2MC45NSwtNDMuODMgMTQ2LjA4LC03My43NCAyNTcuNjgsLTExMS43NiAtODkuMjcsMTQuMzQgLTE3OC41MywyOC42NSAtMjY3LjgsNDIuOTkgLTExNy4xMywxNC42MiAtMTY3LjczLC0yMzQuNzUgLTg3LjQzLC0zMjMuMjYgNzAuNDIsLTc3LjU4IDIxMy41MSwtMTAwLjAyIDMxMy45NCwtOTMuNTggOTcuMSw2LjI1IDE4MC42NSwtMjMuNiAyNDUuOTUsLTEwMi4wMSA0Ni4zLC01NS41NiA4NC4yOSwtMTA0LjczIDE2MS44NSwtMTEyLjE1IDEyNS42NiwtMTIuMDIgMjA4Ljk3LDU0LjU4IDI1NC42MiwyMTcuMiAtODEuOTcsMzUuNTUgLTEzNS43MSw5Ni4zNiAtMTcwLjI5LDE0NS4yNSA3Mi44OSwtNTQuOTcgMTU5LjMyLC05OC4wNCAyMTQuODEsLTExMS42NiAyMDkuMzcsOTkuNTYgMjg2LjE5LDI0OS44NiAyOTIuMjQsNDIyLjMxIHoiIGlkPSJwYXRoMTEtMyIgc3R5bGU9ImZpbGw6I2ZmMGEwYSIvPjxwYXRoIGNsYXNzPSJmaWwyIiBkPSJtIDE1MjEuNTgsODg1LjIzIGMgLTEwNi4yOSwxMy43MSAtMjE3Ljk4LDMzLjU3IC0zMzEuOTcsNjAuODQgODUuMTgsMjIuNDUgMTUwLjEyLDk3LjU2IDE1NS40NCwxOTAuMjggNi42MSwxMTUuMzEgLTgxLjUxLDIxNC4xNCAtMTk2LjgyLDIyMC43NSAtMTE1LjMxLDYuNjEgLTIxNC4xNCwtODEuNTEgLTIyMC43NSwtMTk2LjgxIC0zLjUsLTYxLjEgMTkuNTgsLTExNy41NyA1OS4yMiwtMTU4LjE0IC0yNDQuOTcsNzcuMiAtNDkyLjIxLDE5MS4xMSAtNzEyLjUyLDM1NC4wNiAtOTQuODYsNzAuMTYgLTExOC45NCwxMjMuOTUgLTQwLjAzLDIyNy43IDI1LjM0LDMzLjMzIDQzLjU2LDU5LjczIDYwLjA5LDkwLjUxIDEzNi4zMSwyNTMuODcgMTY0LjI5LDE4Ni4wNSA0MDMuMTksNjAuMyAzMDQuODksLTE2MC40OSA1OTkuNCwtMjkyLjkyIDk0NS4xNCwtMzgxLjYxIDExNC41LC0yOS4zNyAxODIsLTk1Ljk3IDEyMS43LC0yMjAuMTYgLTIzLjA1LC00Ny41MSAtMzguMTcsLTg5LjI3IC02NS41OSwtMTUxLjkzIC00Mi42MSwtOTcuMzYgLTY4LjA2LC0xMDkuODcgLTE3Ny4xMSwtOTUuNzkgeiIgaWQ9InBhdGgxMy02IiBzdHlsZT0iZmlsbDojZmYwYTBhIi8+PC9nPjwvZz48L2c+PC9nPjwvc3ZnPg==;" vertex="1" parent="F4cN8ri1p3pjv_KpareM-7">
          <mxGeometry x="31" y="40" width="78" height="25" as="geometry" />
        </mxCell>
        <mxCell id="F4cN8ri1p3pjv_KpareM-10" value="" style="shape=image;verticalLabelPosition=bottom;labelBackgroundColor=default;verticalAlign=top;aspect=fixed;imageAspect=0;image=data:image/png,iVBORw0KGgoAAAANSUhEUgAAAcQAAABfCAYAAAB2ibcrAACJ4klEQVR42uz9eXRd53UniP72/s5wR1yMBEGCBAWCIgXOmgdbgyV5djzETlJx7EripFKdrlRXpbu636t+/dzptd7r7lX9aq163VVd6epUddWrKXZVJlccT4ksW5Y1UQMlgYPAASRIELi4AO58z/Dt/f6451IgBRKXFKXQDvdaWpQo4N7zDWf/9vjbhFtyS27JzSr0u4DTB9CbQPw7gCZ/rz/Ji3oKcA4DZgSIfw6Qn/T13JKfHnFubcEtuSU3lyhAPx5FyloMOR52s5pcnpwXP+pumfvW9HSMn0wQoW8CXm8/BimLyfsJvcvkvf7ITHj6aSDCLWC8JTeBmFtbcEtuyc0DhA8OI7vQh62OwQc8Q1804N9kwuciQvEVL3OSN2yWYrGoP0HgQV8D0n9rEzYWevEBJ02/aJh/i0GftIRWrSd/atrrCRuNxk/Smm7JLQ/xltySW/JeyZ+MIPMCYbTXwwESepRADxFhQkFpCzTrxrstNP4GKHR4eFjn5+cFgL2ZgfBZIMXD2AgP+4yhRwn0KCnuUCI3JizV2dnU8LMj/el8AKBSLBZv9jXdkluAeEtuyS15r+RrgDeyFaM+8b0G9Jio3seMcQXllIBYUS+Rc/hFt2+myKkeEqlls9kmALpZ1/QUkMpvwWYhHGCihwV0PwF3oLMmoL7E3pFX3Z5TU07eS7vp7MaNG5vFYjG4BYi35BYg3pJb8lcPCM3mjRj1PNwDokeJ8KgCWwiUB4Gg0FCpcsH4r73o9v7wx37fggU7rjFcq9XoZl3Ttk3YxA7uV6JHGHQvCNsZKADEABADjXMm9epLfu8PXnD7zq/AkI1jIyJ061bckluAeEtuyV8xeWoMvRnCfaz0MSI8TKAxBfqI2l6fKqRFtHLGpF95zu974TWnMFM1biOKoqaItFqtVoSbLN/27CjSRPgAM30SRB9gYBuAHgUZIpACGgON0ybz4g+8vh+95vWeqoNrNo5bURS18HZhzS25JbcA8Zbckp92eQlww1Hscok/TdCPArSLgIICphMBVYUGoOoJk3nl6dTgc8fc/Nm6yrKNolIcxyXHcWrz8/M3FXj8cCvGDfBFZv4YgF0A8h0g7Lh9qrDHnOzz30tteHbay55tKa/YOF5i5hIRVY8ePRreAsRbcgsQb8kt+Ssgz/agX3rxcc/Ql0iwX4n6QHAVhI5niDYixEvsnn/Z7Zt60+k5FyiWrMU8Ec2r6lKz2WwAiG8GD/FPgMzGzfgYMf1npNhHil4lclavpyNlNnM/SA2+fMTJzcWCJWvjBSKab7VaS8ePH6/fLGu6JbcA8SdWDhw48GkiMtVq9YcAKtM/uT1at+SnFQiBtNmEA+TSbzPhcVLKK7U9wsuBQxVqiaJF48+dcLPnA2AFwIIx5kIYhiVmrk1PT/9lh0vp2VGkHMZBJvrPCHgSSgNKYAVoLTAEgFmTOXHGpIuRapmIisaYCwkY1nArXHpL/goBIgMwk5OTVCqV3Hw+n/F9PxXHsSWioFgshrlcLpqZmbFoV5h19WLs3LlzExH9t0S0N5/P/1BV/18TExOvRFEUzszMvB/hFwOAJycnqVKpmFQq5QLwfd9PAUCj0QhFJAjDMPQ8T1zX1enp6c4a9Qbs6eWKZy0Wk2v5Hlr1J73tsPzkGRdfBfjR9h7h+Kp9+o1ruF83Styt/GvM9Dsg9F2+0WuJKOIGm/KicZehWBGRUqvVWhaR+k0AhjhcQG8A/iIR/haIJkDtXub1KmKK7BbrZKqOcVbiOF5sNpvLiWd4CwxvyU89INLExITneV7Wdd0RVd1CRAOjo6P91trNzDzkeV6LmUvpdLqoqnOFQuGCtXaOmZestfWpqalOCGUtBeCl0+nPE9F2AD4z7wHwcCaTORPHcTn5nffiRXP27dvnx3GcN8ZsMsYMM3Pe87w8M/cBGBKRIWaG7/vLAEoisiwiNWNMee/evbNRFM2VSqVqsVhsXSc4mr17946p6jAAGGOsiMSO48RBEMSO48SqGotIZK2NwzC0juMIM7/jezqVfVEUmUwm4wHwHMdJiUiKmU0YhvNHjhy5kOzlT0Tj9DcBv2cTtjFjoyh4v9PmnhAi+TdB6s0vztXKeP+AkZR1P4j6rsEssaFyMwDXiVAnoprjOK1V78NfqtTyyLhGtxLRYAcM1xMFtE6m2mKnaeO4DqBeLpebt8Dwlvy0AyKNjY0V+vr6hgBMANhPRAeJaBLAJlXtYWZDbYGqKhEFRDRPRKeY+RiAw47jvLJ///4zCwsLy3Nzc8HlnsqBAwcmiOjjAAoAVFUrIlI2xgzEcWwnJyfDRIHcEE9w586dmVQq1aOqo8y8K5VKTarqHiLapqp9RFQAkCIiNsasCoGpMnNERFUARdd1jzmOc3jz5s2vb9y48aiqLlSr1fLMzEzX1FV79uwZdBznrwP4IABl5lhEQiIKU6lUlCiZEECoqmE6nY4ARKoaE5ESEalqx8MkImIAroikiSgNIGuMyQDgVCr11OTk5L9fXl5enJubC2+Qd/ueeoaFEdzmO/h1MD0AJRYoAQRWiQZTwT99fNemP5sqa/P9Wo8QvXktdFAKiJLGACJmDgCE9Xo9vlmAowI0+0AXCGhR94tSq2xFJGTmgJmDVCp1U9+lW3ILEN+VTE5O5lzXnSCiB5n5LiLaLSLbiaiPiNbUCUREAFIAxohoTFUfBDCnqm8YY14YHh5+sbe3dzqKovnp6ekGAJmcnMww85MAdiehw0hVzxPRsojkPM8rm9Wo9C7Ckrt27epLpVLjqrqbiPYy8x1EtAPAKBH5HWC/onXQ/p8eEQ0AGFDV24noESI6TURvAni5p6fn2V27dr119OjRKtqFBVdTfMTMu4noEwDu7Hw5M1/p+6Ftscy8uuGZk9+l5N9hjLksn6UWgHFd94Wenp64r6+vMjU11Uqe8aaUu0aQchzcD+ZPE9F20NvchKpks6rNOywfn+vrOdPX11d7P9bTFDriEIQI3AUYQkAqBKuqIiI2iiLruu5NAxy+QSNSLDChCYVeKWd4iVEAiBJZIrKqGkdRZGdmZm5Rtd2Snz5AHBsbS/X19Y0T0f1E9HFVPaiqG4kozczX1GxLRB6AMQCjAA4S0ROpVOrldDr94r59+6YajUbRcZzbVfVJIhpKfq1BRMdExAKgKIqkVqu9qxdtcnIy5/v+rsQLe5iZdxLRJlXNJx7V9bnP7d/tBXAA7fL0B40x9zDzf9q3b9+zxWJxfh3PhY0xu1V1rNu9TUDbWX3WVwPxVT9jVHWAiMY8zysZY6KJiYkoyYPelIqs38GIYXoMii1rqGl2oXceQO3DP3D6/0hEdGxsLJ6ZmZH30vuqwpzOq62DkF8/WgqFQkRZiEistbbVasn09PRNAx7/ZAbRb43SopJWmCDogg9ZAYsE5K21ttlsdtZzCxBvyU8NIDp79+7d6jjOQ6r6JIB7AIwxc/rdPlSijEeIaIOq3gHgEWPMkXw+P0tE48l3uckLVQRwUlVjZm6tCjHpda5pu+u6TwD4UAJcI4kXS90AyTWsMaWq25h5UFW3Adi2YcOGP920adOpZrPZTEK+lyjq0dFRD8BGIsq/1xdDVSXxgjeoao/jOCv1er2eeJU3nSJ7CnAcwkElepjbhtVl+w1iRc8W2/zwnVp//VUnHwwODrZmZmbe03BkTUxFjJ01wB1d7TtBhMgCUCK66cY9fR2Q3zS0AmhRgZi6AUSC2AQAiUiTfPYtMLwlPx2AODEx0ZPP5x8kos+q6oPMvBVA7t14T2t5NsnzDQDoJaIJtHNjHoB0opgjETlKRBVmbqpqw3Xd1tzc3DUD4p49e4Ydx/kIM39MVe8BMEJEqRu5prXWqKo5IrpTVYeYeZu19mthGL4KoIp2PvBiqDOVSomqPoN27nSnqt5GRBsBZN4tWqtqrKorRLSgqhVmrqjqWVWtEpETRZGJ45hv2ps8gl7D9HFuRxeu5IGZnMS77g+XH3wt03NOROqjo6Ph7Ozse+UlamSdQDh6y5B2BYgCqAKS5Ht1rWKov2ypg8sp6Dy1AdHvYk0WRDf1mm7JLbkeQKQdO3ZsymazP0tEvwDgDiLKATA31H1aGxhzayjxBjNPiUiLmesA6tVq9R1FOOvJ/v37DzDz3yGiB1V183sNhGuAopsU6HyGiAqZTOafjo+PvxGGYXV2drYTQsX09HQ0Njb2456enlnP87ar6riIbGPm+9HOqWauVWGLSMzMZ1T1KBHNquoyM9dUtaaqVVUtqWozqWS9KSsCvwqw72Ingz6Gdnj4CnsN8gSFLVHzvntby4d+7PZUBgYGGrOzs+9ZteNKy41Cr/WW28V1bP8EiSiLtVaZ+aYEj1jCMth0qo+7AHm65SHekp86QOT9+/ffQUS/TUSfUNX+JDeF9woMuwCTk6paYuZmHMd1Y0wj4XnsVrm5+/bt+6gx5rdV9V5V9YmI3+/1dCo/iagfwOPGmEomk/mnzDwDoIJOvQWg2Wy2Ya09Z61tMfMFVT2iqq8CuA/AZ5LcalfPn1T5zovIXzDzSQBlVa2KSFNVG6raIqIaMy8HQdCcm5u7KfOHu4eQcYh+XoENtO5ew+3V6PY7o5W7XzC5k3Dd2ujoaPCeeYn9S4EN3WPdTh5VQARtbyqO45sREPWVGCsf8TQBROpiTSQgFiLSKIrUGHMLDG/JTywg0t69e3sdx/ksgL9PRLd1FO5q4FDVbhrC6TLP77pFRCIArwCoqmrVWltR1WaX1r67d+/eLcaYLxHRr6nqpiusRQBYVQ2JKAIQJ9WXIRFx4tkxAKOqhogcVfWSqtprWmsCigDQB+Azruu2APxft99+++mEzSMEIFNTU/HExEQ9nU5bADVr7ULi4Z03xmxW1ceZ2e8SFBXAHIA5EVlAOx+7GMdxzVrbTFpiwlar1Zyeng7wdj/izSQ0lsFeBn4eXd4pT7R/lIIHnoyX3vxz9Nf6+vqa75WX+Mw04v1jNKu6fqUpASoEiVQuPkdSIHZT7fnvzKH1kS0oEaOpWL/SVAErN3kY+Jbckm4A0UxOTm52HOfLAP7+lQpmEgARVQ0AtAAERBQkSlyJyBERl4g8VU0nBSUO3i7/vzYTtd3fd0ZEZhNQqKVSqTqAYB2lRjt37sx5nnfAdd1fUdVPJ20hl4NhBKCuqstEdAHADIALAFaIqKKqTVUFEaUAZIkoT0Q9IjJIRKMAhgAUVDWHdvGPSTCP1gPF5M8BVf2kMWYunU7/0eTkpExNTQmStoyEsUTGxsaCbDZbjaLIT/q7nmHmjqfb1T4CKBLRMoBlEblARAtBENSJKKhUKjbxCjuN7DddyPTbQIZBvwyiAnVhBCSTF7yCRhO328b+19zCyQvsVUdGRoK5ubn3ZI1WrIWDEO3irPUsFJXEm1pVVHPzCSNWIOY2WF913wUQIZLkbuvKygpwK2R6S36SAHFiYsLPZrN3ENGXiejXkqbttRSqTUBwAcBpIiqizcG4AqAiIsLMPhGlRSTLzIMANgHYqKoDaOe9vGsBR1VtEtFhVV02xtSMMZVyudxcpyWAxsfHh9Lp9BNE9NcBPMTM2cvWoqpaTTyu4wBOAjivqrVkjU20G95jY8zF71JVttY6zGySNY4mlaNbiWgkWWsf2s371KX3toWZPwfgTDqdfnZ8fNyePHmysSp8KkmFZAggHBgYCEdHR19PimAGu7UtAKyISBVAVUTKRFQWkWbCC3vTl8fnt+IAEz2qeGdl6RV1OYE8aO+IDQ7eZcuH/1z6FgcHBxtzc3M33EucBNQlWFXE693u9kazSLtnT25iQFQR2AQU173MSiRWoNbamxvkb8ktQFzrL0dGRjLZbPY+Zv5lIvoU1i5oEQBNIrqgqqdU9TgRvSUiVWZuqWpnxlkcx7EFAGbuhBn70W7G39ppOUjK+zPreVLJ955Fu9WirKqVKIpqiXd4RUDcu3dvrzHmU0T0mwD2EpG7BrDPE9GUiLwG4AwzV0Skxsy1OI7rqtoEEIpILCLWGCOqStZaNsaYOI4NETnW2lOe570Ux3GBmUcB7ACwh4juUNUhdFGElIRiJwF8WETOZ7PZYN++ffHhw4cFb1eedsAqKpVKsnnz5jKAOrqw2pPvEACBiASq2rLWNpeWlsL3AhjeC/mjAeQ90GcVGOmmQfwSUFR4BUQT26PG3ik/c+oUZyujo6Ot2dnZG07rJgShLgtQAIgF7E0PHkQxSLuabi+AlbcB/lYO8ZZ0fcveb2PcuYJneK8x5jcAPIl2y8PlLCaiqjUiOgrgcAJORWYuM3PlcvBgZgEAYwwRkROG4VljzDEi6gGwiYh2qupetJvVR1Z5UmsBYh3AW6p6gZmrqlpR1fr09HS4CigukX379mWNMR8hor+JNp3cWiUO5wA8S0RHRGQOwIq1doWIVsIwrFlrm8aYVhzHcbPZtK7rijFGrbUkIhTHMadSKZNKpZiZ3TAMfRHxmfksM7/JzK8CeFBVH0sqSrvxiH0A9zPzq8aYxUaj0WFWubyKVgHYhOqrkfx/Xl+nUZycTywioapGN2vhzFoymsF+InxAr726FkRgDzowLMGBXdI4POf6C319fTe84vR3ADxCJFCNuoFsq1AhczFk2gGRG7lvXwX4vn7kXAX9H8uoff3t9eo17J+FwhKt/zuqZIUgRCRhGP5EgeFTgJPuR+aMgXy9iOb17NUtuTb5kxFkBg02OUDfKxZv/sYcrrlz4EYBopPJZCaNMX8NwGNXAENNvJAjRPRcAoZLAJYAlFS1EsdxnZmDDnh0LMJKpULZbJZbrZaTz+fdOI5TxphzjuNMM/NhVZ0EcCeAvUmhC1/23RbAeQAnRGQFQFlEKq1Wq4krz1NzmfkJAL+pqvuZ2awBsktE9JyqvqaqCyJSVNVFAMthGFabzWYzCIJwfn5+NRjpZZZM508aHR01QRCYTCbj5PN5PwzDlOd5C2gXsDQAfD4B/i4UD21S1fsBTKVSqcrOnTuDY8eOxWuAv0ZRFHqe10iqR7sJPVsisom3a+v1+vs+DeJ65aU+FIjpCQWNdwP+a+6tIlWQ6PbxuLF3ymRPzXBmtZd4w14+JogAcReFptpuzH9PzoB+WEBvKo8d4vA2VWwmgP92D536FfCp1zQ6/X8/gyq6zBWLwJLpjvZO6O3K2W6Kar4AmN8cQZ9v0DsXoXJ4Hiu/8/b7/Z4rxa8C/OFhDBoPO4mwFcQbtyqC3xql2V8Gn3gh6D31O21y/huSc/4m4BeGUTg+j8qvtCNd1wK49O1hZFIG/XVB619cQPnrN3Cvvgn4hY3YGHvgt+pY/LUSVqdtbuj9fKqAQk8B2y1hP4HuV9Cmcdf5px+dyP3gW9NLQaLj13R6vgaYka3oqQvof5xF5elLo2jXBYi8b9++LY7j/KyqfpSIBtYAJE1K8Y+r6gsATorIAhEtRFG0GEXRsqrWS6VSkM/n4+np6bVQ/SJoZLNZx1rrJTykC8aY00T0OhEdVNVHE28udZl3eALAXBLOLIdhWLXWBlfYKDp48ODDRPRbqno3rdGjluQHX1HVNwAURWRBVS/EcbzoOE6lUqkESQjRdnvJZmdnL/KETkxMNKvVqjMwMFAloorrujHabDM/g3WKLJLKU19V70iIxc+ranVVePjytURoU9l1ewksgJiIJI5jWdUfdtNbv2EeezzgAwAKwPUVLDOBfNWhERscuF1ah+cdrzgwMFBf3ft5Q950C0uErjxEAiRuhyJvWIvC14aQ2+phDzv8ISJ90ADjIORVQSloyYUcvZ+c7//jsdT3v9ZIn326WOzcrysqPeJ25ehac8jecS9BVml9C/8pwElvxX4CDhLTLgIGRg0Wem/jl36X3Of/rR1eeLqdN3/Pohjf7EfPhjzuUqUniHEflLaAkANgDeuiy3LkA87Kd/5Btvf7/yjOLSQRhet6nq8B3pYxbHeIH4bqxO1j9PI/4/Rf/M9mZKWL2a700lZsVMa9othDRKMpRe3vjNHU58T9wT/ljeeefpuF6VrBi340jCHPw35i3qfQ212Ad+dp+g96/Kf+Yzl99OhttzUPHTpk362+6Bgfnof9RHy/kt7NwC4CDYPgplUq42721OTkxrlKpdKcnZ19R+HkUwX05nrwCED3egbxV7fyC8fEe/Xfm2bp6Rlc031xVoVKc8z8OIDPEtGmK4QVBcAigDeZ+aS1tpiAxzwRLS0uLtZGR0fD+fl5Oz8/f9WNmp2dZbQLQoLR0dHGwMBAPQzDsud5RRGZJaJpAI8CeJyIhpPc4byqnlDVpQ4gZrPZxtGjR9f0Dvfs2bMzCZPenzTbrxX6PQXgtYShZZGZ5+M4XoiiqHzkyJHVIcprkc7aJSn0iebn58Ph4eFgYGDgDdd1/2NCFL6nC33CRDRojNkuIsdd110aGRlpJGw8lzxXEpoOu37INj2boj01Q35SyuGfKqDXBT8EYBcRHLQrRxUKaRBXGUAa0tsVKAJen0STt0X1PW+Y/MlTQauMdgHVDQvRhATNUPdN7CIsIvKuc4hfBfjDG7HFSfHPGNVPAthNoH4F/FXNQBsdYDwD3bebWgd/PSN/uGV8+NAPbaqSTGGxVwmZxt2AvIBElKSTF01A/pK1PT+GjY7wp4X0s0TYAVA/AMcQgpzqE7er/dbn3JX/4I6Pn/xeu7jshkYzFKAfDWE8leYvEumH0Sbx7yWCo8koZyaMOMCOPGT/Xagf+O98+/U/2bv1yLGm1+hUfnd5Ls7HN2GcPP4YVB9j6B4Q9XnA49sp2HqQWv+6Ojy8Mj8/v2ZdxDcBv28L7lGiLxNwjwGNEJBWgiXF4qgj9/6CU/0XGBs7/vTMzDWN2fom4PdtxgHHoc8T4SFAxwiUp/a7Utko0QM/16u//8e1hafPj4ysvIupMfT0VmxMER5j0CME7AdhjEAFBXwFyIIqZ026ctLN9zlwGgMDAzI7O3vR+/0q4Hx8Gx4kob9GwH0g2mqAOEf60f1O/NImpL9z7xa8+DVuLs3MoKuJQh1ANKlUahsRPYn22KYrRXdsMqppxlq7BKAYRdFCGIaLrVarNj8/H6wHhJeBKwDY2dlZnp2djcbGxlrpdLqJdivFsrX2LDMfI6JPJv2Px5n5DBGtqOqKMaY2Pz9/JWvedV33ZwA8gitTm1WI6C0iOm+tXSaiYqPRWASwMj093bpKGPZ6wFHn5+fFdV3p6+t7loi+mbDi9HfhJaYBbBaRHmNMOp1Ou3g7tLL6Z6/5WYlIO6wo75YU/f0StwcTxPowQAPaaT5UoEVUPe7kXuuRqGebbe41tH6fLREopTq0xTbvGo9rr51DujgxMdGZTH9DvEQTQ9TtDhCVoJpwmSZGznWdydcAs3Uz9hiH/nNSfBSgDURwtQ2Eq98Fo4qsAXZkVTfeRsHkzxD+lRB9uzU8vJgo5XiNMKglwFIX74cF4mhVH+I7vKQR3MtEXwHrhwg0DMBFAkJQZB2gJwfZtDtujlS86j+vTU5OzdXrjRs1CPwpwHlpK+5LEf0dAA9rG4wvFr6t2iyH2s+zKw/ZOCnNyXST/89/ExaeaY2OrnQTWXhmAJv8HH6+HSHS20HUr+0qe2KlvKPUGoMc2rRp09TAwMDlE2bomxsxOOzzl5T0i1DaASADAiu1T4IJBV9laLetbPmci//v8vj4q4dPnqwmhvJVn+2pEQxmXHzWEP0SiPYQkNcORrT7lbIe6RNDEm36WLzUH2f7v/X8zp0LuVyudejQoa515Tf70dOXxy85RJ8lYDuBBgGkFTAKAhGoDj53yCv80TP+wMsl4/vc1oG1iYkJnp6exrdG0d/H/JsG+rPaHlSdBtoRTQYGPJWdGyl87HHX/fc+Bv/dHwzR3FQXM2gdANi3b1+KiB4gokcAuFcp9rAAytbaxSR/V8pms0uVSqW2livbrU4eHx/P9/T0bBCROAiChuM4sYgsElEjCaW+KSK7mblqrT2vqiUAS7VarZ6ELN4Rlr3zzjvvB/BxVe1bazJE4nHOqurxhK6sJCKLqVRq5bXXXrtRYHg5MNpkn0pDQ0PfVNUPA+jrorjGqGoumVOY8jzPSfJmNyqst5om7KYGxZfGUYDgQVLaqwR/lXLXJXbnfugPvHh7VB3aIOGGnNpNXVafmkEb3rUrarx4xEufmiOnkiiQG+IlMkFIYbuM7KokhkqnGO2aFfwQcuk0Puow/X0C3dFWuERtXbO2UaAKJqDgA/dtscHYz5vy5t5cz9eez47PHjp5suNlXNwLK+1wu3bR/BkTt0Jw1GGqAYC/AZgvbsLmrOEvktG/DtA2JfhIFOLqGLIqHAI2FGB/4cFoZVMK+o++huwrdnS0/G7D2y/1oYAe/iKgf1tBtxFdVf+t3qv+tOijO7S29StG/tk3s0Pf+PHOnReOHTv2Dt2hAD9TQMHrxaMG9NsgOkhtL8h0jN7k5xxAR/KkewAsMLPtTGT5R4B7/1Z8wDH09yB4AKAc6LKKfEqi2YpC2uoTd2p1sOry78RjY68sh2ElmS1r1/JYPzmKO9XQf8WEJwiUXw1OuDQZl/EUBzfbVv9nuDTYy/KHTy+2zkxOTjampqauSNzxFODEfcj25vEkmH6bQHugCZgnGwuFWiA4Z1Kv/Glq+NtvmOxc7HhVa20sInEcx3bX9LT53WFMFgz9XRA+A6Veoktb9lRhQOgxQH5Qor/3MFW2r/QW/qFJbz3z+pkznbtsrwSIZIzZSkQfJqLhLsJslplbIlKPoqhWq9XeDcuHOzk5OZZKpb6oqr9qjCk4jnNcRA4ZY34kIqcSb/AoM89Ya1PWWnEcpxzHcfnkyZOttRY2Pj4+JCKfIKIDV5rFiDYl2gm02VnK1tola22lWq2+F2B4iXE9Ozsb9fb2HnNddwrtytr0ujqVKCUiPhF5nucZXG/i7Cqe4s3uGX4V4DjGhGlHMoYvKhKFhqDWtJM/8oZfOBOD53ZHtZG02j6jSK8HikQgHyhst7XHtmv+9UX1SuPj442TJ0/GuAHzEh2CXu95rBVevNr+fHADhtI+f8Vh+vtEyKLLi7JqjxwPGN1kw//6k1Te2ufJP8Pttx8vi1RXhwXNNbwfLaJmi5xARCRFpB+w5dQXtmEyDfoNED4LcO/VnjN5NiIg3Qv5yD1RuTeVkv/PN5y+53p6hpanpta3/C+X3wXc3UPYiiz9l1D8IjEXqOuz6UAPPA/YNaaN/+bzrfNb+03uX/ZNTs4shmF9eno6+iqAj/Sg9/k89qcd+usE+owS9XR+n9b4XKvEZeNkE0O+usOY1j8cRN+WDD7FTH9XlXYSX92CJgIRwfdVDt4bV/72XMr/n7+X6jkOYGU1KCpA3y+gkMnjMXL4d5ho76XYesV1Oz6wfZMGf/NxWypkvMLvfzf2T0xMTFSTan+9+PmAz5swlHZxD4F+hUCPApRtm2ercQUaEJVfcwvf/5P00PNFSpVgTDmO4w57VuWBSgW/vNU8mCL5L0D0IRCt+W6v+jsCkBuA/fLn7MrGzT79gz/ac9vrZ0qtahLqjdcCRE5Cd3d1l3JBmog8IgpFJLread5jY2Opnp6eScdxvkREP5c0sBOAe5j5biL6MjO/LCLPAHgNwGkAK6raCsOwjnal61rA5fb09NxNRI8SUXYta29Vpey8iFSJqOI4TrVerzeTvMl7DQ42iqKG7/sviMgTuEqbySoFyURkmNk0m80OIN6Uo5jeK/lUH/Ig3EdEu0G0esqC1pkXn/P63hSR2jy75aLjP7MhCsaM6tVSAJfIoER799rqviPeyAlrTHlsbCyYmZl51wUcEYAUvbfn9BLgYgTb1aUvE+O/ILr2VpTLvNrUBo1+8QNRhcXo//n9zKZjrdHRDtn8Na0lBLcazBERyV5uZj4RLe1JgX6ZiJ4gUPZany2ncteuqPbrTXHib3g9L+3bN7J0+PDhVree4p8AmaHN2OsY+g2APk/87sapOYQNQxp96VFbQyoy//YHufypaGysunt5JmP68POG+D8HaCcIznqga5m0yh5U1e8Lw+wvYG5gJMOfYMaXANx2LcxehuD1qL3/0Xjl55qu8/97KpXq3OXgawA934+RdA6fZuK/jXav9LV5M8DGDRJ/7k6tNZY8/w+ecXKnJyYm8MXp6egjo/CfizCcT+GAgD7JoA8TYROu4KAoYOc4deLHbt/RIvsrAlrmtn4uEtFyqVSqf97Mj6YMfYFAHySia7rfPSKP3SfLFKv+L98pDLwuIpUkvWffAYjM3A9gQxfeISez+HLvJr8xMjKS6e3tvZeZfxnAJwAMXp43A5BR1YfQbsM4JiJPGWOesdYeUdUrzjycmJjoBXA3EY1fxTvsVMuuEFGNiOq1Wq15jcTg7ypEmcvlWtba15h5EW2qN7qat6CqMQCICKtqt2w3PzXyVYAbGYyl2wn4jateJLVAdNpkjk672XmolkvGmzsNr7EdPOnCjkCR7yZ06hDSt8fVx7d5vS9WncwS2sU1N8RLfC/l2VGkrcEBboPMF5CwSqlCBYgtUUhQYxQetcOm3d4dd0Diz96vjUYlXPxXzcEN08aY6szMTGy7JZAHtMXcbMGEY7aZ/mRz4ZF+sl9g8P1EcK8vnAFTUPvgpK0unUV65c/j+MjIyIheKSS4+jefantE9xtDv0qgjygod/EeKSJLFDDgGFWPCNztXjmE/iGNPne31FrLLf/ri+nM6Zb6PaD4g2gXf3VllAnYVhwTF1j9T2pp1+0aP+EyfZKAjaBrby9yFIURGzx+FyrTx9MD5fTkZLS7MoUNilHD9EUi+hUQjV4rscXboKhbRzT42f22Mn/aSTWORdGFntGeLFPlbjdFH1fC46y0g5iuOibMEuIqOZVl41QEXI7juGitvSAiy7VarTE/Px9lN8MnoB8E7zoe1clC7j4gtZ8rcqpRGhiYZuZ33BkeHh72kMz+6yKMY1R1QESGVdV3HMf09vbytSjnycnJ3NDQ0OPM/F8S0WcTKrcrfR8xc4aI9jHzlwD8Dc/zPuR53kbXdb3E8r/ku9PpdD8R3Y52szZd8d61+wEbSfi3SURBUsH0vkhSsnwewAVqF1FczRARVQ06YbS/ivRXu4eQSTm4G0R3YhWNoCpQZ7P8gtf/RjKhoxJF0fIR9Y7XyfxAgNlrMXL6bLzr3mDpXmYupNPp9OjoqIvr7HN8P+Tbw8g6jIcM0W8R0ecB9BJACRiGS+zOHncyL57h9KsVNrMWaKpCtAsvjwjEQHZIw48fiJsfFJG+bDabGRsbc6x2O1EFNoQJ0hI5H2nM3zcqrV9l4MHrBsP2S02syPRr9Mg9wcrjG5k3ZLPZ7NjYmHs1XfRSH3qyvfiQYf4tEH1MifJJTlAFCBaMd+INJ/fMaU6/tGzc6Ra4ZBWRancesQtsGpTgE9u1sX8DUf8fYrgVKo5rOz3TzV6pEGxLyd4bLG3bH1V+LqXyswSMgLqdl7ImaI1u0uCBnRpt6zem99MmszPt0q+QoV8D0Rai67/fBFBadce4bX1qR1yb6M9kCikjw3Dok0r8yyDevR4YAgArTAZxqkdjJWtrAJbjOF6J47hTn2KhaKlyBaBIrzVq055k3dMn0SMHw+qH7tBwJJ/PZxKnkN5GzWzWQXvgbHepBqJeANtVddBxnNnLP/Bqsn///l4An2Dm3yCie7oB4Q4QJ17kw6o6wMy96XT6GxMTEzPT09NNvF2CzcaYASLagqsMLk2IuS2AiIhCIgrDMFyv7+dGi0RR1PI8r4R29e7VFIQkkyd+4voFb5DQRhebGPQI6B0DgGXGpI9Nu+m5ZH5jhYhqJ0KqXXC8F3oRvZKGblFFrisvEUjtjOqP7YjrPz7mpcvGmA7pw01HWPAUkMo5uAdMXwHowwT0riq61RqZ0mG358UX3N6pPGLdFdWG7oiq+4c03O8q8l2asWSgA30aHWTmZ1Q1cF03lrA7JWoT5fVwuLT7Dlt/xFfcrokCFoXGRM0WuOZAvJRqjqm7kXREIFd1cMS2Hjtgy6/P+z11EQmv5NH/yQgy1sUHGfQ3wPgAQJnOfVBAluCe+7E38Mxrbs+pggTYJs3ceNwc3Ro39hYk3uGsQV+5htJlD9iUtzKZMfb4+XQ6Kgbu1CiiOU0MlfWDcBRvsUH/g8Hyvh6J72egj97eL9siXrEgm1ZbMGh7/Ovtk1H4vRpN7pDG5IiNnBGKHmbQzyZeZycPb1tE1Zg48FVyrmq6W6AkgunV+J49cfO+19I9c294XmMybC7lCCF3iQ0MOAWJBzZHzfyZdCauqWkRUbCqHxNFi5Uhlw650ElHsQdAtlvPlgBSgH3o5lFpPH5XXJ457W2ojI+PRydPnuwMTlCnWq3a3t7ezsy9dacxJC0A24loe9KLuDw2NtZcL9eya9euESL6bEIUvpuIrtXtpcTr2w8g57quEtF/HB8fnz+ZVMGNjo76ADYn4Gmusg4G4Kkqq6oVkTj1dnz9fZOkkb6c9ANeXa8AzaSgSf6qjc95CXDE4KASHmzXv7wtTeLy627Pm1V2KgyuhmFYEZFGBWi9nCmc3Npo/cC18T1Ou52om5eHC4gnHg5LD5zKbJ1NpVKdeYk3FYvPG4DX2oz9MPRlKH0IhF4kRBqqUEsI501q5jm//80ZTp0HUJ4x/uEKOUfvDVdKIxI8yUCmqwkhgBGgxwC9nueVrbX1iB1WjdZNaFlARmxrS4/GuzNixzUBPFHEDebSLKePnzHp2bzG3ibbGh2xwaQL7cp4IcBk1G6/Pa7e+ZRfOGE9rzE6OhpezjT0u4A7bHA3E/0NInroEjBUaARqHndyb7zg9Z1YMu78BUqvnLCZ4Bi10ndR9fXdcflDG2z4kEfoWU/pisJR0l5x3N7Ac5feQvbkxqB8ylPdgXW8YgXUgWQ+0Co9OCLBPgcodEApAjUWjXt62mSPRmxaW2xj86a4dUcGMtTFGXIKumlH3HjYifWuDOQ+Ao1qO/KhVhEtsXv6hJM5VmO3MmKDgU1xa3sPoi1GL6nkvkpoVnu2SOuDBbU/ftUfPPmgjV7cLs3XPdWHqcv2p6zaoS22NXw4jr0KXUy3XjzH78+jfHCcv9ujTpAn+2RO7YO+6iYA3NV9IRAUfkZlxyYEBzYhmpZCoTkyMnKRstIpFovR5s2b55m5tdZEizXEqOoogLustcd83y+FYdi4Wq5l7969467r/hKAXyCiiWT00/W5Cu0RUjsAfNEYcyGbzT49MTGxOD09rZlMJpv0KxbWST4T2oUsvogQABSLxfddqcVxHPu+X0lItq/6o6paBhBba22j0fgrNXF8pR8bCkyPc5s1ZHUZuJ4z6beOm9x5FaqBUSaiWqlUCubn5+P/Hajvm8g9s5fsE47qFlWkurGoXUFuu60/uD8sv/iCl6t4ntdMwuk3BSB+DTC1rZhwiL4Ioo8BGLycVSoAV6fd7Ftn3VRRhJZEZH6ZU9VnfDodWz7/OBay/WIfQxfKyoJsjZxQiNJibcpxHIfCLnNrUHfEBrtcqN/x/lRhl9g9c9jNv/iqW3hrjvxFD4i2aSP9SGPxA7fZ5hMOtCvr34UWBmx0+6i2Np5N5cqJLrrYiqEAvTiKnWToN4no0YsVjqtwqMZu8U2v50QZvBTH8SIzz7ciqR0jX5c8M9MAnX9Ql2VQokcMXd1TVIIskxc3YXxV9d6gnso9XHndFX2AgP711FtO4qEsbF9iFLACGoDKJ53Ma4e8vteOOblzAbS+RfLuo43i2Z22/mGfdMN6d9pRzW20wQMMJQ/oUcCAAAsEMyb96vOpvkNHTH62RVwbsAEOcnXLXeHKE/0a7UY3nihAvRrtHJVoy5zJz/841X9uqHnh2T6N73C6pKlMqfRsltaObdIcWqDsaWNMJ10hAPC/AtFdzYFzEz3en9+mwblxhEe2xM0PDUp4P6HLvGJ7L/J5sRMjEo6ejv1Fz/M6d0ac5MtWAJSAd4Sj1vQSAeRU9S4iOqGq5zzPq42NjYVreIm8f//+O5j51wF8BsDmZJDuuyoISSjYbgfwZc/zTgMIh4eHreu66cQ7THfh6aYS4HRFhK2115QLvRHSarVsJpMpJyHRK3mRqqotZq6KSGSMsY7jyF8VQPwqwPkUdjHoI0rkrd6lQLlyzM0eK7n+soIrIlKx1jbm5+cv0mn9mfHPbrPRd1zE9xlgS5cvjemxdse9Ufn+17zCaUtUfa8mYVyPDBWQdxhPAPRZABsuB0MAGpKpHzHZs7FQVUSWVbUYRVF5LoztD5z88qA2/o8HpLwt3UV1oRDCFeNUVJWNMew4DtvAkMbxuu+LAVyGuknfBKlCKmzO/9jr+/6P/P6jZXKXIqJlVa0WtSciP57NBjYescGnQPDW834YcHzIhkHY4TOqs7lczscqpqEXNqHfGPp5ED0J0Ds8TwWkyO7cvEktxswV09aDC6pardVqwoWC931KVSfYHe6VeJJVM1cKJbZzkRQtOV612X51aY7TrZo6L2UR/hyvA4gEkAOkCXqxdSAC1d4yuZe+5w8+f8LJnQ+BlVi1XGa34aTkTG8rohEJPuECvet50z60v2MkgNpe+oyTfuWb6Q1PH3Xy5wLwCoDyinK97JpjvsjC3dHKL2dh70AXldqOam6DBFvU7zvypuYXDpjy89m49qBRHewmZ0wEs1HC3Tvi6vY3U5mjjcimxsbGGqtwRQ/NzUXl7MTSeT/35msUL+42tRN3h+XZMdv8hEcodBM6BeCl1A7lNB4EkM3n8/7ExERzenraMgCx1s6r6tS1YRKNJK0N+4ior7e3N4VLuVHN3r17DzLzfw3giwnYvmswvHT/9U4AjxljBoaHh7PGGOdyN/sqkgew2VqbJiI3n8+/74DYZXGMJEOJWwAiVY1937f4KyJPFFBghz6pwObLldm88U5Nm+zZllIVQDkMw1qpVFpNdyV/cqzUeiYz8O2YaArX0MDtqxZGbePOe8PliTiO8wMDAz5uguKarwHGL2A3lL9A7WI4vlwpq0KboPopJ7dARHURKcdxXCmVSlURqdZdd/Fpr/eFOfZ/T68C8KrQFTYXnvX7v/ddf8NhVY1EJI6iyKq1XdU1EIG43RdHCmiDeOkZb+DPv+cPvrFE7kKgekFEZq21ZxpheOoVyh866ma/FhKdXe/jO/2JLjRXENtHRBlrrT8yMmIA0FOAo565C8DPo03D9o73WwBZcLy5ZeJqkoMuN5vNWhiG9cHBwfrfKr3l/Q+ts5/dGTe+4kJHrqQjBIjn2T/xF+nBP3vVyZ0Nk7mpC47TWiZ3pp0aufqKVu8VAMSg5kmTeeW7qcHnjrn52dCYogXOiciZUGTmTU0dnnGyfxwpT3dzDu0G9iS8qMBZkzr8DX/j998wPWcDcDEhPTkTWDtzgb3p76X6vlNmfsoCtW4/vwfxIIBM2XF4ys2fqpH5oW33eneV5/NV+nfYxv1jUWMknU5nU6nU6qI2BRBPT083S6rLZ+Ge/b7T/+KfZIb+xetuz//eVDrTzfcYgI0i67LmiSgjIn6r1WIkACYAThHRn6nq3eiCOSXxsAyAA0T0C67rVqy1wdDQUFwsFjE+Pp7J5XIPG2N+m4geRHtqfOf3Oi0PswCKqjqceGqpZNK7s8oTXe8xcqr6s0T0UpJjIyLqlrkiB2A7M29U1VOFQqFTtfq+5RJd13WZeWgd68sm00SaCSBGzWbzJ2Yqxbv1Dv0s7iCmL3ZomTqKugWqvOVlj552M/MJGJZFpJ5Q+a0e0WP/ZZkX70q5/3w0Dg+wYrjLfIPXK/Huu8KVB6eyuTMlQX1kZCScm5uTv8y9HxvCkGHzRUAfUqy9EAFs2bjzoTENqDYA1Ov1eishqY8BxMWRkcWHc+63N0bhk2noY4miFwFsBGotG3fukNv7wvcyG16vKVcBLFOb0amqqqFrY2Hufh86Z/ZUZvBb30iNvGZVl0Rknpkv1Gq1krW2FoZhSD09pgI53AI/48OOd2OkKoFjJk9VfWOME8cxA0A8gk0G8ndBNHalz1GiaIHS87U2O1E9L9J8PDxrPmKj8d7F+CPs6K+S0h26qoVLFaqAiiJqMdeL7J/5sdf/wrN+7/GAqSJCy6S6DKBWq9UCllZVVIsOUdzRhevtlQDhSSfz6h+nR56edrNnASyqyAURuWCtLSeGH85llfYRXhbFTibkuzwLe874U3+Y2fjdI17hDICSWnsujuOFOI5XUqlUs1gsai2dXlpm9zvDEn1UFT1dvDdkQW5Hjz+dGlzcEy//RS6yd5mLA9LX+QwCbYyDB/eZ2jPTkj8bGlPF2yxJnchYNDU1ZdEejN6oDQ1VGqZ/OWdDOy6tX3eAoat9jyZ3JoTxjDG+qjpBEBi0PXRopVJp5vP5VzzPe0FVn1hrKsQVQqdGRB4koqrjOLVCofByf3+/k8lkPpSQat9Jl1wklWRaw+uq+hfMXEpGFfUD2A5gj6qOJ72O3Qy4ZVUdJqKDzDxHREHSr2fXw9MEnDdRm8T3zTiO/eHhYScJt70vgJjEyDdcCRBXDS4uMXMriqIQQFStVn9iZha+G/lUH/Lq0i+2qycvyR3KovHOvGWyZwKiqlipMHM1URLvmBU5Ozsb/emeDT/4lfrSc+k2ybXThecBV7Vno7YO3BuWX/2O37Pc19fX+MscnqwAveDiNkB/5qpDtAFtErdUNbbWBswcZLPZ1az/dm5uLpgeGZnd5YdfdzWcsESpJnFtmd3ilNtz9Dmv7/gF4y9DUQNQieN4OZl5WllcXAzYvbY9UEDOOam3njb9R6xqBUCRmS80m81ipVKpJIZMDIDvGSvMW6ZDUP3yempA256UDYiViEwcxywidBdgCi4/gvYw8Cvml2IgCohCBuJR23A+0prfvtcGe9KQzxDhXhCnky/qsK/YmKhVg1med/yZw17PGz/2+k/U2amISFWtVoiwrKqLrVaraq0N0kHYgmdK2uZ/7ardpMam9Krb88ZJk76gqkuqOm+tna9UKsvZbLaRjKKjeLSnFLv6uio+gi4AURVaJ15+1S28esJkLojIMhFdIKIFY0wpDMPG4cOHO7y78as7+l/Z2R7oMNHFGWsLJmRmttZyFEXynBZObqHwLzy1kwbYtp5eJ4Acgr8vrn70BSf/6gmvZ2l8fLyZsEbJpXYfolKpZD3Ps4vD2ficpP5iYxTu7VH52NUMDwUkBAUtMrbzrG/nvAHMzMxE+/fvn1bVZ4hoz1qzCK8Yw2d2VfUJAPV0Og1jzAEAf42Idq5avCazDEsAXiaiZ9AetVQlopq19hgRvcjM24joSVX9oKr2dxNeJaK0qu6y1j5jjKkw85qUPFcAnF4i2gVgxPO8cxs3bqwmZMbvi8JL9m4IgHOVpbaIaB7tvslQVSPXdf9K5BDbI57ow4pLSs40BDXOm9TZeeMv+aqtjIStfD20e22R7wS8Oy47vyOj4NmVVrSYcv7D5jj6IAMDXZ0P4PaKHd8ZV/dOmdT0jElXRkZGWklF2vsOit8HTNrDPrRZna6mVTSGaVlrIwCRiMSVSuVyI8oe8+Zqk9z3oxD0T8rsDL3pFpbf8PKVJfYbsWqTgFoURRURKTuOUw6CoFqtVhtzc3ORN2auaf0RqPGi2/9yxbgrIrLMzIsiUiqVStXi2+OmFIB9cabc+PJtZr7bOy7KNiRjAZCqkqrSXW1O5vsIV88rqVKUUes+FC2N3tNa3j9mm3emWO8mUO9qELFAFBPVq+wszHFq5g0nf+yQWzi9wk6ZiOpibRXAiohU4jiuEFE1CILGzMxMJGMI0AaVbkP2dpZTJ95w8qctUUVESkEQLDLziuu6zampqYvg0GMrLXbNBZA2u8n4CBDPcfrEm27P6RBmRVVLYRguWmuX4zi+fGpH/FbNX4anFbQL/8x6xkmTzcVpO47jyA9trvzBqPJclpofZOgwFJluIjR9Eu2+P6reddLLnEmlUtWkevjy6EzHuGt53pi03GhGgGMCfMBcJV8rRNJip9FgiqxtH0mnuNK5eKdUV4joB6o6SUQfS8Ciux6PdrjzE47j9DPzHqyqKkq8nEBVzxHRKwBeUtWiqpZEpJRUT4aqSo7jnGPmucRr/Liqeus9g6p6ALYSUYGIGqpaJaJW8hnUBSDtUdV7ReSUMaaclNi/X2GxHBENrJObWgSwqKrNZOhylEqlfurDpd8Gsg7oZ0F4B0F3RNQyAO4MK5tTEruDGuSGNBztyZmmk4e9XO/cBUN3at00rePHhKLXJSASgV1o/7AND+y2jcMLvlc0xjRwDeN0bqQcH4F3UM2HuugP05jacy5FJA7DUNaaq/j0DKLikHM6s2HTvwuNGSSiXmOMJyJWVZtxHFfDMKymUql6o9FoTU9PdyZfqLlGg2yF3fnTbuZ8KFJl5uU4jpeazeblYAgAmAJismiAEWK9AjlALSEOlS9hrvrYGDYkuiyzzhk7u8PKnoJGd/dLNO4AA4S3+yQFCFvElTI552ZN+vRbXu7k607+bImdsirViKiqqpWEEKIaRVGjXC43h4aGwpn2PEKFRSgOFQHpiuAnBDXPm/TsBSdVSti0lh3HKVer1UZCLfn23ZtDTNtshZS7qvsNievnTercgvFKsWpZRJastSu1Wq2xBie1xHNzlsa4Ru2/X6+wRpswQYIJSkRaqVTsj6BvbfD5+y7sPgfY1h7KcfWnNYrUnrjy5Hjc88IJL1/2PO9qY6xkZmYmHBjPVhk6j3bOs/9KXqxVhBVylkvw6slw9IutbBeLUA4fPhxMTEwczWQy3zDGjAC4H11wbK6SLBF9aPWmreIMPQngZQBTqroAoJjMH1xqNpvVKIqiTk4tn8+vJG0Z+5IWinV7bFQ1b4wpiMg8EV0AcAHAtnWa3TsyxMwfSp5tqa+vr7l65tZ7GTF1HGc7gKsZHpIYEmVVbVlrW3EcX2nw8k+V9I5hH7fL5N+hEFPQ3I6odmB7XNvpqgYuNGDVmEmFCPpO+0KhAGU0cgg0cC2lU6zwCoi2T8SNvdOcPtns66tYa/9SvMS+Flz2cfe6QA6QL+IRvT2lfmZmZq37IlPFYjCez1fy+bwQUS159+I4jltBELSWl5dbpVKpk5fvANc1FZ8poPPGP1OGU00ApExENbRHmK1FwaiqNgJMcz1A1HZ+JG6B4s5aiUj7YG4j0uH1jAdXJbdNmne5qikQTMLyI5YQNMgsLbN7/oyTmj7u5E9Pe7m5kjplIaqrakVEKsaYShiG9TiOG+VyuZmEMuNisXjxHQ1SiMnKsipsNxvXIC6fddIXBKhDtWKtrUZR9E4wbBsP9mFBDdzdeLEmceWC419ogWrGmEocx+U4jjtDsd9xn4uAKKimgHSRzNUGm1BEhIi0Xq/r3Nyc/YuJieq90fkf5kgeNtARKNLr3SAiUK/GOz4YrNw3k8mf9zyvdgUv8eJdTpfqodfr1HG12aMKjZgbi8YvLhq3plYja22cVO5fkkux09PTldtvv/35VCq1yRgzhPYkhi6ZI9o5xdX5QgBlAEdV9WUAJ1S1mJC1zltrF+v1epWZWzMzMwJAJyYmTKPRaDHzC+l0+s8A/A1011/iEVEPETlJnuMttBv4uyj1JVbVCSL6pKqedxynPjk5GU1NTSneQw7L0dFRz3GcB3B1lqAQbXq3sqo2oygK4jj+S8thvV/y1BByBPpY26i5VKFRu6owXYBNX6JGO/MQroIS1yNEYB86uNEG+7drcPis8Rdc163j7fFQ75vkfHgANq37zAru1bjQHVYhPnnyZGPfvn1xtVqtWWvJGKPNZrPTrHwjGJzkgvHnKo6pwaJBRPV6vd5KhmfrmqqVYFU16sYet6C4yRyJiBhjZHh4WE11eQiMdYnDHYILqJuMmdIYaFbZzBfJn5lxs6em3ezZ0+wvlOCuMDs1EalqG6QqAOrJuLogGX20piGtVVjJoEVd3pcmmcpZk1oA0CSiurW2cSWe5a8D8htAS7sYL9aeKMG1BeOVAjI1sbamqvWkNmHNZ8u119ItobvW4QTJjFVJQEamp6f12+N9J0fIftuT+G6j2NqNUecocjvi2kN7w/LLr6QKK81m86rDjrN5sIFkLyfvuCxkbCtkFs+Y1HzIbpPVBlEURZ7nCYBLGuQVQFwulxc8z/te4iX2Xks+8TIwLAF4TVVfAXAmCf0VAcwHQVBi5urJkycvsRCTF8QODQ2VNm/e/MfM/FF0kcxNOFZ9ETFEtCQiU0RUBpDv0sN1ieh+IrqQXPRgdHTUzs7OKm7czMFL3dKhoQ0ADqpq7iqPuJCEkOsi0jTGNMvl8ns5muqGys6dO/OpVKoniqLy1NRUY9VzX/X50xnsYcIHAeRvhnWwwu9FdPv2qLbnqEmfCPr6yiLSupwR5T0WSjso4CqUhBefl8BZiQtpEbdlDKfTaRobG6OZmZkrguLhw4flMrNBblSUxAJRlUwtVG6KxE0Raa03JcdpGyPr9r4lL2jcZI4IdBG4iUwPkfW701ftOXwr7J4/b/zpUyZzctrNnZsz6VKZqaLKVRGpMFBR1Wqz2ay3Wq1GGIbh3NxcfCUgvBjtYKhaaDdNOwpoxNwqcqoiIi0iagJ4O/y6Znwcym53Q9kj4qBF3FTVlois+9md+9QN2CogLcNhJzKxKkwvXz+53HxofPD7Bax8jKEj3TTSE2AKanfcHS/fe9QrzLTS6drVUlqbIzjG0UFSWpOWMBkT15wz6TMn3ewFVW06jtMMguBiD/3l3p/Mz88HqVTqTE9Pz390HKePiD53DflETSpJF5j5eQCHVfW8qpaIaCEMw2Kz2Sw1m81awjL+jopAALZYLAajo6NvqerrRDTRxZfGRBQysyGiQEROMvNZItrYpZcIVe1V1Y8zszXG/PNMJjM9NjbWCTXdcE8gjuP9rutuu1JcXkRitNthzqtqU1Ubxpigr68vTkr/b3ahTCZzL4BfSKVSrQMHDvwgjuMftFqtlYSf0F7JOzSERwjYpbh+QuMbuhACpVSHNklwYLu0Xrtg3UVjTD2xVt83QvjYXL2c/GJSTcEeNLNRw/wMZZwgCIy1V43WvWeGHwCESmEEEwIIjTEtVQ2z2exVjQlVGHRXkalCHAdwo064NHGTe4D1SaUTooDiMSf36nE3O33KZM+VjL/UUKooczWKogozKnEcV621tUaj0QrDMFyVb+vKaOAux3+pQiJQqwkERBSEYRgmxVFX/H3PAQlA670sAkgMCgQcJtzIQcLhfMXPriWsXqrg9RDAEkWRkrXWdoZbr+Zcjv+0bs5vy/pf2ySthxRd3GUAHrRvaxzcfWe0/PIPvcIVuYW/CjCnMEDgbaArRgakxs7ilJN7q6hO2Yqth2HYUNWLrXq81osxMzPTsNYej6Lo91T1e4nLvD4SigiAC8z8HQDPAzjDzBcAnG+1WnNRFBWttZW5ubmrDfRUAHGz2ayhPcC3m3BtgHauUq21VlXfUtVXVLWV5DG7MEZARLSBiD7tOM5XfN+f8H0/NzY25uHGN2S7xpgHAWy6kqFBRIsApq21FRGpAajXarUg6b+56WViYsJT1XsBfEFV/zoRfcV13YO5XK5ndHT0inuaSWEXgR5WUN9Nhe6A22+jveNxfXePg/5UKtVhyn/fmvU9e3UuzU6oqZ27kNSIbfQDcIwxTn9///tOPPG2ouQgYgoBxGEYRt3kwVlg1vOGOyQEVhEHRJaZbRiGkii2lHbZ4hCAGy/4/W8+6w4cnzXp2QY7s5HI2SiKZojobL1ePxfH8UK1Wi2fPHmyPjs727pBoeS1lJ8NiQNVtVEUxdba2Pf9K36PAlBp5z7XdQ8BiYjCWBEn7WmdFq51DGz1uyHpjokiBWlnCEG1Wl0dEZLvzs8HP6DCj1pEP+wqfEztHH6vRrfvjqsHM0S96XQ6PTY2Zi5/7x4FPBXsBXT/Wk5Gxzs8ZTLHXvULM8pcZeZqHMfN1aMEnSvscTQ1NVWbnJw8Zoz5H0UkJyJPEpG50sBdVbVEdIqI/lhVZ0VkGe1eowUiWmw0GmXXdZtrJYbXeoZyudzMZDKnrlYtmoBdrKrLRBQZY6wxxibMO98kogOqel+3fZUJdg4S0ecdx0kz8+95njc1MjJSvYJHe1269cCBA48w88eAd1oynd5DVZ0BME1EVWtthZlrYRi+73mr65V0Or05mWjSUeKDqjoURdFgJpPpeCSXWL7t3CE+ANBBtPPCFwmYW+DK617uxTe8wnGjGhPUtl8qvnZIEqDHRtm7opW7R2xrL3c5NcBXHdgWNx+83am9UXLypfHx8foa/VHvXeiWUO/2jvkiuR1RfcuPTcEH4NZqta6n0txoiYhaIThU1dhxnHhlZWW994iI4XbjISqRDYmjJG+lzKxEpMoIoF1575RT2zscNdNTTrYaic7bKLogIisAaqVSKRgdHQ2TcW3vOYewEGxM3GTm2HGciJnjYrF4xe/87wF6vB2MpW72KmYOhckmgCtJC9cV5a42IqS1PRvy6oAICpUgzCwiomsMIZB/19DSnqz/u3vi1mOs6Lvae5dMqIAP7d8SNe95iBff+I7bX05yiZcAeXozBpnpgwTsWOszFZBFx5v508zIs2U1S9bGK0RUTqVSjWPHjl0VEC96aQkozqRSqf8uaW59CEDqMuWtqtogoiNE9A0RKQJYZuZiHMcLzWZzCUB1cHCwdejQoa7zX3Nzc9HQ0NBZx3HW80xrRHQ0CZtGAKJKpRKmUqnnPM/7QyIaV9WNXfY0dgbvFgB8mpmzzPyve3p6DsVxvFgsFq/m2XalqCYnJ7cz85cB7F6LgzL5Z56I3lDVFQCdHrDm8PBwnOQ1b3ph5gkAd61iJxIiSruu26eq9eHh4U5FnnZCHlkfdzDzEwBd/qLYBeOfecYfPDTl5GaTashmW9de32zInjjwChpUeiXszap0xYhCBN5gw4O7wvqBN9O5Uw3XLa9T+ZZE70B69ZKfrqTMKKUV2lWoSTV/W9zYeZuG/ae97HnP8zre7A2JMNhrANeIuBWBQiISa+26XLxfA1jbemZ9JQ/EMXMgIsLMktw1qFIFqkE31YweJL0vroy/Huefv+Bly3EcL1trV44dO9YCYOfn5983I9SCbJ1Mi5mFiGyr1ZJOwccVQdQBg7raKxsIB7HVmF22juPYbvQJE1LreaAKICRuWmXbKW5KcoiXtHHMzc0FL40Nvb6Nwq/1qHxlvQkgyUzOVB+iXTvjxsGjTs/p2d7eWpK/tQDka22D9h4GfXgt50cUWmVT/JY39L2zcIpMtExES3EcV+r1emt12sO5uh2NuF6vN8IwPJPNZv83Zh4moj2X7UMJwKsAfiQiC0iKZ8IwXACw7Pt+ra+vL3j66aevFUg0mQx/tf4XTSpWTxJRS0RazWYzajab0cmTJ8O9e/f+J8dx7gPwqYROqNuXuEML92Ei6s9kMv8hk8k8vWnTpjNRFDVWN8Zei0xOTvZ5nvcJAI+vFWpLPNQ6gCNE9FbSo1kOw7DmOE6QWKk3vYyMjGSYeQ8RbX47vUARAJeZU8YYp9MI25EP9CEPxr0A9q4OlSna43nOOqkTx530OVUtqeqitbZKRAEzSxzH1wyKdePweaQbAVVvy6hsgCLf1ZgbQvZ2W3t0PC68tORli4m1etX7kFi6zrvd14qgPMyIaJ2J4YkScXo02vpgUNq9ZMxM7Pup0dHRxo0iKGcFg2G6eaEiUNCCE6lq3M34smWANxO6Kohpt1yYIAFbCYJAyuWyhr6t+Eytbj7DKLwNNhy/3TYHi+qS53l2aWnJXu6FXK+sCGhA4aC72X1xoG2A7wDLFVpmAAC7ATICQ6aLkKlCIubAEllrrbRarXU93hHAKOCBsN74IA3ATUsinZDp0tLSmq0+L1u//LDj/lGWgseNYqKbSRquat8m2zq4JywfXnT6Fl3X7fQD69ZhbHYc+ryuUW+iCmkSrzzn9v/gx37/NAMr1tolACu5XK6jy7UbQASShsd9+/Y1Eks8ukyBh0R0mojeSIBwUUQuBEFQjON4udVq1Vb1t1yT0hobG3McxxlZTf22hjSJ6A1mrqhqo1M1lVR+ibX2nOM4v6+quwDcgWskF2fmDIAHVHVYVW8D8A1mnhobGyuvCv12ta7x8fGC7/uPAvg8EQ1dbv0m3nYEYAbA4TiOl4ioTEQrqlpP6JSu+l0iwt2Eh99r6e3tHSKih1adXYQ2FysSI+cS+SrAuQzGmOgRIgxeojgUWmGneNjJH7PkVA1TKQzDCyKyYowJEkv02sN41tK8T+VaxE/lgTu8a2gx6pN48kBcueuwmz8xMDBQjaIouFpfojEwhO4U/FWjJorWBOEs2jSH617fjMrwjrh298Gmf+QHXrY0MDBQX6P5Glfx1MzoKLwHZtGiy+6eYTgKON14vhFxEDPCpNCi4zlc8S5vAZhXRaKuCoiKOGAOOh6V4zhijNEIPAeVqhIprTvnFZxTu/GecOm+IvHxwyY/39PTY+bm5rrWFU8BThMwzwPR71y2vz0xmP3uPF4Lsk02LVXtgNa6hTuRwqS7DJlG4NAyx4aNNcas5vxdUyb64bXtwPU9xBaZulXqzGy9kuGjz83ORme39R4douibPSq/Rli/PYYBv0ejie3a2PMWZ0+2+voqItL6h7OzDvn4pCp94vIWLVVIg3j5dS///J+lhl5Cu32tZIwp1ev1aqPRCC6PmHSTfRFrbT8RfYGIJtcIMXYYITYDQBRFy2EYrtTr9fpllVjXJMYYH20ldSX3UVT1pIgcBVBn5iqA+qqKIUmn00Gz2XxWRH6fiE5dp7XnEtHtzPxLzPybrus+2dfXNz4xMZFNPNf19pD37du3IZ/Pf4SIfp2IDl4+DzIBQ0GbkeYwgLNEtCwiS7VarbK8vNxx63WdPTMAUmuBzvsoxvO82wAcXG31ikg9GXBs4zjuhM0AAI8OIeMY3APQAb2sEd8SwrNO6uSUmz+vqlVr7TKA5TiOVxqNRrnZbFau558wDMuH54OFEnkvREQvq6K+3jSCVV5i6o64+vi4bWyO4zg/ODjoJ3dhzX2P2+CR6nL/rtjjVGkgjpVe6i7EATJAql+j3XfG5YcOxs0taTSyIyMjXRWJPTOA/LZR3OkYfOxbwxhLjIW31yhwuuXljIGgBYpExEZRJEkO8YqyOAxHaX0l2c65UdyECURE4jiWVqslxhhdCp1TCsxDu3vnHWh2NG7d92Cwct9mCQZ830+PjY25WB8I6Idb0Zcawf09Y3j84BZsvKu9Lxf3OCtgZaS6DWtGMC0iEma2Cahc8V6+CRAbsHYXXpaIKBClWERsN4PG+wwy1GW1d4u4YYltGIY2iiK5yrPbF+puaUWdv4iAI9rFGTFAPnRwxAYHJ6L6bX4UFUZEMkNbnLuY+CvEVFgDDFeOOrmXv+tveKHGTklVFwEUm83mSrVa7dDU6aX3YB0ZHR1Ne573eSL6BNGlZcxE5KvqFiLqU9UtAAZd100ZY446jjPT19cXT01NrWuFrCXZbHY7gIevAohLRPQCgPmkUbaqqo1jx45d9EgPHTqEkZGRcm9v7x+lUikfwC+hzWBzTYCR/PwQgI8BGAPwo0Kh8OzevXsPnz9//nypVGom3ymX793g4ODtAJ40xnxaVQ8CyFyhMGkZwCtoM+YsMvMSgKUwDOvdEkon3qGPLvM7CSkBX8lzux4ZGxvLM/OTADZe4iS02T0iVbWO49hOXkQBetHFZmp7h5tXKw1RaJNN+TWv8GaLzMWG6HK5XD9z5kyAy4pyrlEIgD3hF06OGfPDFMV3cdsA6+rlL0i849Gw9MDJ1Oj5mKg2MjLS8RL1Mu8XRtRwlyFAVqUrlQlVMogi4Dlf8Xl00aMHAvuqG7ZI8PBD8fKii4FqK5sN59oG45rN1l8DzPAmbPINHiOmzwG0uSfL//ELE4O/94OqNi5OEyG4ULjdvEkKErQVvKyiybriufW34LFPg93cYgvETXCrk0N0HEemp6flpWEsbVVzyic8ACDThQHBKZWRHbb+xJPh4tyPTG9zGghn2nu1pjH6FOA8txm3+cCHyadPOEq5rDG/d99Y77fPh05lbm4uBGCXszB5IAXtop8PgBCks571QOvRTvga68NtQlsmcdInuMr7vKKkUxiAwl83Fwtog0zdMsUMsqsiAWs+yteLxeCeQs+bfTZ+ylUZ72J4MgzgFyS6fVwae4662VNPpusb0rH9m3yZo6YKbRFXTjrZwz9MDb10nvwLAIrGmPkwDEvMXE3ORt5pGK2zzsHBwccA/CrR22S3lytVAD2qupOIhowxB5n5TcdxDhPRm/v27TsOYOHw4cOXV2le8SD27t076jjOl67kIapqk4heE5ETSQP+iohUms3m5UUvMjc3F6bT6VnHcf7IGOMT0c8nIH495fIZAAeJaJuqfsBxnBe3bNny/Ojo6GsiMvP666/XAMjk5GTa9/1dAO4moocB3Keqm5PCJFojD1oB8CoRHbLWXgCwBGAxjuMK2sNOu8odtlMO5lro9jy0rVkSEcrlcu8WFLmnp2cfgI/i0hBhDKBORKGqxlEU2SQvot8HUjmD+wC6T0FpusxavkD+zBGnMJt4mBVmrkVRFHTjMaML3fM/nSnXbx/PPp9V+6oHHYOiq0ntBkjfHtUfe8iUDj/l9K/09fU1r2S4qMKA1vcQE6on46o1neLqpH+QAMgPZhE/udW8nqZ4znQzzLv9e25G7fbb4ubPZGyRe7n3P7m7dr314tGjVVzWUP7sKNIA9hqmzxDjowTaBZDLonicW29Ob7rtUG9vb9UYE0jjqEcKt5uQqVF1HG0XcgdBsO6ZGRcpBka7uYwCjhrtIhQbx/FFsP2zeUSf2MYvupBPmC4AMfFCnILYyf1x9ec3SpB9I9vzHWd8/NShkyffkSf+9jCy6RTuZdDnGPQkFNsAIAUtb/PsuU3pgTdFpDI/Px8ghoFDaWB9o5MB9jV2AGgcx7oeIB4H6A6BS2Z9r58BMhA2VhCju7y7D2wGdbd/NXDDqloRvRi6vpot8xqc4g44P0whfMBX3A9aZwoN2v3AIzY4+Fi4tLBLm3sN0Ye1HdK9CPoBqD5j0lPPev2Hpt3MbKRUFJH5MAyLcRyXc7lccCWdetUHOHDgwB3M/BV0MVU7CREMoj1P8XZVfUxVzxpjTqjqmQMHDsxYa08DOLmwsDCfTJVYDY40NjaWHxgYuFNEPktEn8UaYaYkJHpMVV8xxhSttUsismSMqSbkw5cv1KZSqaa19rSq/pHrugbAFwBsuU5P0VHVwcRAGCeiD6rqNBG9dfDgwaMJufhetCuWd6E93ilzBQBWVa2jzejzIoBzRFQEsBCG4fLCwkK9WCx2nfNxXddNQLurdSXE6H3M7IsIJ3PkrhsU9+3bN+Y4zpcB3H7Z50RoE+6GAKIwDC9yYvqjGAXThwGMrQaiNnsIhUe8niMVMlWCVpm5EgRBM8kR34hqWwUQ/zn7M5sR/7BX4vsNcFuXe0B5iXc8GJUfP+H0zJwxTn3fvn3B4cOHL8kl7m6Ps+nphpmjDS7i+LBuZ2rD6v9/CJCy4nQB9DRDf5G6q4wlKPyM6K4t1Mr1aXHrAV3+3qHxke//qyYW++bm4v9mE/LjLnaw8l3M+gSD7iFgQ6cQiIGtOdUHAcy0805FZUUWbZ7RdZ/BhbqexuayM6MrnWEmgxRAW7sBWwFskzlMSJovtkZMAbKo7gtpCqZZMUTUXX6YCbm82Lt8bQ4NNsPxfcb787lt+cN/VE+d21Ashr8wjN5hz9mZIrkP0I+A6ACAviTSrQbYnVbeXXCcBTsyEufz+TgfTjsAervonQdB2Ye63VZPbwHYY5NTqNfFpWWXYBjdR4Mc5lEFstTFixSwaamyZYYEQSCu615tDXJ0eql5ZqJnqhDHz7gqO5gw3MX5eAM23pOX6mBG7SbC26HSpACvdc5JHXvO63vpiJc/3RQsqMo8gIUgCMqFQuGq3Q5XvCQTExM+gE8DeBDd0Oy8DS6OquaTKs2RxKNqdgpEiKi0adOm2qZNmxpJy0SViERV+5Ow5Cgzj2MNjs+kmfQUgOeY+ayILKvqoqquiEjjCiE0nZqaiicmJuoAph3H+YPksn0+8RSvuSKjA4ztFwEFtAcNP6ztAaoh2j13+Y5HeJXezSoRvUBEL6rqjLW2KCILYRguRlFUSSYBdJv3dBKDJI/uQ6YGwEEReZOIzjjtHhezVvj3ah8zMTHhFQqFAyLyFQCfWh0W7kw7QXt8VSQised5FoB+FTCGcR8RPQa8c2ZdhU3xuJs9GwF1EalGUdRYWlq6Ed7hJUfxb6aXmg/fnnt6b2g/xe3Qv9tNX6KjyG60wQMfapXe+FeZkaVms9mamJiIp6enL4Yj5wBnC+lWBXVTkUkG8Hyoz8zcme23WonMuJnFDdJ42tP4CepCgVwERcBzgW0FtYM5a+8ZRfHnfyal52iMGgYYZcJmImwEaAhAuu3QgUQRLxj3zDOp3nkiKhhjao9HSkoYQpd5UVcllSJ1kIxnurzCeA1PIM2ELV3GvY2v1hCRGGNkFRGHTkfm7JDPTzkq+wldkBokZ86KdEox4cMO5ePmg2NKC/dmGudom6k7kBFuK+JNIBpU4GL1ulW0zprUW6+keoKyMfkwDFeq1Woj9P0UaTSCLgreDOBmbZxjZu5mr8wwHCEdNF2cBUM5JeI7rOyw05XRx4pR6sJDTOhsXGpHvLSb/OQhIL7P8+e3SvzDtAYPuop+Wq8NAyAfMugL+hIjh4hACmgMCs5z6tiP/IEfv+YWTtTJLBB0IQiChUajsTI4ONhcr/XvigeUSqX2EtGjidK/HsCgJEflJJZkXwJESnSRc9ASUcejcxIFbQDw5SCS8KOeA/Csqr5lrS0R0WIcx6Vms9nhRb2SEpfp6eloYmKiUqvV3kqn0//O87wLIvJFVd3DzO51KNLOI5pEMaRWhZXb2uTqHugSET1FRIeTdpUiM19Q1flWq7UyMzPTvBbFPzk5mVLV24gofY15tDEi+jkALdd1y2NjYy3XdbGKePny6Qa8devWXDqdLqRSqduMMXcl47P2oh3GuzxHagE0OsObVTVuNBoCQD+wFVuZ6EsEDK+RAdGzJnN8Ht4KEdWJqBZFUWN17+KNAkQA9t8up2f/21z4VK/ae6ltWHSzeyatsuV2qT76QOS/9RRl6saYDmBbABgZgmuUxom78OYA8lVygzbs84lcNcZc5rXroZPLze1b0q+kHHrOh36KuqQlSJS9YUUPA3lAt5NqpESiCo+QTHpIrm4nhzvP3rHfT2/+T8ed3FIcx24cx2ao2Sqw0gawet2YXjmNh/pslLfWOq7r8tWU/FcBFsUAeP2cUluBiddn4zRcXBZth/7r89XqbbflvjeuzU8TsLeLsVkX90oVhoB+D+gF6R0CxAS1UHKJwG1aQboIogpE007mxT9NDT9zwslVlJkdVdPb28umtZwy7ZF46wKip5oekmCjZ60bMZv1ojZeCy6ndDMR5dbdK9V0n4aDudj64ghnMhm62md/AWCQboJSuptz7pGwx9GYib1u30/9J1PF1t6dhameIHomr7LTdGHkEcBIzjI5K7WK8JyTOvqtzIa/eNPJnW7CFMXaBRGZL5fLS729vY1u+uDXPKCdO3fmHcf5OFGbMeTdaJtVynG1x2CS/7f651b/ufpnO1yl51T1+8z8OhHNM/NcFEVzzLx08uTJRhd5Npmeng4nJyfL5XI5LhQKK8x8NMkpPpmEQc1lz3xda1zLG+yAejKr8SwRfRfACWvtiqouisgFz/OK1Wq1WzDsXGYaGRnxXdcdS8K02Wt8fpeI7gDw/zbG/FcDAwMzqlo6ePCgJOCWSwjI86qaS4wbc9n6L1/75YBYTWj0ImOt3ZGJ+R9v9m7rQfR3mOgJBb2DBSMmCqZN5gxIgpSEgVq00q2WBYDpq4TbrhEJ6b9vfxbPOUU5Yvr/7AEpfwndAmKSSxyw0b0fDFdmKunUyjlo7A8Py+H5+RYA8QlZkO7pNhLtAumNEmy7N1zafJjy521PjzcxMWE6BsrXgXgTe9NPQL8+INE2j7AHtP58ucuAkVRBirbHQvS2d0SdcLUiPOum3vy/stv+4LzxF4iowkA1QxTcRnaE28aP18335lQGd4TV7UdM5rUF4VQ6ne5UYb7DgN09Ct81fAcUXjdUBjm1A5O2eseRMP/KAjhVjeOLUY4pIP6GNW/8Nfb/8TCC/4EVw0TXtE9JChRKCQCC2pnAZEyUqkJCUHPazbz477Oj3z4Pr0hE1TiK6lEUtfYtLHBPjx1rh0y7+m7Tr9HWJ4LiHT9yCxckTf7IyIjTaSVb/YNfA4zbgwmX6MFuHBcDeP023LpXKlsr6pw6Y5upkZERMzc3t9ZZ0Fc2YRMThrusMuWdce3grrjxw5PKp2tEbqleN1j/XbX/07Hyhf9le/a7KQnuZujDUPhXZbC5NLXS3n8/+/J/SG3+87PGvwBgkZnnVXXeWlvKZDL1ZBrJujpjLUAk3/f3G2MeUtWeawWHawCP9fJbHRBpoT0t41kAr6vqgogsqOqC67pLi4uL1+JJ6dTUVDQ5OVmvVCqazWZfN8aUAEwz82cBbFfVNK6xX7GLNVi0eybnk57NV1V1Pmm870wBWSyXy5Xp6emrrmdsbCxljOlJp9N5Y0wPEfUmQ5kfJ6JH0GUBwRWAfAjA0OVLv8xYudbztqpad9Ta0bCRvTMoj90l5d2Drv0Egz6vIF7r8gug98UrB3baei4CDfkSD+Q8Oefc5i5Sy6zMtVrlf7uM+tPXyBz0EuA2tyInMXLPuch9yCLvsukR1gGxle3argbtauZf57ld1f4tcfMjn2/OYYHdHzZ75BhlsnNjQd0bdvhRBu3rVgkbaGrENg882Vqo3ebW7ULk6kpNFEB5OkkJfDe7ubE1mH1+H+mfGYk3GMVwR0l3fy5r0Fu1JxZoCGrMuqk3/yC16btzTmqRRZY0jhe3xo36h5qLvaOI7mXoJHVpLBOB98TVj2cbcfOkyfICsa2OFfSNmXL9UHLXnwKcZj8yvQ4OGugnAeqKTs8o/Nuixr1fkjPBBfK/tyz80omNuZnnL9TKU4D9t2fKjTtvH/hhOor/pKD2F7stmupyrySpZnz1j9Mbnz4Pb1FVS0ZkIS/N8sH6Mn0qW93pk3wSoK7IrIlABbFbHw1Ln9lsW/EZ41Exa3RmeHj5u4mR9VWAPjWCVMSYcJh+WYH93RQJtmcM2q0PhCuf2mBDOceeXcyEUh0eXvrXqz77PsBNb8ZQxuCjUOzohraNCJRX2fz5YO6vnaVUrgROnU/rsSPDKH13/qqFgToDxK9E6WO9TvSUa+0uJox28/6pQgJQ7aibe/H305ufmoezwEBJROYBzLdareVms9mZI9mVjnjHl46OjqY3bNjwOQB/F8DOxCPgGw2MXYJJHcAJEXkOwJEEOBastfPW2mKlUinPzs5eS57t4ronJydda61PRLlUKtUH4EEi+gi1k+QjSQjUvItnlySn2Uie+xQRvWmtPYP2nMgVa+2StbYkIsvMXJ2amgrWA8O+vr7HADzKzCPJc44lYU8PN6Goag3An2+Pay9/oj4/vE0a4xmVSQNsQheFDtqe7hsLUBTgPJHOWqVzDeVnntPC0/+MssszMzMhuuCZ/CrAH9uMvcbB55RoAwEbSGlYiTbRxeKn6ysq0vZ09XoIOimMN6ziDV902CP9+WTqyrV4rmoVzYDoeAv8QlP52Zd9/+nfq+fnE6IL+uhEf+Zn1d45oc1fy4j9iAH6EzaR635+C8QNNkunTWbq+97gc0e8/IwAi24cF++PivTBYGXLCOy9rsiHiTC+Hu3WGp/faDC/HCo/W4F55hWbOfRvziwu/4MeZEZ7MOEYvpsJX4TibuLu73PnjkTATJPMMysw3/yWzT7zTUmtpFIpAeD/fV14YEKafzel8hDj2kFxjbMOK+QsTLvZ1//cH3jxtJs5FwktsLXzo7ZZ+XTrQv9E3NiVZnyCQR8iWj+Hedl6bEA02wC/0GDzzKz4T38t7Z7cUCnavyfYCgf3ENNnSOlJYuq5xueXEHSuAXqhBfPcOfKe/n820lMPz8/Lrw5juN/HHgI9RoRPEdH4tejBZG9WGsQv1EHfeQuZ7/1hetPJp6+u2wiA9+9uS927VeP/mw99rK1/r3xGorBN4pUjbu7lf5/Z/NQynAVVLTHzPDMvNJvN5Xq93kh0Q9f48A6FZIxRVT0G4OtEdK+qTiaeQz6ZQE/vgxK1aLMKHAfwPBFNd0ZIWWvnoygqLS8vVy/2RF3HVyQutIyMjFgRiRzH+b7neacB3A/gfiKaFJFhIkp12aKhCRCGaLdKlFV1johmAZxR1VkAy0RUBbASx/Fy8melWq02Oj1LV1Pqrut6ST/ob77fBsq7sGssgNrmuJnbIq2Hcyq7uq346+TVQHANsMkAmwC62wBR3XBh2XFOuOLGo6OjHUak9cLmzAb7mM3/A53cG92YC500wufS0H1Q7LOKMhPSAF1zfpralakZB3ogrXbSYR13xD/X29vbBFCZnZ2NvjW91BocH54yZL++jYJ0TuURVvRdq6fYyRXGoOYSu+ePufnDP/b6Xj/tps5Z0KKIzO8LV8KPhUsf7lX7BQa2g5DDdXhZDpDNi3xAIXuJdShIOfO7x8a0z8ze5Yr+KgEPArSB+Nro2jt3xAMmHLWbIyaDdPpURtNRtVptGGOi7/QOvOo2Fv7lFoRORuVeVuSuBxRFoRGoscDe6Tfc/CvPugNvLjj+glUsqsqFqNVa/Gw4v+EONH/NaZNNb7kWw2HVepwUdFtK7WhaZKJEfsWnnuW7vJg0XvkNw/QpAm4DX09RINiHbvFUN8ckdy2x19qQz8/dmWo5ear+HAM/R8DtBMqCrvEs2u9BX07lcQc0lDYoNo1Z2rlzZ/nYsWOd6Ndaefz4RbfvyGBY+r4Lu4eBUb3C6ymKuMpm4YiTf/kb6Y3PrZA7T0BRRBbiOC4CWA7DsNHlIImrA+LMzExrZmbm8MTExIVcLvcyEe0lov2qejuA4SSXlEW7uupGj75RAE1VvUBErwN4k4hmkmrSoqoW4zjugGGAd0dUrADiubk5zWaztl6vx8aYljGmCOAo2kwrd6nqBIABVc0SkbMaiJJJHHES1q0DqAAoqeo8gDkiukBERVWtiEiHTaeczFYrh2HYSFpFujq4ZLJ1o9uQ3k2AhmDmSFVrMUzdEprQd5/7i0CNInnBKT9f8KxbyGaz0ezsbLzeffgdQD5isMI3gml7vXwNoXCDPsqpsmPPeulOePwiE9MPbarCnvvSI6j4WzTQvMYPuYqhrpr2V4X9GsSVBeOffM0pvHrI7z2+aPyFWLVkbbygqsU7mvVUnu24IRy4EQsSwJTZc4+kC7mmj0JUMTuA+CEQbXg3nluSsLYldnHGyxVc4YLnefHMzEzzaTtSzfQOPftQVEptk1aUFbnb0e696sRrjxvEy+dN+q0X/b5XXnF6TlTYWUyM9WIYhkUnCCoj1Bgz0AcItO1aAWWN7+WADJ9wU6kVpPqbxiERvt8Bbuv2nK+GXzHInXay5Lip/qrjOtSkO5mwH/TuuHcF0AabeNZNp5tAn+u60djYWNQZxLvWr/zD43PVPbelv59RecyHbliLECBWRCvsnH/DLRx6OjX0SpHcCyIyz8zzRLRIRCv1er2ZsNBcs7N0pUXbarW6bIx503Xdec/zjjPzqKpuFpHRJAQ0lLRK9CZFF871ei0JDVuLiEqqelpVp4johIgUE8aWRREpEdHy8vJyLfEMbxTRtZ2enlYAum/fvghAEEVRzff92aQdYScRTSRMPMMikkoqY2MAoYjUkucuElFJRFYS/tGyqjbQppWrqWotaTOpA2hWKpVWQm3XdQ5scHDQJhMwGgByV0hZSgLUctm/32iwo8QgYrxdGXx5GF5VNQDQaIIqVrmiCuncEm1jpgpgQWTboSJlBpgAQ2soKwW0xbwy42TKSyaV9R0nU6/Xux1tpJE6ZRdaoXaRwzteYihEkrYTJVIFhAAiVaZVz4UrW6+d0VZMq0rC23GwNgApYJUgAIHa6zUADK8BBi3i5ZMmc/a0ybhQ5Hp6ejrnLzMzM9F3R0aWm32Dz91ty60dUfPCAKIPZVUm1itfV4UGRNUl8s6edVInX3d7jk95uZka+4uquhTHcTGO41Kj0SibxlJas3ReweFqYvHO+V22JiVVw+19YuDSM1RAq2yW3nR65hYonYoNUjXHqQ1aW6V2JOriyK/2H9DOZ6uSEoFI1XAbDC75bFHYCrnzR5z8hRVyM8Yg7fu+MzExgenp6fC5vslSHfYHDzm1xphtzfXb6AMp1bH1yNJFYevES0uOf/aUSZ847PYcO+Zmz0Xslki1FEXRIhEtiUj59TNnQt2KsjIvABjHqirgzl5Jm+nHqpK2Z/619+vy4igFNCJqnDf+7FG/EAXk5BZsumUjmhOo5VXFLtrZK4VVQJQgSbuhMaQmubuXfLYA8QXjn3rNKzRjUKFoUq2IeMmDNNuVyJfmli+eM0iSqiI2yXOvPgtVaEhUP8vp2TecbOQ4Ti4IgnKr1bpakY0CiEuqC0pYUIWldxok4SJ7Z19zCy896/W9cYG9ucjaBVWdi6JosdVqlU+uQaJwIwBR5ufnw97e3qqISBAEddd1zxJRQVX7VLXAzP1ENKyqwwD6VbWAdk9eLqlMzKLdjuCsGqu0WnMrgCjpxZsHMJtUX86iTcfW4axcJKJla225Uqk0V1Hu3MjSewEQHT582E5MTMQiEqpq3fO8EoBTIjKkqhsAjBJRvhPWTZhXGqpaT0Zg1VW1KSJNY0wjUVz1ZrPZCIKgCSBIpm13vJlrOrRDhw7JnXfeeQjAn4rIZiIySfN2Z5pEnFSy2uTPi/+sunQ3RJKxTp22Gid5FldVHSJyExo5A6CoqqULnF64YLwXXNg4IuM1yEiLGDGRtSAbE8WqEAOwITVG1TGqjgN1GOIawDUKhyBU5NSZKa/nQo0cXdW83lVR1UpszpNj/4Ml2tmCY1pMFMFIBIosKBaCFUCEuK1YtA2IDLAhMawwpDAG4hjAZVXTfl44BHEAaAum6UB9B2IscRiCgggcxkSRANYS20RxqSEYV8WwwnVIXKPqsqrrAg5DTNGkzrzi9J5aYd9qHF/eWiBzc3PBD2S4VOrpP3QyHZT2h9WZjRI+UNBwd1Zl1AHSFxUVoKKIAuLGiuOeO20y00ed3MkZTs+VHLcUkLMsbaKLUhiGSwCqMzMzQXkEYRX84xToT2Li4QY5HBBJCI4j4tiCrG0bNFYV6hDYUXEM4BiIZ1RdB3Adta6Ccc6kpp/3e8/EyXOdYu/YoEbfIMWBgB23CUbAbCPlyBKsJbJWySogDJBL4jgKx6i4Buo7CtdAXSHIWc4cf83rnQ0dRxHHYGY9fvy4ArBTU1Mtu3PnQpVzz+0y5cXb48b0sI3u7UG8MyPxqLMqh6wKiYiaTeJKib1zp5zMibe83OkZTi0skVcS0LJaW7LWlgCsXLhwoZ6Mh5PFBuYyOf5jJWoExJkWGbSofcei5L4DFNvE2HIIxlFxjKproK6j4hmCa1RMjZ2Vl5zeNy5wuuUYQ+cir7lkzJ/1WvEDokKTDAXENiRjY1Acg6yCYsuwLIAhGFZxXRXHUbgM9RxS16i4Ftx63u17YcFJB0aVz0dec5HNM1DqF8JIgxxuEWkAE8dEsQWsgGNpP7cSYFy0z8KBeKzqudS+vxVyii97hamznGl03tH1ehO/PYyBDMKPOor9pHSxpUcVagnBvPFOvez1vviC23fkArkXRHVBVS8kdSXlkydPtvAuJ5SsM9EDZmxszHFd1wPgp9Np3xiTJqI0EWVUNZuU4meYOQ+gkDSkZwFkVDXFzF7CiOKpqs/MbtKUXkvCjHUAJSIqAaiISBVAmYiWAaw0m82VOI7r09PTrXeD/NcgDIDHxsYcY4yfSqXSAHKe5/UBmCCirUSUUtVS4rm2iCi01gbGmKaIdACxFUVRyxgTEFF4+PDh1SB4vWugiYmJwXQ6fYcxZjOA3k7fITPHIiIdIETSIJuMxUHnv2+0lwiAmJmJiEXESYDQ6fw7EbUAzLHI/AGpyG1Rs2cRbm7RcdM1uG7Qdi1FEm+s424qQK7GxhN1XYjjqToG6jhQrrBTP23SF5rGuxBF0blarTZ/8uTJ+hXyE5fIbw4N5e7IB7vqrr9tnry+mnEzNTKmSY6NlCyYLAGqyR4KAAgpYMHttRKpZVfVuCKuT2ocVWOgjqNqCKA6mdgn68AqB0xxwG7QAEUW3O77IxJpKxQ1RMqqRAB7NnJTpI4r4rpkHaNqljhVO8NeMXD8orV21lo7l1AERqvf0+HhYX9oaCi3naINgxJuG4sbuwYkGktBNqTEFgzBa5BpVtitVMnUz5t0cdpJz5fVKUfGlFW1TEQrYRguB0FQqVarjVVpCf7qeHag17i7VtgbLZlMfoXZr8NFRGQFUDDb1WsiVTaq7ErseKqOB/F8WAdQXiS/fMrJzkm7JuDCluZS/WGpDhP7Y/OO179s/EyVHWoRiRWIEgkne3YxHAGQkdhNQVxfxPVgXQC4QOnKOc9fiITmoyiaDYKgOD093UjuBgEwk5OTKd/anhEjG7ZoNLZRWjv6NdqSUu33YXuhcOrs1Mtk6lV2a2c5tXjOpBfr7JQD1UpSFLfcarVWjDGVSqXSXJ3D/gLg3T/as1XS3s5FTg+VPC9bIzYtMhJeth7THhdKvOq++xDXEXVdip0mnOC0ky3WyCxEInMp1eKDrXnvNo0nFtgbXnT9fNV4ThOskbbvlhKJJjqGO3ulsUmJOi7E9UldT2I3Vid+y8ksrBh3EcB5DoKFB2olM+bGY3XXjCxypmfFcf36up9t2RNxMxDXg3qOxk4NbuuEm1pokLegqnNxHF944403ymiTdLxDDz07is3G4BeY6JcItBOgi0QDMdA6Z9LHnvP6n3/Nz0+X4C4kd2deVYvW2pX1ChJvBCCu/hmenJw0lUrFpFIp13EcN5vNeiLiWWt9EUkZY1LMnFJVvwOAxhgXgCsiHS/CWT0SSFVt0mMYJHm4BhHVRKQSRVEVQG15ebnVTcHJewWMu3btKqTT6QfRHtt0IAkPm6RwpqSqUyLyrDHmcBRFy1EUNV3XbVlro3q9Hicx8xs1bZsmJiY8Zs77vj/gum5fFEVZYwwDgIjYDggm43AUgFprL4LhjQTFjuWnqmSMYWutUVVOWDbYGEPWWk2MhEoqRbUUgMhqLhaTB+BF7dBrh8hY4jhWIlIRYcdRElFmYWOMEgkbNUoiLFF71NdKHMeLSbVxq8v9de4aH8+ms9mBQLVfjMmByLXJPiUTBiTZR+08z+o1d54r4Y6lNgWzsrIyK1M7NxNffJvZ82wUhiLMdvXZJMaKvv2ZhrnN6WxEDRtVEiKR9gDciqouLiwsLM/NzbXWMKrM2NiYm81mM47jFHpU+z2j/WkrhbTaPAF+0xitKcWRchwQBTFzMxm2XBGRchiG1TAMG8zcmp6eXp2TpYmJCW8j0GNTPGDJ77XMaStimEjsqjVZayWZCU2O45BI2D5ZFiOqbNSQEEncfteXgyBYttbWh7ymY7ivEDjSH1uTj9v9sSrSnq+XfL5Ya7UdB1RSFSbLhlkMq2FVpYjZqmoziqJlY0ypXC5XZmZmVithAmBGRka8QqGQNibuLVCqzyXb64r2pBl5ArwaGYmIrWWOA6UgbkeAaiJSsdZWOkQRx44d6xgNq1M4PDyM9Fh+og85fwDs90RR5KkBiVycYiGr71f7HRI26pCwGBZhEjZEpP//9s78t67juuPfc2bufRsXUdxEhTYhW7ZsWqLsJnHSGq3TpEm6pkgKdANawAmK/NA2Afpb0B/6H/QPaIGiBYr+YKMomgBJA6R17TqOnVhyLNvURlmLKVFc3iPfdteZOf3h3Ss/yRRFSc9L7PsBHsQHUMM7d+bOuXPmnPO1QBJb285d2OVy2U4RDUVEe53PexxzWYkix+ystdeeJWute+f5dCyiiXuTjMmxys5cU8fcttbWjTFNa226J0mqpuaNCZX2gKjqWNg5cts9p72xcJw/p0ROsTBbInFEcbaWN5Ik2ep7Mel3c9BL05hTZXyDif4EoHsBaFBPcCwFwvO69toPyxM/XtK15ZC9DefcWpqma8aYdaVUa3FxMRyU15Du4HfpySef5PX1dW61WqpWq+kwDPWePXs8IvKYWaNXMNozxmgi0sys8wVTKUUiwvnD45yzIpIqpSJrbZSmaVgqlcJ6vR5nrkXzPhtCAMD8/LzPzA9prf8iy1GcyNyB3Of5dURkAAQicgHA/xDRD6y1p7vdbhtAnC0sg3Tx8tzcnD8yMlJJkqRSKpVKvu9TkiSSaQO6OI6Fmd/16Xa72E1JpV37mZ0j5xxVKhXKfzbGsO/77JyjUqlEYRiStdYwc6yUitvttoyMjPjW2pLWWgFAkiSOmcX3/WuSNP3tlUolstZyXuUkSRKx1po4jqNqtRqcOHFi1wXQkaXcRFFUKZfLFREpeZ7H5XIZaZre9P7d2Oe8f9Zads6R53mc/9x3xiq5qyhvO++r1tr1t533tf/+eZ7HzCzOOZMkSQyge4u+EgA9Pz9f8n2/EsdxtcxcNcyVLEJZIU3JKWWNMQkzR2EYBr7vB1EUhWmaJhcvXjQ3eflUs7Oz/sjISCVN0woze+VyGcwsSZK4/v5k13zdnCiXy2SMYc/zOEkSCYIg1VqHzWYz3L9/f5rNk5JSqpaPCRGJ1trd2H7//XLOke/7nM+TOI7FOWfSNA07nU6wQ/QxZ7vFUpIkFc/zqsxcrShVFs/znHMqG0cjIqm1NnLOBUmShFnwXby4uGh3GAs9OTlZnpmZqWb90nl/oigSrfW1Pl3bCWXjn/cpn+/WWhvHcZwkSeD7flSpVOTKlStez6CrqtZaZS+l1+Zv3n5/2/3Pp7WWfd+ndrvtiCg2xnQBxKOjo251dVUDqFQqlUq1WvXyOayUcrms043j3H/dvu9TGIaUybxFcRyHp0+ffpeE3bOALk3hYV2hv1aErwloDFn5HwgkBnV+7o88/x+lmZ9sal23Qg0AawDWjTH19fX1zmovf3Jgwuk0gP9P2eTK37zYGMOjo6Ncq9U4jmOVPRB84wKqtXZxHDtjjEmSxHS7XZOV5rIfwI7wWp+OHDmyh4i+pJT6FoBP305pNxEJAfxURL5rjPmZtfYigEalUskV7wfh8uVsR6CSJLl2aK+UEqWUXLx4sf9MTbY5vKYB3lu6YS5gdnaWMpWGa9RqNbu0tJS/GPDs7Oy1gIDl5WW5yfXetE2llIyMjNhM8drdwf3jgwcPqiiKuL/dlZWVG19eZKc+919XPr+v/ZFswcgXJqWUZH3dbnx27GumdL/bvjIAPTMzoyuViuf7vtZaa8/zVBAEUEo5Y4yJ49hEUZSurq6mfe58uZ15t02fZLv7NDc3B2vttX7d0Kf8/6jsunmX85luHIO+tnd7Ts/ZuuXVajWttfZ831fGGM4XfWOMyT0+t3n+r7IXCWWtpV32513zSikl5XLZ3fByzQB03vZN7tct2+6b89d5BHYY55utK7TddWdj7G5cz78LVMc/gc+WNH1bwL/J3AtsyoLsTIfV2gve5I/+c2jf8ewYrZ6m6brneethGG6GYdjN0irsQBf/QRuTbRbI/g/m5uYonxye50ke4dk30PIBGUIAoAcffHC8Vqt9BcBfEdHRO00tyVQ5TonIswBestaeds5dqdfr7ZWVlXhAA7ldLULZ4TsdOnRoSGu9Z21tbXN9fT3se7BlwHNpu+uSm1z3Tg/ZTu3d7XVvV3JPbnE/d9PXnSLpdvp+s/7e6TORv6yqgwcPUpqmBACZ9Ja7w2fuVvdMdvH7txrz2217EPeL3jkWuy5VYrt7dTfP6J32Z6e5SLto+1ZjIXcxzrTL5x4A8NJejFAVX1CavkXgX83TR0TgUiBqsH/xufLEs89XJk5FtlfNi4jWnHMbzrlmGIbBnaZVvN8G8XYXy0EsagPjvvvuGx0eHv4qM/8NET2CXnV+k6VZ5DsrjV2WdsuiadMsKf8VAMeI6LUois5FUbTeV4PVvR/9m5+fHyqVSp8H8CkR+e8kSY5lh9Hv2zUUfGDQLgx0wa1fkAru4r4+vw8TZY3fJc1/SUS/lEdAO4GNiFtXuHT6hfLET475I+e7jhpEtKad2/DStOHbre799SR+WNfdNIB7HCi04CkBtR1oC8AQQ1LqjVlCEPZhV1aQfnOXR29UjFGPrCzal4noO0T0afSioTazaNJ2loDvZ1Xl92R1XqtZgM0t5cKyii0bAM4AOCEiLxPRySiKLi8uLm72ucPeqweQFhYWHtda/y2AI865f0jT9F/DMGzdbe5OQUFBwU48Dah7pnEPl/EHivgpAh4GEWc5jrYLVb+kyydf9cZeX9b+Vd9Jd8QlnX0uaU3aKJwySTqCGCUHzWR9cvA1wSdwyZHzGT1haCE4R3DkermrZBE55bZCg00LBGB0rzSx+VQT7e3W28IgZhw9evQJZv4OgM+jp+7+Jnouz7VMocKgF3bvO+fGMy3FWSKaArAXPZWJWwrsZkUI2ugVLD8J4DiA14wxZzY2Nq725VkO1DgtLCzUmPlbzPxt9FIw/tFa++8ispGmaTOL1LLFTCgoKBgkrwBeMouHPKY/BtEfEuFAnm0gvbKB0SZ7b19RpYsJuFsVh5pLeQhWVcV6Gq6sRDRn56aZ+obOBKzz7/2u/17BCIIwkEIQOkJbhDYcYaVt+Sc/Zu/5f8bkVl95NwFwd+V5PiosLCxMKaWeQk8MuQ7gf0XkVedcg5kjAHlaSNpL9ZMSekUIxp1zs8w8B2BORA4AmKAdhECJiLMCB4dF5H4Avwzggu/7r05PTx+bnp5+rdPpnM9ULwaVrgERuQ/ArwEYz4xxwMwjxpiw0+kE2Y64MIgFBQUD4/tAyXwCj/ma/pyEfgeE/YLr4zIUxBt16UxNzAQDpCCkepWhFPVslJdJ89Bud3N0w6mmElghJAx0hpQ8cECpaH9t9KXRhYXrIrcLgwhAa/1EZiwuisgPiOhNIgqUUil6KRWtJEkCAEkWoadKpZJHRBXn3EhWvWcfMx8UkcMAjgIY36lKPPWoZnJT0yLyCDN/QURODg0NHT98+PCLzrnXAXSy8O67caf6WusnMn1LJSJdAO2sDJ03NDRUeAoKCgoGytOAGvsEDilNXwfo94QwiRvl3npWTvmQoRKEdmXt7gSCIqBCghJDHq0IPrs/Dd4+61Uvz83N2TzQrDCIgHLOHQZwTER+6Hnesoiwc85aazsisqW1biulwitXrhhmltHRUe52u0pr7ZXL5bJSqgLggnPulNb6mIg8mCmFfDLbMdJOhhGAJyJj2a7zADP/iud5vy8iPyei7x8+fPjldrvdzHLEbjva7ciRIweI6LczEeQk2wUnSilyvezyDzKyt6Cg4CPIPVOY0BpfI9BvETC5nfYpvc/HdkIgEgx7cA+MI517S6m2UupalRtVDBswNDR0joheUkpdcc45Y0xqrW0aY+rNZnMzjuPWmTNn4jAM4yAI0kajkT766KNJkiTx5uZmJCKhtbbLzC1rbV0pteycOw3gZJa4P0n0Timim28YibNd+zCAfcz8CIDPaa2fqFarpX379q0RUdLpdHb9DjUzM1MdHR39CoBvZCX3uugJFJ81xmymaboZx3Gn0WgkhVEsKCgY0O7QH9+LzxDT10H0MG4iBP5+QwCloPiqrpw77u8514BqlsvlYO/evcn6+nqxQwQgS0tLq48//ngrjuNhY0xsjLFpmgbdbrebKWu8K2T3ueeey39M0Tt/47m5OVUul7eUUnURWWXm89baV4jofiL6dSL6DHru0UruTr1x99j3XQGoElEVwKyIfBHA5ZmZme9OTU19LwiCJWttPStoe7MIVZ6YmFgQka9nRcldVgz3FHpniJFSKup2u0WEaUFBwcDYO4UxML4IoSMgfCiMYa7OEhG339KVtQtcNkTkeZ6nOp0O5YtuAUCXL1/G8PCw9X0/TpIkMMYEly9f3m0NVQHgms2mrdfrdnV1NRkbG4vDMIx83w+YeUNEFgG8AaCNXrSUnwXf8M0M4w0wEY0C+BQzf9nzvEOlUml4//791bGxMZ6cnITWmvLd4/z8vDczM3Of1vopIvoygJKIdInoRQBvAmg45+pKqc2+AJ6CgoKCu90dqvFxLGimPyPmQx8aMfOelluyxuW3fuaN/vyqrqwopTajKGoZY6JGo2GLHWIPCwBLS0u2t6u+lvbgbv+W90ognT592gBIDh06FFYqlbyAch3AWWZ+Xin1WefcESI6kJ0flndTFSf7nWlm/qqIfElElkql0nEAi1NTU+fHx8evKqVaSqm9IvIVAH8EoIZeqsWKiJxBT8i4C6DbarWSYndYUFAwKCYBzwMeAuiBu93R5TqiuHXcRC8K9SaCz7m+ZiTcvqArb53zhtaYOTLGxM65NC8rWRjE642iu8G43cVY9trLDGM8Pz8fGmM6WutWJih8jogOMvMRETkC4AERmQRQ2Sk6td8wZm7Qx0TkKICmUuqSUmpFehI1YwAeI6LxTLswyHapVwEEzrl2GIbdJEkGKbZcUFDwcWcGQ47okAJN7rhI9pLyAcBaIuMAIwKbSUxZl2thAokhTkV6kmxZybDr1mcW0Zqcr0U8ArSGeJ5IlQE/d9daQbrmld4+7o2e6bDXFOc6IhL01fIt0i62MWSDbs8CcFnqRDI9PR2Oj493nHNtrXXDWnsWwHEimnfOLRDRg0S0L9OV3K5W6c12jWPZ52juocj/zWS2lonojHOuCaBtrW2Vy+Xg7NmzH4iaSEFBwUcTX2EfEc0T9Qp2X7frEBhDFBlQnBLFKThKmLshcTsk3Y1AYcocJVBxzBxF4NgAaUoqFSEr5AS5Tmm+/oHEE1GeWK8E8cvOlva5+J57bPjYkLgpAEoAhMTNRTX8xpIeuiIibedcyzkXjI2NJfV6vUjMf58NrQXgVldXzerqajo9PR2Pj48Hnue1nHN1Y8x5pdQJInowy2V82Dk3R0Qjd+ODz+qpNgAcz4xixznXVEq119bWimT8goKCgaKBWQbm+3aCLgZ1O6zrTeVtNEk3uqybTahmi3Wrw143JA5DUlEIjg2pOASSSPlpAqTMbHNdTOfcNfHzbdY6YufUHjblr4WrT8yZ8LBkOfoiMFe8ytJLpbFTKXNLnGs651pRFIXZUVlhED8gwygAkswwJjMzM5Hv+91KpdKy1m74vn+BiF4novsBHBGRoyJyPxEN3a7yRmYMmyLyKhG9ISKb1totAFsiEqysrKTF7rCgoGBQfB8oEfEhCO0HAUaQNlldOa+GTr6lqxcv68pqm3Q7BPeMoFCYEsVZfnQqImmmQWk0YIwxTillnXOWmXNN0evEznOhct/3yRHRgaA5fa8Jq2W4Wn6eGDK3XvTHfrZK3gaAZrYGdtM0ve7IqDCIHxwOgFtZWbEAkrm5uUgpFSilWiJSZ+a3tdaLRPSKiDySJfnPo1czdTfFxB2AdRF5hZmPW2tXATSIqJGmaavVauXligqDWFBQMBj2YYSYPgWC7wQuYF55zR/9vx+XJk5vkG7E7DWNSFtEAqVUaK1NCEjSNE1EJPU8z1hrrTHGiojVWrsgCERr7brdrlNKCTNLo9G47s/u3bsX3W6XajXDv5HW909IMseEGgEkgJzyai+/4o1cEOaWs3YziqImgCArdiKFQfyQGcaLFy86AObgwYORUiqoVCqtIAgaWusVZj7FzD8looez8msHAEzjnYLiuRV0WSHyqyJyiojOAbhsrd0gojUAa2ma1q213UxJvIguLSgoGBh7NEYB+QwRUSrUvsTV13/qj7+5zOU1R5SrB20lSRJQtjPMBeI9z3P1et15nucysWOnlJLh4WEcO3YMO61XuYH8l/3Yc2+JH/Ic7iciHwRssrf0I3/q5Zh1q2932HHOvSugsDCIHzLDmPmzUwDRwsJCYIxpOecazrkrnuedAfCCiIxmZ4t7RWRYRMrMDBHpAOhk7odIRAJm7lhrt6y1G9bajTiOm0tLSxGKs8OCgoIB8jSglMJBBg6IwAZEa6f96skLunTVCuqu56Vai+O47ft+1Gw27cTEhB0fH5epqSl55plnbqaPuysv1t8B/IDGnO/kiwDdK72qNJvP+eP/dcErrxHRZhzHda311vDwcHDs2LF3BRQWBvHDR37O6E6cOGEAxLOzs6Hv+y1r7Va5XF4XkRoRVZ1zZaWUD8ADwMxMAMT1CrEmIhIC6BpjWkqp1sbGRmd1dbUIpCkoKBg4mwDvF9SYacMCpS3ln3tb1S4b4RaAjSiK1qy1jeyF3KDnGRvY3//cDPb6wOdB9EmAPAuEi2ro2Vf9PW+lwk1r0joz17vdbntpaWnbdLPCIH74jaNZXl52ANK5ubnYGNMFUKpUKiUAvjHGY2adpmleCk6Y2QFItdZxmqZREAQxgCjLt3kvRYgLCgo+pnwTSP9N4YVJUX+fKp4/r6qXLqnKZSLaiuN4i4javu9H6HnABroGPQ2omuAAET0poBkRJBvKe+O4N/r6GvQWgC0iagRB0MYOUneFQfzF4Lpzxvn5+Whzc1PFcayq1aqu1WrsnKNarUbdblc8z3NhGNp2u23L5bLtU8kozgwLCgreM/70POoPPXTfP93jYyZ0ejxgz1lr21rr1sbGRrS6uvqe5D0PAdp42EdEEyLotJW+9IY3+uLJ0tCyZdUUa+thGG622+08EV8Kg/gRMYyLi4uUuRyo/zM/P49Tp05J3+/upuRRQUFBwcDWqM3NzWj43ns3giAIPefYORd2u91OJpTwnqxFHcBoxlKZ+Hsx81un9dD5F/09Sy3yW865RpqmDWvtLa+hKO79i8u1s8bsY9fX123f98IQFhQUvO/rUrfblYmJCdtut+NyuRzEcRz6vh+tr6+/Z1WxngHkUhOd6sTQpbN6+NzL/ujby7rWiq1tMfNGHMd1AEGj0djRXVsopRcUFBQUDBqFd7xX/S/p7+nfXFhYKCdJMuL7/jAReUmSJJ7nNRuNRnt5eTnGLY6NCoNYUFBQUPBRgADo+fn5knOuZIzhNE1Ta23cl3ddeM0KCgoKCj4+RhGAf/DgwRKylLTithQUFBQUfNyN423x/4NZH5Vty+94AAAAAElFTkSuQmCC;" vertex="1" parent="F4cN8ri1p3pjv_KpareM-7">
          <mxGeometry x="19.68" y="80" width="100.63" height="21.15" as="geometry" />
        </mxCell>
        <mxCell id="F4cN8ri1p3pjv_KpareM-11" value="&lt;font style=&quot;font-size: 23px;&quot;&gt;...&lt;/font&gt;" style="rounded=0;whiteSpace=wrap;html=1;fillColor=none;strokeColor=none;" vertex="1" parent="F4cN8ri1p3pjv_KpareM-7">
          <mxGeometry x="15" y="100" width="110" height="30" as="geometry" />
        </mxCell>
        <mxCell id="F4cN8ri1p3pjv_KpareM-21" style="edgeStyle=orthogonalEdgeStyle;rounded=0;orthogonalLoop=1;jettySize=auto;html=1;entryX=0;entryY=0.5;entryDx=0;entryDy=0;" edge="1" parent="1" source="F4cN8ri1p3pjv_KpareM-15" target="F4cN8ri1p3pjv_KpareM-17">
          <mxGeometry relative="1" as="geometry" />
        </mxCell>
        <mxCell id="F4cN8ri1p3pjv_KpareM-15" value="dmdoc&lt;br&gt;Data Model" style="rounded=1;whiteSpace=wrap;html=1;fillColor=#f9b9ce;strokeColor=#e92063;fillStyle=auto;" vertex="1" parent="1">
          <mxGeometry x="220" y="120" width="120" height="60" as="geometry" />
        </mxCell>
        <mxCell id="F4cN8ri1p3pjv_KpareM-17" value="formatter" style="swimlane;whiteSpace=wrap;html=1;dashed=1;fillColor=#dae8fc;strokeColor=#6c8ebf;" vertex="1" parent="1">
          <mxGeometry x="380" y="95" width="140" height="110" as="geometry" />
        </mxCell>
        <mxCell id="F4cN8ri1p3pjv_KpareM-20" value="&lt;font style=&quot;font-size: 23px;&quot;&gt;...&lt;/font&gt;" style="rounded=0;whiteSpace=wrap;html=1;fillColor=none;strokeColor=none;" vertex="1" parent="F4cN8ri1p3pjv_KpareM-17">
          <mxGeometry x="15" y="70" width="110" height="40" as="geometry" />
        </mxCell>
        <mxCell id="F4cN8ri1p3pjv_KpareM-22" value="" style="shape=image;verticalLabelPosition=bottom;labelBackgroundColor=default;verticalAlign=top;aspect=fixed;imageAspect=0;image=data:image/png,iVBORw0KGgoAAAANSUhEUgAAAgAAAAIACAYAAAD0eNT6AAAACXBIWXMAAOw4AADsOAFxK8o4AAAAGXRFWHRTb2Z0d2FyZQB3d3cuaW5rc2NhcGUub3Jnm+48GgAAIABJREFUeJzt3XmUXlWZ7/FvSAIEgiSMCZMJyiBDmGQWEMLkQIutKDjgPLS3l9jO3qbbltXLtr3X29rdtjji7XbG1hYBARGUoUWQEAIoBJAZwpgQAmFIUvePXXUpQqXyVr3nnGfvc76ftfZSlyv1/s6736rneffZ5xyQJEmSJEmSJEmSJEmSJEmSJEmSJEmSJEmSJEmSJEmSJEmSJEmSJEmSJEmSJEmSJEmSJEmSJEmSJEmSJEmSJEmSJEmSJEmSJEmSJEmSJEmSJEmSJEmSJEmSJEmSJEmSJEmSJEmSJEmSJEmSJEmSJEmSJEmSJEmSJEmSJEmSJEmSJEmSJEmSJEmSJEmSJEmSJEmSJEmSJEmSJEmSJEmSJEmSJEmSJEmSJEmSJEmSJEmSJEmSJEmSJEmSJEmSJEmSpGpMiA6gTpsCzAa2BTYDNl1tbAZMB6YCk0mf12mD/3ZdYMOG80ojeRx4evC/LwEGgGeAZcBi4CHg4dXGQ8BdwG3A8obzSoANgOo3HZgD7AzMGjZmA1tGhZIysgi4fdi4DbgJWEBqIKRa2ACoKpNIRX53UsGfM/jft40MJRXuLuA6UjOwYPC/3wisiAyldrAB0HhNBfYEDgZeNjimjfovJFXhcWA+cBlw+eB4JDSRimQDoF5NA44CDicV+12BdUITSQJYCdxAagguBi4k7UWQRmUDoNHsCrwaOBI4lLTxTlLeVpJWCC4EziatEAyEJlKWbAA03HrAMcBrgWOBGbFxJFXgPuA84KfABcBTsXGUCxsATQQOBE4A3kS69E5SOy0Bfg6cCZzPs5cvqoNsALppHWAucCJwPLBJbBxJAR4hrQp8n7R3YFVsHDXNBqBbZgInA+8Ftg/OIikf9wDfAb4C3BGcRQ2xAWi/dYAjSEX/taTr9SVpJKuAi4CvkVYHvN9Ai9kAtNemwF8A7we2Ds4iqTz3kFYETifdvlgtYwPQPtsDpwDvwnvlS+rfU8CPgM+S7kKolrABaI99SIX/TaSd/ZJUpVXAucCXSPcYUOFsAMo3FzgNOCg6iKTOuAz4NGm/gAplA1Cug0iFf250EEmddTnwN6TLCFUYG4Dy7A+cSrpFryTl4ELgr4Ero4OodzYA5dgZ+DxwXHQQSVqDs4CPAzdFB9Ha2QDkbxrwSeBDpHv1S1LOngHOIK0IPBScRaNwt3i+1gHeSuqoj8Eb+Egqw0TSVUnvJl1C+Ht8GmGWXAHI01zgn4Ddo4NIUp+uJa1g/jo4h1ZjA5CX6cDngPfg3EhqlzOBD+BpgWx4CiAfJ5BusnEoFn9J7bMr8DbgAdKqgIJZaOJtBfwr6UE9ktQF55KeVXJndJAucwUgzgTSL8DPgD2Cs0hSk3YgPa9kCXB1cJbOcgUgxhbAN/Cafkm6AHg7cF9wjs6xAWje0cC3gZnBOSQpFw+QVgTOjg7SJetEB+iQ9UlP0ToPi78kDbcF6Z4nXwU2CM7SGa4ANGMO8APgJdFBJClzNwAnAtdHB2k7VwDqdxLw31j8JakXu5IeKvT24Byt51UA9ZkEfJZ0R791g7NIUkkmA8eTLpM+H1gVG6edPAVQj81JS/5HRAeRpMJdCrwRrxKonA1A9Q4i3fJyq+ggktQS95Dulvrb6CBt4h6Aap0A/AqLvyRVaWvgYuDN0UHaxD0A1TkF+Drp3JUkqVqTSLdMn4BPFqyEDUD/JgFfBk7FUyqSVKcJwMuBF5KeJ+DmwD5YsPqzEfBD4BXRQSSpYy4EXg88Gh2kVDYA4zeTdA/r3aKDSFJHLQCOARZFBymRDcD4bEfqPneIDiJJHXcbcCTwp+ggpbEBGLvZpJ3+s6ODSJIAuJPUBNwcHaQkXgY4Ni8h3ZTC4i9J+diO9Ld59+ggJbEB6N1ewG9I16NKkvKyJelv9H7RQUrhKYDe7E1a9p8WHUSSNKolwFxgXnSQ3NkArN1OpK5yy+ggkqSePES6X8ANwTmyZgMwuheTir+39pWksjwAHArcFB0kVzYAa7YtcAkwKziHJGl87iI1AbcH58iSDcDItiAV/52ig0iS+nILqQnwccKrsQF4vo2By/AOf5LUFguAQ4Cl0UFy4mWAzzUZOBOLvyS1yRzgR6SHt2mQTwN8ri8Db4wOIUmq3ItJ93E5KzpILmwAnnUq8PHoEJKk2uwNPEU6zdt5NgDJG0nf/t0TIUntNhe4lbQvoNMseHAQcBGwXnQQSVIjngQOB66IDhKp6w3AlsDVeH9/SeqaRcA+wL3RQaJ0+SqAyaRdoRZ/SeqeGaSrviZHB4nS5T0AXwTeEB1CkhRmW2BD4ILoIBG62gCcBHw+OoQkKdyBwI108MFBXdwDMAf4LbBBdBBJUhaWAQfQsSagaw3A+sCVwO7RQSRJWfkD8FJgeXSQpnTtFMA/A6+KDiFJys7mwFTgvOggTenSCsCxwLl065glSb0bAI4DzokO0oSuFMPNSXd9mhEdRJKUtQdIe8Xujw5Sty7cB2AC8C0s/pKktdsCOIMOfEHuwh6AvwD+KjqEJKkYOwD3ke4U21pt73C2Iu3s3Dg6iCSpKEuBXYG7o4PUpe2nAL6CxV+SNHYvAE6PDlGnNjcAJwF/Fh1CklSsVwEnRIeoS1tPAWxKWvrfIjqIJKloi4BdgMXRQarW1k2AXwUOig4hSSreVGAz4KzoIFVr4wrAXODC6BCSpNYYAF4OXBKco1JtawAmAtfgvf4lSdWaT3pWwMroIFVp2ybA92HxlyRVb0/gHdEhqtSmFYDpwELSuRpJkqr2ALAj8Gh0kCq0aRPg54AjokNIklprQ1Ld/GV0kCq0ZQVgZ9LDfiZHB5EktdrTpFPNC6OD9KstewA+j8VfklS/dYF/iA5RhTasALwUuJJ2HIskKX8DwP7AVdFB+tGGPQDfBl4UHUKS1BkTSA+b+150kH6U/q35YOCy6BCSpE46ELgiOsR4lb4H4O+jA0iSOuu06AD9KLkBOJJ0a0ZJkiIcRcF1qORTAJfjA38kSbF+Q6FNQKkNwMuAS6NDSJJEoXsBSj0F8JHoAJIkDfpwdIDxKHEFYAfgRsptXiRJ7bIS2Am4NTrIWJRYRP+KMnNLktppInBKdIixKm0FYBPgTtIDGSRJysUTwHbAw9FBelXaN+kPYPGXJOVnA+B90SHGoqQVgInAbcC20UEkSRrB3cAs0p6A7JW0AvBKLP6SpHxtAxwTHaJXJTUA74kOIEnSWhRTq0o5BTCTtPlvUnQQSZJGsQJ4IXBvdJC1KWUF4N1Y/CVJ+ZsEnBwdohclrACsQ7q5wqzgHJIk9eJPpJvWrYoOMpoSVgDmYvGXJJVje+Cw6BBrU0IDcGJ0AEmSxij72pX7KYDJwCLSHQAlSSrFQ6QN7Cuig6xJ7isAR2PxlySVZzPgiOgQo8m9AXhDdABJksbpjdEBRpPzKYD1gPuBjaODSJI0DkuALYGno4OMJOcVgGOx+EuSyjUNODI6xJrk3AAcHx1AkqQ+/Xl0gDXJ9RTABOAe0g5KSZJKdR+wNTAQHWR1ua4A7IXFX5JUvpnAbtEhRpJrA/CK6ACSJFUky5qWawNwbHQASZIqkmVNy3EPwDTgQXz6nySpHZ4BNgcejQ4yXI4rAEdh8Zcktcdk4PDoEKvLsQGYGx1AkqSKZXdb4BwbgIOiA0iSVLGDowOsLrc9AC8AHgEmRgeRJKlCK4HpwGPRQYbktgJwEBZ/SVL7TAT2jw4xXG4NQHZLJJIkVSSrGmcDIElSM7KqcTntAZgELAamRgeRJKkGy0j7AFZEB4G8VgBegsVfktReU4Edo0MMyakBmBMdQJKkmu0eHWBITg1ANm+KJEk1yabW5dQAuAIgSWq7bGpdTg1ANl2RJEk1yaYByOUqgE2Ah6NDSJJUswFSzVsSHSSXFYBsOiJJkmo0AdgtOgTk0wDsFB1AkqSG7BwdAPJpAGZFB5AkqSGzogNAPg3A7OgAkiQ1ZFZ0AMinAZgVHUCSpIZk8aU3lwYgizdDkqQGzIoOAHlcBjgFeJw8skiSVLcBYAPgycgQkyJffNBsLP69eAw4G7gYmA/czrPXkU4jvY97AocDrwI2aj6iavQUae7PAq4GbiPN/2RgK2AG6XLa44CXA+uHpNSaLAXOAS4CruX5v7+zSL+/R+DvbxdMIM35jcE5wh1D6oYcI4+FwLtJ3WKvNhj8NzdnkN9RzfyPpSBsOPhvFmaQv+vjJuCdjP339104f20fRyHeTPxE5DieAD5G+oY3XpOBjwPLMzgeR8z8f3TwZ0UfT9fGE8BH6G+VdTLpM+DvbzvHSYgPEj8RuY2bqfbZCHOAWzI4LkfM/O+O89/kWEi1d3o7ALg3g+NyVDv+kmA5XAWwaXSAzMwHXgZcV+HPXAAcDFxT4c9UPa6h+vm/jjT/11b4MzWya0jv9fUV/swrgP1Iv8dqj/Dal0MDsFl0gIzcAhwL3F/Dz74fmAvMq+FnqxrzgCOpb/6PAW6t4WcruZn0Hj9Yw8++m7Q5cFENP1sxwmufDUA+ngROoJ4//kMWk5qAq2p8DY3PfOBo4JEaX+N+4HjSOWVVa+j3t47iP+Ru4NU4f23hCgDpsYiCvyUVgbotIX1LcSUgH/NIjVkTj8S+Hvh0A6/TNafSzCmWq4HPNfA6ql94A5CDq4nfjBE9FtLfbu/xmI7vfQ7jappvgtfFS8yqHDfR7D1VpgL31XAcjmbH71ef2KblsAIwJTpABj4PPNPway4mnW92JSDOPNK1wHUu+4/kadJnTtX4R2BFg6+3DDitwddTPcJv1pXDHfhuBbaPDhHoMdJd3J4Iev1pwAXAvkGv31XzSQ1YE8v+I5lKOl8d/keocEuBmTT/+7shaRXAOwaW62Zgx8gAOawArBsdINjZxBV/cE9AhCbP+a/JMuDXga/fFucQ8/v7OHBuwOuqOutFB7ABiHdxdAA8HdCkqGX/kZwdHaAFLuroa6t/NgBk8CYEa2Lnfy+8RLB+TVzqNxZV3qymqyJvruSNgcoW/uU3hwYg/E0Idlt0gGE8HVCfHJb9V3dPdIAWiPz9/VPga6t/4V9+c9gEuAKYGB0i0HqkXdk5mQ5cCOwdHaQlclr2H24D0rlkjV/k7+96BD9PXn1ZSbOXjz5PDg3AQHSAYDnMwUi8OqAa0bv916brv3/9iv79df7KFvr5yeEUgPK0hHS+2j0B45d78ZfUYTYAGo1NwPhZ/CVlzQZAa2MTMHYWf0nZswFQL2wCemfxl1QEGwD1yiZg7Sz+kophA6CxsAlYM4u/pKLYAGisbAKez+IvqTg2ABoPm4BnWfwlFckGQONlE2Dxl1QwGwD1o8tNgMVfUtFsANSvLjYBFn9JxbMBUBW61ARY/CW1gg2AqtKFJsDiL6k1bABUpTY3ARZ/Sa1iA6CqtbEJsPhLah0bANWhTU2AxV9SK9kAqC5taAIs/pJaywZAdSq5CbD4S2o1GwDVrcQmwOIvqfVsANSEkpoAi7+kTrABUFNKaAIs/pI6wwZATcq5CbD4S+oUGwA1LccmwOIvqXNsABQhpybA4i+pk2wAFCWHJsDiL6mzbAAUKbIJsPhL6jQbAEWLaAIs/pI6zwZAOWiyCbD4SxI2AMpHE02AxV+SBtkAKCd1NgEWf0kaxgZAuamjCbD4S9JqbACUoyqbAIu/JI3ABkC5qqIJsPhL0hrYAChn/TQBFn9JGoUNgHI3nibA4i9Ja2EDoBKMpQmw+EtSD2wAVIpemgCLvyT1yAZA06MDjMES4Bhg3gj/3zzgCMoq/iW995JaxgZAFwGbRocYg8XAXJ67EjCftDqwOCTR+EwDzo8OIam7JkQHAAaiAwSLnoMBylw6nwZcAEym3Oz7ksf8a/ycP/Uj9PMT/eEFP8DRczD0/s8jFdKSvkUPLaGXlvlCYO/B/53L/Gt8nD/1wwYgOkCw6DkY/v6XuBJQkuHf/IfkNP8aO+dP/Qj9/LgHQMPtSfp2WtKegFKMVPwlKYwNgFZnE1A9i7+k7EQvX4FLWNFzsKb3fx5wFPBIg1naaBPglzx7zn91uc5/jh4DLgZ+BzwAPAg8TnqPZwF7kC4FndFgpq7O3/XApcANwG3A08AGwHbAVsD+wKHApKB8pYj+/IQb6PiINlq2q0l/XDU+m5Dew1LnP4fxNPAd4OWkKz7WZgJwyOC/WdFAvmhNzsVi4B+AHXvMNh14M+mS3ejPUa6j86InIHpEW1s+m4Dx6aX4lzD/kePnwA59HNuOwHk1Z4zWxDw8A/wTsPE4M04A3gAsbChvSaPzoicgekTrJaNNwNj0WvxLmf+mx3LgnRUe49uBR2vKGq3uuVgA7FNR1vWBLzeQuaTRedETED2i9ZrTJqA3Yyn+Jc1/U+MR4MAajnM2cEkNeaPVNQ9PA58B1q0h8weBlTVmL2l0XvQERI9oY8lqEzC6sRb/0ua/7vEYafNYXSYCnwSeqjBztDrm4RrS1UB1OqWm7KWNzouegOgRbax5bQJGNp7iX+L81zneUPOxDtmLtHu9i7+/o42ngL+ht82WVTi94vwljs6LnoDoEW08mW0Cnmu8xb/U+a9jnFH3ga5mCvAlYFWfuaNV9f5fBezecPYpwI0VZC95dF70BESPaOPNbROQ9FP8S57/Ksdi4m48dRRwdw8Z2zp/y4FPEXe9/jE9ZGzz6LzoCYge0frJ3vUmoN/iX/r8VzX+ru6DXItNgB/Svfm7Atil+cjPcznxn8Go0XnRExA9ovWbv6tNQBXFvw3z3+94hmbv3DeatwBLaP/8PQF8lLQpMgdvJP5zGDU6L3oCoke0Ko6ha01AVcW/LfPfzziv/kMckxeSbjfc1vm7jN7v5NeUDYBlxH8WI0bnRU9A9IhW1XF0pQmosvi3af7HOz5S/yGO2TrAx4Anac/8PQ58iHwfAHc+8Z/FiNF50RMQPaJVeSxtbwKqLv5tm//xjMPqP8Rxm0O6E17p8/dr4EVB+Xr1GeI/ixGj86InIHpEq/p42toE1FH82zj/Yx0z6z/EvqwPfIE137ku2mjv7WPA/6CMJ86dTPxnMWJ0XvQERI9odRzTNcRd1lWHacCVOP91jDpuNVuHI4A7KWf+LqG/Byk17dXEfxYjRudFT0D0iFbXcbVlJaCub/5tn/9ex5T6D7Ey04Dvkff8PQq8jzK+9Q93LPGfxYjRedETED2i1Xlspa8E1PnNvwvz38vYtv5DrNwJwMPkN3/nA9vFxhm3dxD/WYwYnRc9AdEjWt3HV2oT0ETx78L8r23sXf8h1mIGcG50CNJ7uAR4L+V96x/uVOI/ixGj86InIHpEa+IYSzsdUPeyf9fmf7Rxcv2HWJscCu45wNbRISrwTeI/ixGj86InIHpEa+o4S2kCmiz+XZr/NY3v1n+IytwE4B7iP4sRI1SuN4VQ++wN/Iq8TwdMI92ZrtRl6RIdjX+Hum4/YKvoEF3kL56atCdwAXmuBGxCalD2jQ7SMZuRmgB110nRARQnegkmekSLOObcTgc0vezf9flffVxU+1EqV9uQHkkc/RmMGp0XPQHRI1rUcefSBEQW/y7P/+rjuLoPVFn6BvGfvcjRedETED2iRR57dBMQXfy7Pv/Dx13A9JqPVXk5BFhB/Gevy7//4aInIHpEiz7+qCYgh+Lv/D93nAtMqvdwlYmtSU1f9GcuenRe9AREj2jRxz9A801ALsXf+X/++DYwsc4DVrjNWftTFrsyOi96AqJHtOjjHxpNNQE5FX/nf+TxE2CjOg9aYXYAFhL/GctldF70BESPaNHHP3zU3QTkVvyd/zWPP5IuG1V7vAVYSvxnK6fRedETED2iRR//6mMesGUNxzmD9FyC6ONz/nsfTwGfwPuVlG4m8DPiP085js6LnoDoES36+EcatwBzKjzGPYBbMzgu53984zfArJqOX/V6G/AI8Z+hXEfnRU9A9IgWffxrGsuBjwGT+zi2dYGPk/eNRqJFH3+v41HKfnBQ12xDelBR9Ocm99F50RMQPaJFH//axkLgPcCUMRzTBqTHo96SQX7nv9pxJnk/T6LrJgDvIj2iOPqzUsIIlcPjLMPfhGDRc1DK+7+M9I3iIuAPwAOkJ4hBuqZ4S2AX4AjglcDUgIzj4fyP3b3AO4Hzo4PoObYDvo7PdhiL0N//6D8+UOYfoCpFz0HX3/9ozv/4DJCKzYeBx4OzdN0E0ird/8bLN8fKBiA6QLDoOej6+x/N+e/PjaTLy66ODtJRs0iN2JHBOUoV+vvv5TWSSrYzcAXwd3gHwSZNIO2zuQ6Lf7Giv31A+d9A+hU9B11//6M5/9W5AngrafOn6jMb+CZweHSQFnAFQJIqcADpRlLvjQ7SUkPf+hdg8W+F6G8f0K5vIOMRPQddf/+jOf/1+AXpSoFF0UFa4kWkb/2HRQdpGVcAJKlirwCuBY6LDlK4dUjf+q/F4t860d8+oL3fQHoVPQddf/+jOf/1+w/gA6R7Sah3uwDfAvaPDtJirgBIUo3eSvoGe3B0kEJMIj2EaR4W/1aL/vYB3fgGMproOej6+x/N+W/OCuALwN8AzwRnydVupG/9+0YH6QhvBBQdIFj0HHT9/Y/m/DfvStKqwMLoIBmZBHwE+AywXnCWLrEBiA4QLHoOuv7+R3P+YywHPgX8M919D4bsDpwB7BMdpIPcAyBJDZsCfBE4F5gZnCXKZNK5/t9j8e+k6G8fYPcdPQddf/+jOf/xHiQ9zOZn0UEatAfpW/9e0UE6zhUASQq0OfBfwL9TzmOkx2voW/9VWPw7L/rbB/gNJHoOuv7+R3P+83IbcDJwWXSQGuxP2uG/S3QQ/X+dXwFYGR0g2LqBr+1u33jOf15mAxcDnyN2bqq0Pul4Lsfin5Pw2pdDA/B0dIBgLwh87Y0DX1uJ85+foRvhXArsGJylXweTboL0CXxccm6eig5gAxBvduBrbx/42kqc/3ztB8wHTiH+VM1YTSF96/8N5TcxbWUDQAZvQrA9A197j8DXVuL8523ocsGfAzOCs/TqUOA6/Nafu/Avvzk0AOFvQrAjAl97buBrK3H+y/AqYAFwfHSQUUwF/gX4Nenxvcpb17/8AnAraSdyV8djwIZ9v4tjt+Hga0cff9eH81/e+Hdgo7G/5bU6hHRr4+j3xtH7CL8VdQ4rAF3vgqYCJwa87pto/zXPJXD+y/NW0t6Ag6KDkDaRnk46179DcBaNTddXvwG4mvhOLHosJN2goynr4spLTsP5L3OsAP6eZuduuGOAO9aS0ZHvuOr5U9qsHFYAHokOkIEdgA81+Hofxh3gOXH+yzQR+Gvgt8DODb7uxsA3gF8A2zX4uqqWtQ/4AfGdWA5jOXBAn+9lLw4Engw4Pofz3+axnLTrvu4vVccCdwYfq6Oa8V2C5bAC8FB0gEysD/wU2LbG19gKOBPvAJcj579sQ3fbOw/YuoafPw34Kulbf52fETUnvPbl0AA8HB0gIzOAs4FtavjZ21LfHydVw/kv31GkO++9rsKf+RrgD8B7K/yZihd+CsAGID9zSJtDqlwOPhC4Eti9wp+pejj/5dsU+DFwFv1dj78j8BPSkwpnVpBLebH2kS5Hij4Xk+N4Evhb+rtGfF3gU3jOt8Th/LdjPAmcQe8N3QTgZcA3SZeJRed31DciLv99jhzub300cH50iIwtAk4j3Xzk8R7/zYbAm0mbktztXTbnvz3uAC4hrfDcDTxIuoRwGukUzX6kh/fMCsqnZh0FXBgZIIcG4CWk81sa3TLgHNKjSueTnlu+ZPD/m0Z6qMxewOHAK/EmL23j/EvtsjNwU2SAHBqAKaRvNjlkkSSpbgPABqRTRGFy2AS4HHggOoQkSQ25j+DiD3k0AAC3RweQJKkht0cHgHwagNuiA0iS1JAsal4uDcDt0QEkSWqIDcAwWbwZkiQ14PboAJBPAxB6KYQkSQ26MToA5HPp3TTSfZFzySNJUh0GSDVvaXSQXFYAlpDujCVJUpvdQQbFH/JpAAAWRAeQJKlm2dS6nBqA66IDSJJUMxuAEdgASJLaLptal1MDkE1XJElSTbJpAHLadT8RWAxsFB1EkqQaLAU2AVZGB4G8VgBWAldGh5AkqSZXkEnxh7waAIDLowNIklSTrGpcbg3Af0cHkCSpJpdFBxgupz0AAC8g3RFwYnQQSZIqtAKYDiyLDjIktxWApcAN0SEkSarYfDIq/pBfAwCZnSORJKkC2dW2HBuAi6IDSJJUsYujA6wutz0AkPYBPARMjg4iSVIFngY2Ax6LDjJcjisAS4HfRYeQJKkil5FZ8Yc8GwCAX0QHkCSpIudFBxiJDYAkSfXKsqbluAcAUq67ga2ig0iS1Ie7ge2Ageggq8t1BWAAOD86hCRJfTqPDIs/5NsAAPw0OoAkSX36z+gAa5LrKQCAdYH7SI9OlCSpNIuBGaTLALOT8wrA08BZ0SEkSRqn/yTT4g95NwAAP4oOIEnSOP0wOsBocj4FAOlugPcBm0YHkSRpDB4CZpKeApil3FcAnsHNgJKk8vyYjIs/5N8AQOZLKJIkjSD72pX7KQBIGW8GXhQdRJKkHvwJeDGZXv8/pIQVgAHg29EhJEnq0dfIvPhDGSsAkDZS3AlMig4iSdIoVpBu/XtfdJC1KWEFANIbmeXDFCRJGubnFFD8oZwGAODr0QEkSVqLYmpVKacAACYCtwHbRgeRJGkEdwOzgJXBOXpS0grAStLGCkmScvRvFFL8oawVAEgPBroT2DA6iCRJwzwOvBB4ODpIr0paAQB4BC8JlCTl5xsUVPyhvBUAgNmkGwNNjA4iSRJp2X8n4NboIGNR2goApI2AP4sOIUnSoB9TWPGHMlcAAPYDfhcdQpIk4AAKrEklrgAAXAlcFh1CktR5F1Ng8YdyGwCAT0cHkCR13meiA4xXyQ3ARaTOS5KkCBcAv4kOMV6l7gEYcjCeCpAkxTgQuCI6xHiVvAIAcDmpA5MkqUlnU3Dxh/JXAAAyONQ8AAAIGElEQVReStoU2IZjkSTlbwDYH7gqOkg/Sl8BAPg96fGLkiQ14ScUXvyhPd+aXwxcD6wXHUSS1GpPA7uR7khbtDasAADcAnw5OoQkqfX+Dy0o/tCeFQCAFwA3ATOig0iSWul+YEdgaXSQKrTpgTpPAcuAV0cHkSS10gcp9K5/I2nTCgCkUxpXAvtEB5Ektco1pKvOVkUHqUpb9gAMWQV8lHSJhiRJVRggfftvTfGHdp0CGHI7MAvYMzaGJKklvg78W3SIqrXtFMCQTYA/AFtGB5EkFW0RsAuwODpI1dp2CmDII8Ap0SEkScX7S1pY/KG9KwBD/gt4TXQISVKRzgaOiw5Rl7Y3AFsBNwDTooNIkoqyFNgVuDs6SF3auAlwuMeAR/HeAJKksfkgcHF0iDq1fQUA0jH+jBYv40iSKvUL4FW0/JLyLjQAAJsDC/A2wZKk0T0AzCHd9rfV2noVwOoeBN5Oy7s5SVJfBoB30IHiD+3fAzDcrcBmwH7RQSRJWfoi8K/RIZrSlVMAQ9YnPchhTnQQSVJWbgD2BZZHB2lKV04BDHkSeDPweHQQSVI2HgNOoEPFH7rXAABcD7wrOoQkKQsDpJrwx+ggTevSHoDhbgA2Bg6MDiJJCvW/gC9Fh4jQtT0Aw00CLgQOiw4iSQpxMXA0sCI6SIQuNwCQnhb4e2Cb6CCSpEbdBexDuky8k7q4B2C4+4E3kDYHSpK64Ung9XS4+IMNAMBvgZOBVdFBJEm1G9r0d2V0kGhd3QS4uj+QzgHNjQ4iSarVJ4HTo0PkwAbgWZeS9gTsGx1EklSLb5AaAOEmwNVNAs4GjokOIkmq1Hmkp8J2csf/SGwAnu8FpNUAbxcsSe0wHziUdMc/DXIT4PMtBY4CbowOIknq283AK7H4P48rAGu2DXAJMDs6iCRpXO4CDgHuiA6SI1cA1uxu0krAvdFBJEljdj/pb7jFfw1sAEZ3K3AE6YMkSSrDQ6TLum+KDpIzG4C1u4l0/mhJdBBJ0lotIV3JdUN0kNzZAPRmHmkloNO3jZSkzD1CKv7zooOUwE2AY7Mz6QmCW0cHkSQ9xyLSk/2uiw5SChuAsZsF/ArYPjiHJCm5AzgSuCU6SEk8BTB2twOHAwuDc0iS0j6tQ7D4j5kNwPjcCRwGLIgOIkkdNp/0t/iu6CAlsgEYv0XAwcA50UEkqYN+SSr+XqY9Tj4NsD9PAz8ENsenCEpSU74JvAlYHh2kZDYA/RsgrQIsIe1AdWOlJNVjADgN+DCwKjhL8SxW1Xod8B/AlOggktQyTwHvAL4fHaQtbACqdwDwY7xXgCRV5S7g9cCV0UHaxE2A1bsC2JN0wyBJUn8uAfbD4l859wDU4wnge8B6pCsFXGmRpLEZAP4FeAuwNDhLK1mY6vca4P8CG0cHkaRCLAPeCZwZHaTNbACasSvwA2C36CCSlLkFwInAH6ODtJ2nAJrxIHAGMBk4CBsvSVrdAPB14ATgvuAsnWAhat6RpFMCW0UHkaRMPEBa8vfOqg3yKoDmXUi6SuCs6CCSlIHzgT2w+DfOBiDGg8DxwPtxd6ukbnoUeB9wLOnZKmqYpwDizSRd6vK66CCS1JCzgQ/gU/xCuQIQ7z7SHa7+DLgnOIsk1WkR8DbgOCz+4bwKIB8LgW8BmwB74+qMpPYYAL5Dui/KFcFZNMgik6dDgS8Ce0UHkaQ+XQ18CLgsOoiey1MAeboEeClpqczNMZJK9BCp8O+PxT9LngLI1wBwLXA68AzpKYOTQhNJ0to9A3yZdKXTJaS/ZcqQpwDK8WLgH4HX4rxJys8A8BPgE8CtwVnUA08BlOMW0qWCe5AekGFXLSkXF5Ie2ft6LP7F8JtkufYHTgVeHR1EUmddDvxP0lK/CmMDUL5DgdOAw6KDSOqMi4FPA5dGB9H42QC0x96kHbcn4WZBSdVbBZwLfBb4bXAWVcAGoH1mkZ4x8H5g49goklpgGfA94AukG5apJWwA2msTnm0Etg3OIqk8dwFfIV2KvDg4i2pgA9B+6wBHAO8lXZc7OTaOpIytJJ3f/xrwU2BFbBzVyQagW2aQ7i74btJ9BSQJ0mXG3wW+iQ/p6QwbgG6aQLpq4CTgz4HNYuNICvAg6cY938c79nWSDYAmAgcCJwAnAlvExpFUo8XA2aSbiZ1Hum2vOsoGQMOtCxxFut3wscDWsXEkVeBuUrH/KfBLLPoaZAOg0WwPHEe62+AhwHqxcST1YCUwn/RN/+fAPFze1whsANSrjYC5pCsKDgbm4A2HpBysID059HLSDv4LSdfuS6OyAdB4bQjsRWoGXjb4n9NDE0ndsIxU8C8jFf1LgSWhiVQkGwBVZSKwE7A7aXVg98ExKzCTVLrbgesGx4LBsZC0zC/1xQZAdduY1AjsTGoGZgGzB8fMsFRSPu4lFfrbhv3nTaSi/2hYKrWeDYAirU9qCLYBNgc2XcOYMjggNRTrkO5oOLXZuNKIlpF21q/i2YK9fHA8vIbxIGl3/u3Ak83GlSRJkiRJkiRJkiRJkiRJkiRJkiRJkiRJkiRJkiRJkiRJkiRJkiRJkiRJkiRJkiRJkiRJkiRJkiRJkiRJkiRJkiRJkiRJkiRJkiRJkiRJkiRJkiRJkiRJkiRJkiRJkiRJkiRJkiRJkiRJkiRJkiRJkiRJkiRJkiRJkiRJkiRJkiRJkiRJkiRJkiRJkiRJkiRJkiRJkiRJkiRJkiRJkiRJkiRJkiRJkiRJkiRJkiRJkiRJkiRJkiRJkiRJkiRJkiSpWv8PdahsSogvj1kAAAAASUVORK5CYII=;" vertex="1" parent="F4cN8ri1p3pjv_KpareM-17">
          <mxGeometry x="49" y="28" width="42" height="42" as="geometry" />
        </mxCell>
        <mxCell id="F4cN8ri1p3pjv_KpareM-24" value="" style="shape=image;verticalLabelPosition=bottom;labelBackgroundColor=default;verticalAlign=top;aspect=fixed;imageAspect=0;image=data:image/jpeg,/9j/4QCARXhpZgAASUkqAAgAAAAFABIBAwABAAAAAQAAABoBBQABAAAASgAAABsBBQABAAAAUgAAACgBAwABAAAAAgAAAGmHBAABAAAAWgAAAAAAAABIAAAAAQAAAEgAAAABAAAAAgACoAQAAQAAAIACAAADoAQAAQAAAKIAAAAAAAAA/9sAQwAGBgYGBwYHCAgHCgsKCwoPDgwMDg8WEBEQERAWIhUZFRUZFSIeJB4cHiQeNiomJio2PjQyND5MRERMX1pffHyn/9sAQwEGBgYGBwYHCAgHCgsKCwoPDgwMDg8WEBEQERAWIhUZFRUZFSIeJB4cHiQeNiomJio2PjQyND5MRERMX1pffHyn/8AAEQgAogKAAwEiAAIRAQMRAf/EAB0AAQACAwEBAQEAAAAAAAAAAAAHCAUGCQMEAQL/xABSEAABAwMBBAMLBwkFBgUFAAABAAIDBAURBgcSITFBYXEIEyI2UXWBkaGxshQVIzI0c3QkMzdCUnKSs8E1Q4Ki0hZTYpPC0RcYJVbDRVRVg/D/xAAbAQEAAwADAQAAAAAAAAAAAAAABQYHAQMEAv/EADURAQACAQICBgkCBgMAAAAAAAABAgMEBQYREiEiMUFCExQjUXGBkbHRYsEzNlJhhKEVU3T/2gAMAwEAAhEDEQA/ALUoiICIiAiIgIiICIiAiIgIiICIiAiIgIiICIiAiIgIiICIiAiIgIiICIiAiIgIiICIiAiIgIiICIiAiIgIiICIiAiIgIiICIiAiIgIiICIiAiIgIiICIiAiIgIiICIiAiIgIiICIiAiIgIiICIiAiKOtfap+aKL5HSvxWVDTgj+7ZyL+3yI9Wi0ebW6nHp8Uc7Xn5RHjM/2hrer9oNbBcH0Volja2Elss26Hlzxza3PDA5ErJaI11UXKpNvub4+/vGYJQN3fI5tI8vSPKoL/8A7yr+o5JIpGSRvc17HBzXA4IIOQR1o1C/DW2zt/q1cVYvFerNy7fS98z+y5KLT9Haljv1ta95AqocNqGDy9Dh1OW4IyzU6bNpc+TBlr0b0tymBERHQIiICIiAiIgIiICIiAiIgIiICIiAiIgIiICIiAiIgIiICItO2gV9ZbtF3+so53Q1ENG98cjebXDpCDcCQBknAX41zXNDmkEEcCFzVuOqdRV88jay8Vs4LyCHzyEeoED1BX52deIelvNVN8AQbmiIgIiICIiAiIgIiICIiAiIgIiICIiAiIgIiICLH3S50NpoKmvrp2w08DC+R7ugD+qgs90Rpr5f3n5qru8b+737Me9jlnczn0c0FhEWNtV1oLvb6avoZ2zU07A+N7ekHy+Q+ULJICIiAiIgIiICIiAiIgIiICIiAiL+HvYxjnucA1oJJPIAIeLE3y801lts9bUHgwYYzpe88mjrJVWrlcaq5V09ZUv3pZXZPkA6GjqA4BbJrTUzr7cvonH5HAS2AftE85D29HUsPYLJVXu5w0cGQCd6STGRGwc3dvQOtGpbBtePadDfU6nlXLanSyTPkrHX0fy2zZ/pUXWrNdVx5o4HEBpHCWTyfut6etYzWumX2O5kxNJpKhznQu/ZPMsPZ0dSsXb6Cmt9HBSU0e5FEwNaOz+q+S+WalvVtnoqgcHjLHjmxw5OHWEV3HxVm/5ic95t6tbsej91fC3x8VZrBe6myXOGsgyQOEsecCRh5t7ekdatLb66muFHBV00m/FKwOae3oPWqnXK3VVtrp6OpZuyxOwfIR0OHURxW87PtU/NdaLfVPxSVD/BJPCOU8M9juR60TvEu011+lrrNPEWy0pz6vPTv+seCwqIiMyEREBERAREQFSnaDtR1tSapvFBT3iWCngqnxRsiaxmGtxzJaSeausuc+0vx41F5wl9wQY+bXGrpnudJqC5uzz/ACqUD1NcAvhdqa/uPhXWtPbUS/6lKuxfQ9h1XV3Zl1jme2CCF8YjkMfF7nA53exWGGxDZ4OdvqT21U3+pBSuLV+poTmK93BnH9WqlHL/ABLc7Vtn17bntPzu6oYBjcqWNlB9I3T7VZio2E6BlbhkNbEfK2pefiyox1P3O9TBTvmsNxNS5rfs9QGse7H7L2gDPaPSg2rSO3+z3GSOmvtMKGRxAFSxxfAScDws+Ezj08R1qwkUsU0bJIntexwBa5pyCD0ghcvq6hrLdVy01VDJDPE8texw3XNcOgqwGxDaLPQXKDT1fMXUdU/dpi4/mZTxDRn9V/LHQUFxUREBERAREQEREBERAREQFoe0/wDR9qf8BIt8Wh7T/wBH2p/wEiDne/7U/wC8PvXRnZ14h6W81U3wBc5n/an/AHh966M7OvEPS3mqm+AINzREQEREBERAREQEREBERAREQEREH8vdutc7yDKq1de6MnjmmiorBE0NJaHzzknIJH1WN/qrRzfmpP3T7ly9uP22o+9k+IoL/bL9WXPVenJLjcGQNlFXLGGwtLW7rMY5kqSFCGwLxHk84T/0U3oCIiCH9uMFVLoGpMLXFsdXTyS46I2u4k9QOCqHbj9/c3TvZxjHFdTJoYp4nxSsa+N7S1zHDIcDzBBUaHY3s8Nb8p+ZR9fe7132TvOf3M4x1ckGK2F09bDoSJ1RnclrJ5IcjHgF2MjqJBIUyryhhigijiijayNjQ1jGjAaByAAXqgIiICIiAiIgIiICIiAiIgIiIChvaTqnda6y0knEj8rcOgHlH2nmepbtrDUsdhtjntINVLllOzr6XHqaqyySSTSPkke573uLnOcckknJJRdOFNm9NkjXZ6+zpPsonzWjx+EfcjjklkZHGxz3vcGtaBxJccABWY0dpqOw2xrXgGqmw6oeOPHoaOpq0rZtpYYbequPiR+SNPQORk9PIdSmCWaKFhfLI1jRzLiAPajnireJz5fUME86Ut7SY81o8vwj7vVFotx2iaZonFjap1S8HBEDd8D/ABcB7V72zXumrgWsFaIJDwDJx3sk9RPA+gorU7TucYvSzos3Q9/QljtfaW+d6H5XTR/llO0kAf3jOZZ29I61XcjmCO0EK5LHse0OY4OB5EHIUDbRdLCgqTdKSPFNO/EzRwEcjjz7He9Fs4T3mazG357ePsZnwnxr+G4bPdVG5Ugt1XJmrgZ4DieMsY4A9o5H1qTFT6hramgq4KqmkLJYnhzD1+Q9R5FWj09faa+WyGrh4OPgyx54seObT/RHg4o2b1TP61hr7HLPaiPJaf2lnkREVIREQEREBc59pfjxqLzhL7gujC5z7S/HjUXnCX3BBM3c2fbtQ/haf+Y9WyVTe5s+3ah/C0/8x6tkgIiIKt90TpqkbBbb9FHuzOl+TVBA+sN0uY49YwRnrVWqOompqiOeF5ZJG4PY4cw5h3gfWFc7uhauOHR1FCRl81xZujqja5xPsVKo+Lj+673IOoFrrPllroqsAnv1NHJ/G0FQ7U7fdIU1RNBLRXIPjkcxw703gWEtP63lClXS8L4dN2SJ4Icyggac+UMCo5tisYtGu7sxrA2Ooe2qjx0iYZP+YFBcfRWvrLrKKtfbmzsNM9jXtmaGuIeMhwAJ4dC3lUp7n29fI9Wy0D5AGV1K5gB6ZIj3xvsLldZARF41EzIIJZnnDY2Oe49TRlBEt/21aUsV4rbZUwVr5aaTce6KNrmb2ATg73RnCzmjNpNk1jVVcFupqxhp4mve+Vga3DzgAYJ48FQa+XB1yu1dXOzvVNRJMcnJ+lcXj2FW87nqzfJNMV9xdG0PrKvca4DiY6cbnP8AeygsCiKtO2janUW18unbNO6OcsxWVLHYdHvD80wjk7HFx6ByQSbqraro/TMklPUVhqKtg8KmpwJHtPDg85DW8+kqJa3ukWCQCj06CzyzVIB9TGuVV/p6mUDwnuc7gOJySfefWVKlk2K66u1M2cW5tMxwBYamQQkg/wDDhzh6QEEsW/ukKZzyK7T7mt/agqA4+p4ato1PtI0lqfQGpIqC4BtSbfIfk0wMcvIcgfrc+jKhGr2B67p4XyMgpJyBkMiqPCPUA9rfeoqu1lvFlqHUtwo56aUE/RytLTw6Rnge0IMa4g1Lj5ZD710Z2deIelvNVN8AXOGP67e0Lo9s68Q9Leaqb4Ag3NYLUOorXp22SXG5Sujp2PawlrHPO884AAaCeJWdUe7UrPUXjQt5paaKSSfcZJFGwbznPjeHgADnnCCOLh3RenonPbRWitnxydI5kQPoyTj0LVz3SVYTw09TAeQ1LyfYxaFbthuva5rnOt8dKM+D8onawkHqYHrZGdzlqksBfc7YHY5ZkPtwEG0UHdIxGQiu09hnQ6CoDj6pA1TPpTaNpXVWI7fW7tTu7xpZh3uXHTgH6wHlGVTnVOyLWGm6WSrqKRk9NGCZJ6dxkawDpcCA4DrwQo5pKypop4poJXxyRuD2OY4tc1w5FpHIoOo6KMdlet3at042WpI+W0rhDU4wN84y2QAct4e3Kk5B4zzw08Ms80jWRxsL3vccBrWjJJPkCi25batn9EXtZcpKpzRn8nidID/iwB7VvWqvFm+eb6j+WVzPfvOc0cT4LQPUgt/Ud0dYhn5NY6x/DgZJImewFywUndKT7573pmPd6C6qIPsYVEWn9lGtL/R01bR2zNLM3ejmfKxjXDOOHEno8i2wdz9rkj6lCO2pP+hBIdB3SFveB8u0/NHx4mGdj/Y/dUxaW2iaT1Qe926vHyjdyaaUGOXGOYa76w48xlUw1Fsn1pYIZKiotbnwMbl00DhM1vbu4cMdmFHtPU1NJMySKV8cjHBzHMcWuaRyc0jkesIOpKKItkWv36ssroKyQOuNGGtmdjHfWH6smPKcYdjpUuoPOb81J+6fcuXtx+21H3snxFdQpvzUn7p9y5e3H7bUfeyfEUFhtl21rTeldNvt9dBWOlNXJJmJgc3D8Y4kjipI/wDMLor/AO0uf/Kb/qVW7Ds71fqChNbbLRJUQd8czfbJE0bzeYw9wKzX/g1tG/8Ab0//ADoP9aCxY7oTRZIApLlkn/dN/wBSmKyXanvNooLnTse2GrgZNG1+A4NeMjOCeKorHsc2itexx07PwcD+eg/1q6uiLfWW3SFgoqyIxVFPQQxysJB3XtaARkZHqQZa9XWns9prrlUteYaWB80gYAXFrBk4zjiod/8AMHoze3fklzznH5pv+pSDtH8QtUea6j4CudR+1/8A7B70HTOxXimvdnoLpTMkbDVQtlY14AcA7y4J4rLrRdmP6P8ATHm+L3LekBfJXV9Fb6WWqrKmKCCMZfJI4Na0dZK+O+3u32G1VVzr5hHTwM3nHpJ5BrR0kngB5VQbXu0G76vuLpaiQx0sbyaemafAjHIHrfjm71ILMXzugNJ0EroqCnqa9wz9I3EUeQccC/BPoC0c90lWEkjT1MB0A1LyfYxQDp/SWodR1DorZb5qhw+s5ow1v7znYA9JypSj7nvXL27xfbozj6r53E/5WIJCoO6QoHAfLrBKzjxME7X8OoP3FMukde6d1a2b5smlMkTGulikjcxzQ7kePAjh0FVHuWwvXtFFvsoYanB4inna93bh4Yp22D6Zq7Np+5VFbSSU9TU1m6WSNLHhkI3RkHynJQTuiIgIiICIiAvjr66mt9HPVVLwyKJhc9x8g/qvsVfNoWqfnOsNupZM0tO/w3A8JJR/RvR1oldn2vJuWsrijnGOOvJb3V/M+DUdQXypvlzmrJsgHwYo/wDdsHJvb0nrXwUDqJtXC6tZI+Bp3nsZjefj9TjyB6T5F8adI6MnA60bBTBjx4K4ccdCladGsV6uUd3Ukm4bTbxKzvVBTwUcQGG/3jwBy8gHtWh11yuFweXVtXNOT/vHEj0N5eoLMWzSOorng09vkaw8pJfomf5uPqCkK2bKGjD7lcC7pMcA3R2Fzsn1YRBzquHdo5xWcNLx4U7d/nPXP1QyvzmCDyPQtl1hbaS16hqqKkYWwxxxFoLi45c3JySshoayUF6ulTS1jHlgpt9u64tIdvYyCESl9fgpoI1sxb0Xo65OXLtcrdfd82uW+8XW2uBoq6eHH6rXeD/Ccj2LeKfaRWzU0lJd6CGsgkaWybn0bi0jHI5B9iy1z2Uzt3nW24B444jnGD2Bzf8Aso9uWmb9bCflVuma0H84wd8Z6259uERlc3D27TWelhvk58459jJE/wBp6pYaYQiaQQl5i3j3svHhbvRvda2bSOpJLBc2yOLjSy4bUM6uh462+5aoCCMggjyhETWo02LUafJgzV6VL16Nonv+PxXHiljmjZJG8OY9oc1w5EHkV6qE9m2qe9ubZauTwSSaVxPI8zH/AFHqU2IxzdNuy7drL4L9cd9Lf1VnukRERHCIiAuc+0vx41F5wl9wXRhc59pfjxqLzhL7ggmbubPt2ofwtP8AzHq2S5pad1fqDTT6h9puElMZmtbIWBh3g0kj67XeVbV/4xbQv/cFT/DD/oQdA1hb3qGy2GkfV3OvhpomjPhuwXdTRzJ6gqD1m1HXdYwtk1FXgEY8B7Y/bG1q02qrq+uldPUTTTSYwZHuc92B5XOJPSgkTaltBk1jeWvha6Ohpg5lNG7mQTxe7/id5OgLX9B6am1Jqa3W5kZcySUGY8cNhYQXk46uHpXz6a0ZqHUtU2C2UEkw3gHyDhEzlkueeAxnOOfUrvbOdnVBoy3vG82aunA7/PjAwOTGDoaPaUEjsY1jGtaMBoAA6gq190VYDNb7TeY2EmF7qaUgfqyeEwn/ABDHpVl1qutrC3UGlrtbMDfmp3d6JGd2VvhMPoIQc9dMXiWy323XKNzgaapjlIGMlrT4Q4+VuQul1PPHUQRTRuBZIxr2kdIcMhcupWvhnIfGWuDjvMIIwQeLSD5OSvjsW1ALxoaiic/emoHGlk5g7rOLDx8rSEEtKONrF3+a9BXuRpIknh+TR4ODvTncz6AcqR1WTujbwG0dltLXcXvkqXgHoYNxuR2uz6EFTW8ZstHAHIB6uQXSTRNm+ZNKWW3EAPhpIxJgYy8jLj6yqJ7M7E696zs1JuuMfylssuBn6OH6Q57cAeldFQgwGqL3HYdPXS6PGfktM+QN/acB4I9JXNmvqqmtrqioneXzyyufI7pc95yT6yrr7fa8UuhRDw/Ka+CMjyhhMv8A0qj0Yy7OTyJHbjh7UFtdhOz+lZQM1NX07XzSucKFrxwYxvAy4I+s45DT5O1WaWH0/b4bbY7XQxDDKekijaP3WgLMICjfaxb6Gr0HfpKimjkfT0r5YXOaC6N7eTmnoKkhaHtP/R9qf8BIg53uAFQ4AcBIQPWujOzrxD0t5qpvgC5zP+1P+8PvXRnZ14h6W81U3wBBuaInJARR/ftqGibFK+Gqu8b52nDoYAZntOM+EGZx6VHdR3RelmPc2C03CQA/Wd3qPPYC7KCwTmtc0tcAQRgg8QQVz82taYpNOaxrqWkY1lPIGTwxgYDGy5y0dQIOOpWDpe6J0pJI1lRbLhECfrDvcgHbuuz7FCe2bVlh1PfKCstUz3sZQiOTfjdG4O3y7GHAdB6EGxdzrcpIdVV1Fw73U0DifLvQvBHseVcxUc2BePlN+Eqvc1XjQYHVXizfPN9R/LK5oN/PR9rPcF0v1V4s3zzfUfyyuaDfz0faz3BB0H2Sfo605+GPxlSMo62S/o603+GPxlSKg/CA4EEAgjiqJ7a9I02ntVOlpIhHTV0fyhjByY7O7I0dWcEdqvaqzd0fRMfb9P1f6zJqiL0OYH/9KCJNiV3lt+vLaxp+jqhJTSDOOD2lzfUWq+i5r6HlfFq/T72OIIudLx6jK1p9hXShB5zfmpP3T7ly9uP22o+9k+IrqFN+ak/dPuXL24/baj72T4iguvsC8R5POE/9FN6hDYF4jyecJ/6Kb0BERBpW0fxC1R5rqPgK51H7WPvR710V2j+IWqPNdR8BXOo/ax96Peg6IbMf0f6Y83xe5b0tF2Y/o/0x5vi9y3pBUXuhNWPmudLp+CUiKlY2aoAPOWQeCD+63j6VCuh9LVGqdRUNriJa2RxMsgGe9xs4ud2jkOshem0G4SXHWN+qXgAvr5gMHPgxu72PY1Tj3N9sY6pvtxdG3ejihgjdjiN8l7vXgILL2Ox2yxW2nt9tpmw08TcNaOZPS5x5lx6SVmERAREQEREBERARFgtQXymsdtmrJuJHCNg5veeTR/VHZhxZM2WmLHWbXvaIrEeMy1LaDqr5spDb6WTFXUM8JwPGKM8M9p5BV9AwOA4AcML7K+uqbhWT1dTJvyyvLnHo7B1AcApC2d6W+cKoXOrjzTQP+iaRwklaefY33o1bS4NLw/tNr5JibRHPJMd97z3RH7Mlp/Zi2opYKm6VMrDI0O+TxgNLQeQc45OexSba9MWG1YNJb4mvx+cI3nntc7JWfRGda7ety1tr+l1F4pM/w6z0axHu5R3/ADERERSs+0PxvuH3UPwrMbK/7fqvwZ+ILD7Q/G+4fdQ/Csxsr/t+q/Bn4gktV1P8p/4WP7QsAvwgEcV+ojKmsXTR+nboXOqLfGJD/ex/Rv8AW3CirVGzp1ro5a6gqJZoo+MkT2gva3ygjGcdPSp8X8uaHNLSAQRgg9KJjb993HRXx9HPe+OJjnjtPOJj3Rz7vkpu1zmOa5ji1zSHNcDxBByCOw8VZXRWp2323ASuaKuABs7f2vI8dR96iDXGlzY7j32Bn5FUOJi8kbuZj7OkdS12yXiqs1ygrac5LDh7Oh7Dzae3o60aBuWj02+7XTLgmOn0elitPhPjWftK2yLH2y40tzoYKymfvRStBHlHlBHQR0rIIym9L0val6zW1ZmJie+JjwEREfIuc+0vx41F5wl9wXRhc59pfjxqLzhL7gg2XZRs8t2tKi6R1lZPAKaGJ7TEGHO+5wOd8H9lTWO5y0303m4fwQj/AKVqvc2fbtQ/haf+Y9WyQQFTdzvo6J+9LX3OX/hMkbB/laCtwtux/Z9QP3xZWVDsAZqXun5dTyR7FJqIPCnpqemibFBCyKNow1jGhrR2AL3REBERBQnbPpg2PWdZJHHu09b+VQkAgDfPht9DuPpWy9z/AKlFBqaW1SvxFcId1gJOBNFlzeri3I9CmbblpZt40k+4Rxg1FsLps4GTCRiQZ7PC9CpVaq+ptlzpaymdienmZJGc8N9jsjljgcY7EHUBUD2zXxl413czG5rmUpbSMIOeEOd7/M4+pXKn1fRDREmpoyTD83GpaOnO7kN49OeC51VM8tVVySzuc573ufKeGS4kucfWSgsx3OVhDqm73p7ARExtLEc8nPxI/wBm6Fa9R9swsDrDom0UsjC2eSP5RODjIkm8Mg48mcehSCgr33RjXHSdpdg4FzAPpifhU7opGR1UT3/Va9rndjXAlXv212t1w0BcHtZvOpJIqnH/AAsd4X+UlUKaCyUtJxxLSe3gg6kU5BghI5FjfcvZaZs/v0d/0hZ68OzIadscw5Ylj8B4PpC3NAWh7T/0fan/AAEi3xaHtP8A0fan/ASIOd7/ALU/7w+9dGdnXiHpbzVTfAFzmf8Aan/eH3rozs68Q9Leaqb4Ag3NVA2xbVq2pr6qw2eofDSQPMdRNG7ddM9p8Joc05DGnhw5nqVrbzVOpLTcalvOGllkHa1pK5izPfLLvOc5znYJLiSSXcSTnykoPqoaG4XOpjpaSCWaWR2GRRtLi49Qb7VLNDsH17VQtkfSU9OTnwZqgBw7QwOx61OewXTlvo9Jsu7YgaqtkkzI4DLY43FjWtxyBxk9ZU7IKRP7nzXTG5Hze/qbUEfEwKLtTaTvemK5tJdaQwyOZvsG814c3ON4FvRldLlTjujvGa1ebf8A5SgwWwLx8pvwlV7mq8io3sC8fKb8JVe5qvIgwOqvFm+eb6j+WVzQb+ej7We4LpfqrxZvnm+o/llc0G/no+1nuCDoRsl/R1pv8MfjKkVR1sl/R1pv8MfjKkVAVd+6M8XrL+Ok/kuViFXbui/F2y/jpP5LkFW9GeNVi85Un89q6Whc0tGeNVi85Un89q6WhB5zfmpP3T7ly9uP22o+9k+IrqHIMxvHlafcuYF3jdHcqtjubZ5QfQ8hBdPYF4jyecJ/6Kb1A/c+TiXRlWzpjuUoP+JrX/1U8ICIiDSto/iFqjzXUfAVzqP2sfej3rortH8QtUea6j4CudR+1j70e9B0Q2Y/o/0x5vi9y3orRdmP6P8ATHm+L3LekHMvVDXNv90DuYranPb31ytF3ODmmz39v6wqoSewxj/sq/bT7X8164v1PuuA+WPlbn9mbEgI9LipP7nW9w0t+uNrkfg1tM18eSMGSAnIHWWu9iC4iIiAiIgIiICIiDzlkjijfJI4NY0EuceAAHSqyav1LJf7kXsJFLFltOzyjpeet3uW6bSdU7znWWkf4IwatwPpEf8AVyiKOOSaVkcbC573BrWjmS44ARo/CuzxgxRrs9eV719nE+Ws+b4z9ma05Yqi+3SKkiy1g8KaTH1I+k9p5BWko6OnoqWGmp4wyKJgaxo6AFr2ktOQ2G2Mh4OqJMPnkHS7yDqHILa0VriLeJ3HVdDHPsMUzFP1T42/AiIiuiIiCs+0PxvuH3UPwrMbK/7fqvwZ+ILD7Q/G+4fdQ/Csxsr/ALfqvwZ+IJLVdT/Kf+Fj+0LAIiIyoREQYq82mlu9unoqluWSN4Hpa4cnDrBVWbta6q1XCeiqW4kiPMDAc08nDqKt2tA15pgXi3/KIGD5ZTNLo+Q328ywk+sdaLRwzvPqOp9XzW9hlt3z3Ut7/hPijPQWqDaK8UlTIfkdS8Ak8o5DwDuw9KsUCCMhU07R6CFPOzrVJrqb5rq5M1EDPoXOOTJGOHT0tRMcWbN0onX4K9cfxqx4x/V+UpoiIz8XOfaX48ai84S+4LowudG0lpdrnUeCP7Ql6QPIgmXubPt2ofwtP/MerZKp3c28K/UIyM/JafkQf13q2KAiIgIiICIiDzlijmikikaHMe0tc08iCMELnNr/AEvLpjU1fbSD3tj96Bx/WhfxYc9Q4doXR1QBt70h852KK9wR5nt4ImwOJgceJ/wHj2ZQVrZrutboGXS+CWPuDZw44wIvrGMcub/CX87NtOO1Fq+1URYXQ9+Es/AEd6i8N2c+XgPStCIIJB5g4Kt93POmBT224X6aPD6h3yeAkD6kZy8g9buHoQWTAAAAGABwX6iIPmrKSCtpKilqIw+KaN0cjTyLXjBC5ya30rWaW1BWWyoGQw70L/8AeQkncfyHMDB610kWh690Fa9ZWv5PU/RVUQcaWqa0F0ZPQR+sw9IQVI2VbS5dH1z6epY6S21LgZmN+sxwGBIzynAwR0hXYsuorJfaRlTbLhDURuH6jgSOpw5g9RVAtW7PNS6WqHtrqJ3eN7DKlgLoXjy7w+r2OwVqdNVV1LKJoJJWPHKRjnNP8TSCg6iKP9qM0TNA6la6RrS6heACQCSegKh/+1WpTw+d7h2fKZv9Sx1XW3GucH1Mk0rgMB0jnyEdheThB8j/ALS/7w+9dGdnXiHpbzVTfAFzrpKOoqJo2QxukeTwawF7vU3JXRnQUE9PonTUM8T45I7bTtfG9pa5rgwZBB4goNhuNKKy31lMeU0D4/4mkf1XMWvpZqOsmp5m7ssLzG9vkdGdw+0LqOqxbYNklXcKuov9jgMsknhVdKz65cBjvkYPPI+sPSEHvsI13aBZxp6sqI6eoinkfTb7g1srZDvlrSf1mknh5FZUEEAjiFy4lpqqmmfDJE5sjTh0bmkOBHlaeI9IWdpNW6roQ1tNebjC1owGsnkA9RJCDpWqcd0d4zWrzb/8pUSya51tM0h1/upB5/TvHuwtdrqy4V0rZayeaV+MB0r3OOO15KCX9gXj5TfhKr3NV5FR7YJG4a8p+RxSVOcHOMhuM47FeFBgdVeLN8831H8srmg389H2s9wXS7VXizfPN9R/LK5ptb9LGctx4PSPIEHQbZL+jrTf4Y/GVIqjnZL+jrTn4Y/GVIyAq7d0X4u2X8dJ/JcrEqu3dF+L1lyQPy6TmfLC5BVvRnjVYvOVJ/PauloXNTRzd3VVhyRxudJ0g/3zV0rCAucO0O1y2vWV9pJOba2VzeGPAld3xp9Tl0eUA7Z9mdRqKKO82qIvroYwyaEHjNG3JBb0F7c8ukIIy2Ea5t9lr6y0XGobDBWljoZHnDWzNG7hx6A4Yx1hXIY9j2hzHBwPIg5C5cy01TTzPifE9sjCWuYWkOaRzDgeI9KyVNfb5SxNigrquJg5MZNKwDsDXAIOlFfdLdbYHz11ZBTxMGXPleGAD0r8td0oLtQw11DUNnp5QTHI3k7Bxw9S5nVdbcayRr6maWRw4B0r3OI6eBeThXU2DVFa/RklPU0ssTYK2TvLnsc0PZLiTLd4DIBJHBBvG0fxC1R5rqPgK51H7WPvR710V2j+IWqPNdR8BXOvH5Tvbzcd8zneHl7UHQ/Zj+j/AEx5vi9y3paLsx/R/pjzfF7lvSCsPdBaNlqI6XUdLGXd6YIKzHQ3JMch48gSWntVXLVc6y03GlraWV0U9PK2RjgcEOafaOgjpC6c1VNT1dPNT1ETJYZWFkkbxlrmuGCCD0FU42hbELnaZZq2wxS1lCSXd5b4U0A54xze0cgRx8qCeNC7WNO6npoYpqiOkuO6N+nkduh58sTj9YdXMdKlYODgCCCD0hctXRTxPcwsO81xDmkcQRw4g8j2rLQ6iv8ATRtihuNbE1owGsnlaB1ABwQdMnyRxtLnvDQOknAWKoL9ZblVVVLQ3GnqJqcNMzInh5Zv8t7Hlwub1XeL3WxblVV1UzMg4klkkbw48nkhTn3O9ZUR6nuFOIwY5reS5zeIa6N4LQccBnePqQXGREQEREFVdU2qutt4rhVRvDZJ5JGSkHce17i4Ydyzxxjmte4hXGlhimYWSxte082uAI9q0q57O9NV286OndSyHPhQHdGfKW8Wn1I0Lb+MdPGPHj1WC1ZisRN6dcTy8eXVyQdbNVagthaKa4y7g/u5D3xnqdx9RUhWzau4YbcrdnyyQHPpLXf0Kxdz2W3in3nUNTFUt6Gu+jf/AFB9ij+vtdytzy2to5oD5Xtw3+IZHtRL+g4d3iOdYw3vPjXsZPnHVP1WXtertPXQtbTXCPvh/upPo3+p2FsoIIVNCARggEeQjKz1t1PfrYR8luMwYD+bee+M9Ts+whELq+Cq9c6TVcv05I/ePwtcihO2bVpm7rLlbw4cMyQHB7S139CpDtesdO3QtbBXsbIf7qX6N/qdhFW1mx7po+c5dLaax56dqv8Aru+aENofjfcPuofhWY2V/wBv1X4M/EFh9oRB1dXkHP0cHwrLbLnNbfqsuIAFGck/vBJX/U/ynH/ix/aFgkWn3TXWmrcXMfWiaQcDHCO+EHrxwHpUeXParXSbzbdQshHRJMd938LcD2ooej2DddXymmmtWs+e/Yj/AH3/ACTi5zWgkkADpK1O6a303bS5stc2SQc44R3xw7d3l6VXi5X+83Mn5bXzStP6m9us49G63A9axHBregAegItGj4KxxynV6mbfpxxyj6z+EuXPatVv3m26gZEOiSY7zu3dbw9qj25aivlzJ+WXCZ7T+oDuM/hbj2ryt1ju9zcBRUE0oOPDDcM/idgY7FIVs2VXGUNdcK2OAdLIh3x3rOB7ETHR4d2f/ox3j39vJ+8oo5Ak8hzK3rZ/aq+q1BRVcUbxBTuL5JcENILS0NB6Sc9Cl+2aD01by1wohPIOPfJz3w56geA9C3BjGsaGsaGgcgBgIgt04uw5cGbBpcFp6dLUm9+UcotHKeURzf2iIihiws2nLBPK+aa0Uckj3bznuhaS4npJIWaRBjqK02ugdI6joaeAvADjHG1hIHIHCyKIgIiICIiAi8Z5mQQSzP8Aqxsc53Y0ZUFWzugtJ1DMVtFXUr8A8GCZpz1sOfWEE9qNtqWrKTTelK179x9RVsdT00ThvBznjBJH7LRxK0m790JpamgcbfQ1lTMWndEjRCzI8pcSfUFVrV2sLzq66ura+XJxuxRN4RxM57rQejpJPPpQYe0Wyru92pKGjYXTTzMiiGOk8ATjPADiexdJLBZ6ayWW32unH0dLAyMHpO6OJPWTxUB7CtnslBD/ALR3GHdlmjLaJjgQWxu+tIc9Lv1ertVlEBERAREQfxJHHI0sexrmkcQRkFaJcNmGgrg5759O0Ye8kudG3vRJPEnwMcVvyIIkGw/ZwCP/AEmUgHkamYj4lmaXZVs9pt3c03RuI/3gMnxEqQkQY+htVrt8bI6Khp6djRhrYo2sAHoCyCIgIiIMDdtMadvIAuVopKrHIyxNc4dh5rT59jmzmZ28bDG3qZI9o9hUnIgjeDZHs7gHDT1O798uf7ys1S6B0TSPa+DTdtY4cnd4YXD0kErbkQfPBSUtOMQQRxjyMaG+5fQiIPOSOOWN8cjA5j2lrmuGQQeYKwv+y2mh/wDRKD/kM/7LPIg+empqekhZBTwsiiYMNYxoa1o6gOS+hEQF8NbbbfXsYyso4Z2sdvNErA8A4xkZX3IgwcemtPRSMkZZ6Jr2uDmuELAQQcgjgs4iICIiDW7zpDTF7cH3OzUlS8DAe+MF4/xDitSfsZ2cvk3/AJiYOPISSAerKlFEGnWvZ/ou1StlotP0UcjeUhjD3DsLslbgAGgAAADkv1EHlPBDUQyQzRtkje0texwBa4HoIKw3+y2mv/wlD/yGf9lnkQeNPTwU0McMETI4mDDGMAa1o8gA5L2REBERBrd40hpe9uDrlZaOpeAcPfGC8Z8jhxWmTbE9nEsjnmzOZnmGTytHqDlK6II+pNlez6k3dzTdG/A5ytMue3fyt2pKGioohFS00ULAODY2Bo9i+tEBERAREQEREBeckccrC2RjXNPMOGR7V6IhEzE84lo9z2faar95zaU00hz4cB3OJ6S3kfSFHlz2WXaDLqCriqW9DJPo3+sZB9intETej4h3bS8orqZvWPLk7Uf764VFuFoultcW1tDNBj9Z7fB/iGR7VjSA5vEAg+kK5L42SNLXtDmnmCMj2rTbnoHTVw3nfJPk8jsnvkB3DnykDgfSEWjScaYbco1WmtSf6sc9KPpKtRc5xy5xJxjJJPLtX4CQCASARgjJ4jyHyqVbjsquURLqCtinb+zKO9u9YyPYva27KKt+HXG4NiHSyAbzv4nDHsROzxFssYfSeuU5e7lPS+nLmiPg1vQGj0ALMW2wXq5kfI7fNID+vu7rP4nYHqVh7XonTdtLXxUDJJG8pZvpHeje5ehbW0NaAAAAOgIgNXxrjjnGk0s2/VknlH0j8oOtmymulDXXGuZCOmOEb7v4ncPYpDtmhtNW4teyhbLKOIkm+kcD1Z4D0LcERV9Zv+66vnF9TatZ8lOxHw6u/wCb+Wta1oa0AAcgOS/pERDCIiAiIgIiICIiAiIgIiINf1Vb6+56cvFBQSMjqamkkiie8kNDnjGSQCR2qldy2J7QKSXDbSJ2/tQTMePU4sKvoiCg9BsT2g1cu660GBvDw55o2D1NLj7FOWiNg1utU0NbfZ462dmC2mYCIGuGDlxdxfg8uQ6lYZEH4AGgAAAAcAv1EQEREBERAREQEREBERAREQEREBERAREQEREBERAREQEREBERAREQEREBERAREQEREBERAREQEREBERAREQEREBERAREQEREBERAREQEREBERAREQEREBERAREQEREBERAREQEREBERAREQEREBERAREQEREBERAREQEREBERAREQEREBERAREQEREBERAREQEREBERAREQEREBERAREQEREBERAREQEREBERAREQEREBERAREQEREBERAREQEREBERAREQEREBERAREQEREBERAREQEREBERAREQEREBERAREQEREBERAREQEREBERAREQEREBERAREQEREBERAREQf/2Q==;imageBorder=#e92063;" vertex="1" parent="1">
          <mxGeometry x="260" y="170.00000000000003" width="90" height="22.78" as="geometry" />
        </mxCell>
      </root>
    </mxGraphModel>
  </diagram>
</mxfile>
